<?xml version="1.0" encoding="utf-8"?>
<!-- Generator: Adobe Illustrator 27.5.0, SVG Export Plug-In . SVG Version: 6.00 Build 0)  -->
<svg version="1.1" xmlns="http://www.w3.org/2000/svg" xmlns:xlink="http://www.w3.org/1999/xlink" x="0px" y="0px"
	 viewBox="0 0 750 500" style="enable-background:new 0 0 750 500;" xml:space="preserve">
<g id="BACKGROUND">
	<rect style="fill:#FFFFFF;" width="750" height="500"/>
</g>
<g id="OBJECTS">
	<g>
		<linearGradient id="SVGID_1_" gradientUnits="userSpaceOnUse" x1="241.3262" y1="346.2068" x2="241.3262" y2="223.0836">
			<stop  offset="0" style="stop-color:#FCC446"/>
			<stop  offset="0.0676" style="stop-color:#FCB949"/>
			<stop  offset="0.3547" style="stop-color:#FD9055"/>
			<stop  offset="0.6157" style="stop-color:#FE735E"/>
			<stop  offset="0.8395" style="stop-color:#FF6063"/>
			<stop  offset="1" style="stop-color:#FF5A65"/>
		</linearGradient>
		<path style="fill:url(#SVGID_1_);" d="M274.176,328.741v-65.348h-2.052v-7.401v0h-1.456v-13.173h1.456v-2.772h-1.456v-7.588
			h-0.484c-1.199-2.012-3.684-2.735-4.967-2.982c-0.005-0.473-0.335-0.879-0.807-1.064v-1.473c0.244-0.152,0.405-0.396,0.405-0.675
			c0-0.278-0.16-0.523-0.405-0.675v-1.194l-0.562-1.309h0c-0.005-0.012-0.012,0-0.012,0l-0.562,1.309v1.194
			c-0.244,0.152-0.405,0.396-0.405,0.675c0,0.278,0.16,0.523,0.405,0.675v1.473c-0.473,0.184-0.802,0.59-0.807,1.064
			c-1.284,0.246-3.768,0.97-4.967,2.982h-0.865v7.588h-1.456v2.772h1.456v6.445h-15.436h-15.179v-6.445h1.457v-2.772h-1.457v-7.588
			h-0.484c-0.749-1.257-2.001-2.012-3.148-2.46c-0.459-0.18-0.901-0.31-1.287-0.405c-0.193-0.047-0.372-0.085-0.533-0.116
			c-0.005-0.473-0.335-0.879-0.807-1.064v-1.473c0.244-0.152,0.405-0.396,0.405-0.675c0-0.278-0.161-0.523-0.405-0.675v-1.194
			l-0.562-1.309c-0.005-0.012-0.011,0-0.011,0l-0.185,0.43l0,0l-0.378,0.879v1.194c-0.244,0.152-0.405,0.396-0.405,0.675
			c0,0.278,0.16,0.523,0.405,0.675v1.473c-0.473,0.184-0.803,0.59-0.807,1.064c-1.284,0.246-3.768,0.97-4.967,2.982h-0.865v7.588
			h-1.456v2.772h1.456v13.173h-1.456v7.401h-2.052v65.348h-1.816v17.465h12.341h1.976h10.365h0h9.854h10.112h5.364h2.372h4.605
			h12.341v-17.465H274.176z"/>
		
			<linearGradient id="SVGID_00000029048050205264552660000014849919353441420704_" gradientUnits="userSpaceOnUse" x1="281.9233" y1="346.2068" x2="281.9233" y2="255.9925">
			<stop  offset="0" style="stop-color:#B13780"/>
			<stop  offset="0.1584" style="stop-color:#98529A"/>
			<stop  offset="0.359" style="stop-color:#7E6CB4"/>
			<stop  offset="0.5643" style="stop-color:#6C7FC7"/>
			<stop  offset="0.7752" style="stop-color:#628AD2"/>
			<stop  offset="1" style="stop-color:#5E8ED6"/>
		</linearGradient>
		<path style="fill:url(#SVGID_00000029048050205264552660000014849919353441420704_);" d="M336.32,310.48h-7.032
			c-0.124-1.179-1.056-1.243-1.056-1.243v-6.833h0.621v-1.677h-0.435v-1.242h0.435v-1.677h-0.497v-0.994h0.497v-1.491l-0.372-0.372
			l-0.63-3.399h0.029v-3.046l-0.761-0.76l-1.905-10.282l-2.031,10.154l-0.888,0.888v3.046h1.015v2.031h-1.142v3.427h1.142v2.538
			h-1.015v3.427h1.015v2.94c-0.091-0.027-0.175-0.049-0.248-0.065c-0.002-0.206-0.125-0.382-0.301-0.463v-0.64
			c0.091-0.066,0.151-0.173,0.151-0.294c0-0.121-0.06-0.228-0.151-0.293v-0.52l-0.21-0.57c-0.002-0.005-0.004,0-0.004,0l-0.21,0.57
			v0.52c-0.091,0.066-0.151,0.173-0.151,0.293c0,0.121,0.06,0.228,0.151,0.294v0.64c-0.176,0.081-0.299,0.257-0.301,0.463
			c-0.571,0.128-1.779,0.55-2.052,1.867c-0.36,1.738,0.69,2.218,0.69,2.218h-0.345v0.547h-0.732c-0.497-0.931-1.429,0-1.429,0
			h-0.745c-0.198-0.09-0.388-0.168-0.573-0.232c-0.233-0.228-0.467-0.26-0.673-0.202c-0.041-0.01-0.091-0.026-0.13-0.034
			c-0.004-0.421-0.255-0.781-0.615-0.945v-1.309c0.186-0.135,0.308-0.353,0.308-0.6c0-0.247-0.122-0.465-0.308-0.6v-1.061
			l-0.234-0.634c0.577-1.412,0.873-3.408,0.298-6.186c-1.129-5.456-6.138-7.207-8.504-7.736c-0.007-0.853-0.517-1.585-1.248-1.918
			v-2.655c0.378-0.273,0.626-0.715,0.626-1.217c0-0.502-0.249-0.943-0.626-1.217v-2.153l-0.87-2.36c-0.008-0.022-0.018,0-0.018,0
			l-0.87,2.36v2.153c-0.378,0.274-0.626,0.715-0.626,1.217c0,0.502,0.248,0.943,0.626,1.217v2.655
			c-0.731,0.333-1.241,1.065-1.248,1.918c-0.824,0.184-1.971,0.523-3.161,1.109c-3.439-8.56-12.046-11.533-16.364-12.498
			c-0.015-1.744-1.057-3.24-2.55-3.919v-5.425c0.771-0.559,1.279-1.461,1.279-2.486c0-1.025-0.507-1.927-1.279-2.486v-4.4
			l-1.777-4.823c-0.017-0.045-0.036,0-0.036,0l-1.777,4.823v4.4c-0.772,0.558-1.279,1.461-1.279,2.486
			c0,1.025,0.507,1.927,1.279,2.486v5.425c-1.494,0.679-2.535,2.175-2.55,3.919c-4.428,0.99-13.366,4.092-16.615,13.167
			c-1.583-1.017-3.247-1.532-4.344-1.777c-0.007-0.853-0.517-1.585-1.247-1.918v-2.655c0.377-0.273,0.626-0.715,0.626-1.217
			c0-0.502-0.248-0.943-0.626-1.217v-2.153l-0.87-2.36c-0.008-0.022-0.018,0-0.018,0l-0.869,2.36v2.153
			c-0.378,0.274-0.626,0.715-0.626,1.217c0,0.502,0.248,0.943,0.626,1.217v2.655c-0.731,0.333-1.241,1.065-1.248,1.918
			c-2.366,0.529-7.375,2.28-8.504,7.736c-0.913,4.415,0.364,6.865,1.492,8.105c-0.068,0.111-0.114,0.236-0.114,0.376
			c0,0.247,0.122,0.465,0.309,0.6v0.112h-0.258v1.365c-0.216,0.19-0.355,0.467-0.357,0.777c-0.323,0.072-0.749,0.198-1.203,0.389
			c-0.203-0.22-0.852-0.8-1.421,0.079h-1.118c0,0-0.932-0.931-1.429,0h-0.639v-0.547h-0.345c0,0,1.049-0.48,0.689-2.218
			c-0.263-1.271-1.393-1.706-1.985-1.849v-2.892h1.015v-3.427h-1.015v-2.538h1.142v-3.427h-1.142v-2.031h1.015v-3.046l-0.888-0.888
			l-2.031-10.154l-1.904,10.282l-0.761,0.76v3.046h1.016v2.031h-1.016v1.414l-0.108-0.108l-0.994-4.969l-0.932,5.031l-0.372,0.372
			v1.491h0.497v0.994h-0.497v1.677h0.435v1.242h-0.435v1.677h0.621v6.833c0,0-0.932,0.064-1.056,1.243h-0.497v13.083h1.435v22.645
			h35.411h0.232c2.922-5.439-2.409-22.466,15.27-22.165c16.076,0.274,12.348,16.725,15.271,22.165h0.232h41.443h1.508v-22.645h0.001
			V310.48H336.32z M229.69,299.484h0.559v-1.677h-0.559v-0.994h0.17v0.195h0.889v2.538h-0.889v1.18h-0.17V299.484z M231.13,310.48
			h-0.321c0,0,0-1.243-1.118-1.243v-6.833h0.17v0.57h1.27V310.48z M243.362,307.87v-0.112c0.015-0.011,0.022-0.029,0.035-0.041
			c0.163,0.101,0.269,0.153,0.269,0.153H243.362z M314.566,306.557c-0.186,0.135-0.309,0.353-0.309,0.6
			c0,0.247,0.122,0.465,0.309,0.6v1.309c-0.22,0.1-0.391,0.279-0.498,0.495v-1.691h-1.429c0,0,1.038-0.481,1.926-1.808V306.557z
			 M326.617,309.236c-0.003,0-0.004,0.001-0.006,0.001v-6.264h0.006V309.236z M326.864,293.339v-1.789h0.358L326.864,293.339z"/>
		<g>
			<g>
				
					<linearGradient id="SVGID_00000076605113762769703450000000656729412130170277_" gradientUnits="userSpaceOnUse" x1="350.9294" y1="346.2068" x2="350.9294" y2="130.0555">
					<stop  offset="0" style="stop-color:#46A691"/>
					<stop  offset="0.113" style="stop-color:#609B8B"/>
					<stop  offset="0.4266" style="stop-color:#A47F7B"/>
					<stop  offset="0.6895" style="stop-color:#D56B6F"/>
					<stop  offset="0.8883" style="stop-color:#F45F68"/>
					<stop  offset="1" style="stop-color:#FF5A65"/>
				</linearGradient>
				<path style="fill:url(#SVGID_00000076605113762769703450000000656729412130170277_);" d="M366.353,240.775h2.993v-35.911h-4.239
					V204.5v-8.997h1.246v-2.148h-1.246v-7.059h0v-6.138h-1.431l-1.127,6.138h-1.446l-0.744-5.432h0.461v-2.548h-2.217v-1.539
					v-11.248h1.072v-2.253h-1.072l-7.544-31.224h1.395l-1.524-1.995l-1.852,1.995h1.722l-7.543,31.224h-1.072v2.253h1.072v6.36
					v6.427h-2.217v2.548h0.461l-0.745,5.432h-1.446l-1.127-6.138h-1.431v6.138v0.921v6.138h-1.246v2.148h1.246v0.394v8.967h-4.239
					v35.911h2.993v16.094v18.436h-2.071v1.842h2.071v2.3h-2.071v1.842h2.071v34.992h-2.071v1.842h2.071v2.302h-2.182v1.842h2.182
					v23.941h30.847v-23.941h1.959v-1.842h-1.959v-2.302h2.071v-1.842h-2.071v-34.992h2.071v-1.842h-2.071v-2.3h2.071v-1.842h-2.071
					v-2.826V240.775z M360.336,203.052v-4.633h1.109v4.835h-0.443h-0.666V203.052z M357.845,202.297v-3.878h1.109v4.214v0.621
					h-1.109V202.297z M355.41,170.497h1.149v5.627v2.19h-1.149v-2.556V170.497z M355.355,201.541v-3.122h1.109v3.459v1.377h-1.109
					V201.541z M352.832,170.497h1.149v4.806v3.011h-1.149v-3.377V170.497z M353.974,198.419v2.703v2.132h-1.109v-2.469v-2.367
					H353.974z M351.484,198.419v1.948v2.888h-1.109v-3.224v-1.611H351.484z M350.254,170.497h1.149v3.985v3.832h-1.149v-4.198
					V170.497z M348.994,198.419v1.192v3.643h-1.109v-3.98v-0.856H348.994z M347.677,170.497h1.149v3.164v4.653h-1.149v-5.019
					V170.497z M346.503,198.419v0.437v4.399h-1.109v-4.735v-0.1H346.503z M345.099,172.474v-1.977h1.149v2.343v5.474h-1.149V172.474
					z M342.904,198.419h1.109v4.835h-1.109V198.419z M340.414,198.419h1.109v4.835h-1.109V198.419z M341.453,341.391h-1.34v-19.124
					h1.34V341.391z M341.453,320.424h-1.34v-2.302h1.34V320.424z M341.453,316.281h-1.34v-34.992h1.34V316.281z M341.453,279.447
					h-1.34v-2.3h1.34V279.447z M341.453,259.879v15.427h-1.34v-16.105v-10.138h1.34V259.879z M341.453,246.991h-1.34v-2.303h1.34
					V246.991z M344.252,341.391h-1.34v-19.124h1.34V341.391z M344.252,320.424h-1.34v-2.302h1.34V320.424z M344.252,316.281h-1.34
					v-34.992h1.34V316.281z M344.252,279.447h-1.34v-2.3h1.34V279.447z M344.252,261.295v14.01h-1.34v-14.688v-11.554h1.34V261.295z
					 M344.252,246.991h-1.34v-2.303h1.34V246.991z M347.052,341.391h-1.34v-19.124h1.34V341.391z M347.052,320.424h-1.34v-2.302
					h1.34V320.424z M347.052,316.281h-1.34v-34.992h1.34V316.281z M347.052,279.447h-1.34v-2.3h1.34V279.447z M347.052,262.712
					v12.593h-1.34v-13.271v-12.971h1.34V262.712z M347.052,246.991h-1.34v-2.303h1.34V246.991z M349.851,341.391h-1.34v-19.124h1.34
					V341.391z M349.851,320.424h-1.34v-2.302h1.34V320.424z M349.851,316.281h-1.34v-34.992h1.34V316.281z M349.851,279.447h-1.34
					v-2.3h1.34V279.447z M349.851,264.129v11.177h-1.34v-11.855v-14.388h1.34V264.129z M349.851,246.991h-1.34v-2.303h1.34V246.991z
					 M352.698,341.391h-1.34v-19.124h1.34V341.391z M352.698,320.424h-1.34v-2.302h1.34V320.424z M352.698,316.281h-1.34v-34.992
					h1.34V316.281z M352.698,279.447h-1.34v-2.3h1.34V279.447z M352.698,265.569v9.736h-1.34v-10.414v-15.829h1.34V265.569z
					 M352.698,246.991h-1.34v-2.303h1.34V246.991z M355.498,341.391h-1.34v-19.124h1.34V341.391z M355.498,320.424h-1.34v-2.302
					h1.34V320.424z M355.498,316.281h-1.34v-34.992h1.34V316.281z M355.498,279.447h-1.34v-2.3h1.34V279.447z M355.498,266.986
					v8.319h-1.34v-8.997v-17.245h1.34V266.986z M355.498,246.991h-1.34v-2.303h1.34V246.991z M358.297,341.391h-1.34v-19.124h1.34
					V341.391z M358.297,320.424h-1.34v-2.302h1.34V320.424z M358.297,316.281h-1.34v-34.992h1.34V316.281z M358.297,279.447h-1.34
					v-2.3h1.34V279.447z M358.297,268.403v6.903h-1.34v-7.581v-18.662h1.34V268.403z M358.297,246.991h-1.34v-2.303h1.34V246.991z
					 M361.097,341.391h-1.34v-19.124h1.34V341.391z M361.097,320.424h-1.34v-2.302h1.34V320.424z M361.097,316.281h-1.34v-34.992
					h1.34V316.281z M361.097,279.447h-1.34v-2.3h1.34V279.447z M361.097,269.819v5.486h-1.34v-6.164v-20.079h1.34V269.819z
					 M361.097,246.991h-1.34v-2.303h1.34V246.991z M335.046,238.318v-30.996h31.767v30.996H335.046z"/>
				
					<linearGradient id="SVGID_00000039106824758210226000000005927011445795092895_" gradientUnits="userSpaceOnUse" x1="350.9294" y1="236.6318" x2="350.9294" y2="209.0079">
					<stop  offset="0" style="stop-color:#46A691"/>
					<stop  offset="0.113" style="stop-color:#609B8B"/>
					<stop  offset="0.4266" style="stop-color:#A47F7B"/>
					<stop  offset="0.6895" style="stop-color:#D56B6F"/>
					<stop  offset="0.8883" style="stop-color:#F45F68"/>
					<stop  offset="1" style="stop-color:#FF5A65"/>
				</linearGradient>
				<path style="fill:url(#SVGID_00000039106824758210226000000005927011445795092895_);" d="M336.752,236.632h28.355v-27.624
					h-28.355V236.632z M350.929,209.988c7.075,0,12.832,5.756,12.832,12.832c0,7.076-5.756,12.832-12.832,12.832
					c-7.076,0-12.832-5.756-12.832-12.832C338.097,215.744,343.853,209.988,350.929,209.988z"/>
				
					<linearGradient id="SVGID_00000124147265340407892400000001730173827092103829_" gradientUnits="userSpaceOnUse" x1="350.929" y1="232.9405" x2="350.929" y2="212.6991">
					<stop  offset="0" style="stop-color:#46A691"/>
					<stop  offset="0.113" style="stop-color:#609B8B"/>
					<stop  offset="0.4266" style="stop-color:#A47F7B"/>
					<stop  offset="0.6895" style="stop-color:#D56B6F"/>
					<stop  offset="0.8883" style="stop-color:#F45F68"/>
					<stop  offset="1" style="stop-color:#FF5A65"/>
				</linearGradient>
				<path style="fill:url(#SVGID_00000124147265340407892400000001730173827092103829_);" d="M350.93,232.941
					c5.58,0,10.12-4.54,10.12-10.121c0-5.58-4.54-10.121-10.12-10.121c-5.581,0-10.121,4.54-10.121,10.121
					C340.809,228.4,345.349,232.941,350.93,232.941z M350.238,214.417h1.381v7.712h8.364v1.381h-9.745V214.417z"/>
				
					<linearGradient id="SVGID_00000151536568157163828430000007843022253270808235_" gradientUnits="userSpaceOnUse" x1="350.9291" y1="234.2709" x2="350.9291" y2="211.3688">
					<stop  offset="0" style="stop-color:#46A691"/>
					<stop  offset="0.113" style="stop-color:#609B8B"/>
					<stop  offset="0.4266" style="stop-color:#A47F7B"/>
					<stop  offset="0.6895" style="stop-color:#D56B6F"/>
					<stop  offset="0.8883" style="stop-color:#F45F68"/>
					<stop  offset="1" style="stop-color:#FF5A65"/>
				</linearGradient>
				<path style="fill:url(#SVGID_00000151536568157163828430000007843022253270808235_);" d="M350.929,234.271
					c6.314,0,11.451-5.137,11.451-11.451s-5.137-11.451-11.451-11.451c-6.314,0-11.451,5.137-11.451,11.451
					S344.615,234.271,350.929,234.271z M350.93,212.239c5.834,0,10.58,4.747,10.58,10.581c0,5.835-4.746,10.581-10.58,10.581
					c-5.835,0-10.581-4.746-10.581-10.581C340.348,216.985,345.095,212.239,350.93,212.239z"/>
			</g>
			
				<linearGradient id="SVGID_00000049917492083866753020000010603331486569978559_" gradientUnits="userSpaceOnUse" x1="596.7899" y1="346.2068" x2="596.7899" y2="165.3304">
				<stop  offset="0" style="stop-color:#75B465"/>
				<stop  offset="0.36" style="stop-color:#AB9165"/>
				<stop  offset="0.793" style="stop-color:#E76965"/>
				<stop  offset="1" style="stop-color:#FF5A65"/>
			</linearGradient>
			<path style="fill:url(#SVGID_00000049917492083866753020000010603331486569978559_);" d="M650.203,275.285h-3.022l-0.365-20.828
				l-0.129-7.355h1.734v-5.654h-1.833l-0.234-13.338h1.176v-5.654h-1.276l-0.128-7.297l-0.106-6.041h0.619v-5.654h-0.718
				l-0.155-8.82h0.872v-5.654h-2.501c-0.517-5-4.415-8.986-9.366-9.661v-4.64h0.371v-3.426h-0.77l-1.383-5.934h-0.294l-1.383,5.934
				h-0.77v3.426h0.371v4.795c-0.185,0.041-0.367,0.09-0.548,0.141l0,0l0,0c-4.251,1.181-7.462,4.862-7.927,9.366h-2.501v5.654h0.872
				l-0.155,8.82h-0.718v5.654h0.619l-0.019,1.11l-0.214,12.228h-1.276v5.654h1.177l-0.234,13.338h-1.834v5.654h1.734l-0.006,0.336
				l-0.488,27.847h-3.022v5.654h2.923l-0.236,13.45H607.43h-20.5h-12.411l-0.236-13.45h2.923v-5.654h-3.022l-0.365-20.828
				l-0.129-7.355h1.734v-5.654h-1.833l-0.234-13.338h1.176v-5.654h-1.276l-0.128-7.297l-0.106-6.041h0.619v-5.654h-0.718
				l-0.155-8.82h0.872v-5.654h-2.501c-0.517-5-4.415-8.986-9.366-9.661v-4.64h0.371v-3.426h-0.77l-1.383-5.934h-0.294l-1.383,5.934
				h-0.77v3.426h0.371v4.795c-0.185,0.041-0.367,0.09-0.548,0.141l0,0l0,0c-4.251,1.181-7.462,4.862-7.927,9.366h-2.501v5.654h0.872
				l-0.155,8.82h-0.718v5.654h0.619l-0.019,1.11l-0.214,12.228h-1.276v5.654h1.177l-0.234,13.338h-1.834v5.654h1.734l-0.006,0.336
				l-0.488,27.847h-3.022v5.654h2.923l-1.144,65.268h30.271l-0.716-40.868h7.72h29.499h6.94l-0.716,40.868h30.271l-0.776-44.281l0,0
				l-0.368-20.987h2.923V275.285z M567.273,275.285v-12.412v-15.771h1.624v16.663v11.52H567.273z M568.897,203.465h-1.624v-6.367
				h1.624V203.465z M567.273,241.448V228.11h1.624v13.338H567.273z M563.376,201.913v-4.815H565v5.549v0.817h-1.624L563.376,201.913
				L563.376,201.913z M565,222.456h-1.624v-2.352l0,0v-10.986H565v11.878V222.456z M561.103,200.884v2.581h-1.624v-3.315v-3.051
				h1.624V200.884z M559.479,209.118h1.624v9.737v3.601h-1.624v-4.493V209.118z M559.479,228.11h1.624v10.449v2.889h-1.624v-3.781
				V228.11z M563.376,241.448v-1.64l0,0V228.11H565v12.59v0.748H563.376z M567.273,222.456v-0.211v-13.127h1.624v13.338H567.273z
				 M555.583,198.386v-1.288h1.624v2.023v4.344h-1.624V198.386z M555.583,215.823v-6.705h1.624v7.597v5.741h-1.624V215.823z
				 M555.583,235.527v-7.417h1.624v8.309v5.03h-1.624V235.527z M555.583,256.451v-9.35h1.624v10.242v17.941h-1.624V256.451z
				 M559.479,258.592v-11.49h1.624v12.382v15.801h-1.624V258.592z M563.376,275.285v-14.552l0,0v-13.631H565v14.523v13.66H563.376z
				 M551.686,197.098h1.051h0.573v6.367h-1.624V197.098z M551.686,213.683v-4.564h1.624v13.338h-1.624V213.683z M551.686,233.386
				v-5.276h1.624v13.338h-1.624V233.386z M551.686,254.311v-7.209h1.624v28.183h-1.624V254.311z M551.686,341.459V289.31v-8.372
				h1.624v60.52H551.686z M557.206,341.459h-1.624v-50.008v-10.513h1.624v11.405V341.459z M561.103,341.459h-1.624v-47.867v-12.653
				h1.624v13.545V341.459z M565,341.459h-1.624v-45.726l0,0v-14.794H565v15.686V341.459z M568.897,341.459h-1.624v-43.586v-16.935
				h1.624v17.827V341.459z M581.844,303.734H577.5v-7.74h4.345V303.734z M588.818,303.734h-4.345v-3.366v-4.374h1.797h2.547V303.734
				z M595.791,303.734h-4.345v-7.74h4.345V303.734z M602.765,303.734h-4.345v-7.74h4.345V303.734z M609.738,303.734h-4.345v-7.74
				h2.696h1.649v4.014V303.734z M616.712,303.734h-4.345v-7.74h4.345V303.734z M640.271,275.285v-12.412v-15.771h1.624v16.663v11.52
				H640.271z M641.894,203.465h-1.624v-6.367h1.624V203.465z M640.271,241.448V228.11h1.624v13.338H640.271z M636.374,201.913
				v-4.815h1.624v5.549v0.817h-1.624L636.374,201.913L636.374,201.913z M637.997,222.456h-1.624v-2.352l0,0v-10.986h1.624v11.878
				V222.456z M634.101,200.884v2.581h-1.624v-3.315v-3.051h1.624V200.884z M632.477,209.118h1.624v9.737v3.601h-1.624v-4.493
				V209.118z M632.477,228.11h1.624v10.449v2.889h-1.624v-3.781V228.11z M636.374,241.448v-1.64l0,0V228.11h1.624v12.59v0.748
				H636.374z M640.271,222.456v-0.211v-13.127h1.624v13.338H640.271z M628.58,198.386v-1.288h1.624v2.023v4.344h-1.624V198.386z
				 M628.58,215.823v-6.705h1.624v7.597v5.741h-1.624V215.823z M628.58,235.527v-7.417h1.624v8.309v5.03h-1.624V235.527z
				 M628.58,256.451v-9.35h1.624v10.242v17.941h-1.624V256.451z M632.477,258.592v-11.49h1.624v12.382v15.801h-1.624V258.592z
				 M636.374,275.285v-14.552l0,0v-13.631h1.624v14.523v13.66H636.374z M624.683,197.098h1.051h0.573v6.367h-1.624V197.098z
				 M624.683,213.683v-4.564h1.624v13.338h-1.624V213.683z M624.683,233.386v-5.276h1.624v13.338h-1.624V233.386z M624.683,254.311
				v-7.209h1.624v28.183h-1.624V254.311z M624.683,341.459V289.31v-8.372h1.624v60.52H624.683z M630.204,341.459h-1.624v-50.008
				v-10.513h1.624v11.405V341.459z M634.101,341.459h-1.624v-47.867v-12.653h1.624v13.545V341.459z M637.997,341.459h-1.624v-45.726
				l0,0v-14.794h1.624v15.686V341.459z M641.894,341.459h-1.624v-43.586v-16.935h1.624v17.827V341.459z"/>
			
				<linearGradient id="SVGID_00000160186963468823517010000008275928245863050654_" gradientUnits="userSpaceOnUse" x1="468.3347" y1="346.2068" x2="468.3347" y2="190.7267">
				<stop  offset="0" style="stop-color:#F18A00"/>
				<stop  offset="0.0623" style="stop-color:#F3830E"/>
				<stop  offset="0.2267" style="stop-color:#F7742D"/>
				<stop  offset="0.3982" style="stop-color:#FB6946"/>
				<stop  offset="0.5779" style="stop-color:#FD6157"/>
				<stop  offset="0.7706" style="stop-color:#FF5C62"/>
				<stop  offset="1" style="stop-color:#FF5A65"/>
			</linearGradient>
			<path style="fill:url(#SVGID_00000160186963468823517010000008275928245863050654_);" d="M485.516,324.644l-4.714-4.369h-0.022
				v-2.068v-12.54h2.186c1.047-1.488,0-3.225,0-3.225l-4.014-3.721h-0.057v-1.425v-10.64h1.855c0.889-1.263,0-2.736,0-2.736
				l-3.406-3.157h-0.016v-1.494v-9.06h1.579c0.757-1.075,0-2.33,0-2.33l-2.874-2.664v-1.396v-7.756h1.352
				c0.648-0.92,0-1.994,0-1.994l-2.483-2.301h-0.012v-1.089v-6.604h1.151c0.552-0.784,0-1.698,0-1.698l-2.114-1.96h-0.03v-0.751
				v-5.604h0.977c0.468-0.665,0-1.441,0-1.441l-1.794-1.663h-0.009v-0.787v-4.772h0.832c0.398-0.566,0-1.227,0-1.227l-1.528-1.416
				h-0.026v-0.636v-4.044h0.705c0.338-0.48,0-1.04,0-1.04l-1.295-1.2h-0.006v-0.568v-3.444h0.6c0.288-0.409,0-0.886,0-0.886
				l-1.103-1.022h-0.016v-0.392v-2.922h0.509c0.244-0.347,0-0.751,0-0.751l-0.935-0.867h-0.005v-0.411v-2.488h0.434
				c0.208-0.295,0-0.64,0-0.64l-0.797-0.738l-1.27-3.092h-0.646l-0.247-6.887l-0.247,6.887h-0.534l-1.27,3.092l-0.797,0.738
				c0,0-0.208,0.345,0,0.64h0.434v0.623v2.276h-0.004l-0.935,0.867c0,0-0.244,0.405,0,0.751h0.509v0.732v2.582h-0.016l-1.102,1.022
				c0,0-0.288,0.477,0,0.886h0.6v0.863v3.149h-0.006l-1.295,1.2c0,0-0.338,0.56,0,1.04h0.705v1.013v3.667h-0.026l-1.527,1.416
				c0,0-0.398,0.661,0,1.227h0.832v1.196v4.363h-0.009l-1.794,1.663c0,0-0.468,0.776,0,1.441h0.977v1.404v4.95h-0.03l-2.114,1.96
				c0,0-0.552,0.914,0,1.698h1.151v1.655v6.039h-0.012l-2.483,2.301c0,0-0.648,1.074,0,1.994h1.352v1.943v7.209l-2.875,2.664
				c0,0-0.757,1.255,0,2.33h1.579v2.27v8.285h-0.016l-3.406,3.157c0,0-0.888,1.473,0,2.736h1.855v2.665v9.4h-0.058l-4.014,3.721
				c0,0-1.047,1.736,0,3.225h2.186v3.142v11.467h-0.022l-4.714,4.369c0,0-1.23,2.039,0,3.787h2.567v3.689v14.087h29.229v-3.05
				v-14.726h2.567C486.746,326.683,485.516,324.644,485.516,324.644z M466.752,309.096h0.011c0.057-1.328,0.826-2.384,1.775-2.384
				c0.949,0,1.717,1.056,1.775,2.384h0.011v5.162v3.111h-3.571v-4.46V309.096z M474.219,317.901h4.599v0.692h-4.599V317.901z
				 M466.184,317.901h4.599v0.692h-4.599V317.901z M478.359,317.369h-3.571v-1.426v-6.848h0.011
				c0.057-1.328,0.826-2.384,1.775-2.384c0.949,0,1.718,1.056,1.775,2.384h0.011v8.197V317.369z M466.992,289.566h0.009
				c0.048-1.127,0.701-2.023,1.506-2.023s1.457,0.895,1.506,2.023h0.009v4.38v2.64h-3.03v-3.784V289.566z M473.328,297.036h3.902
				v0.587h-3.902V297.036z M466.51,297.036h3.902v0.587h-3.902V297.036z M476.84,296.585h-3.03v-1.209v-5.81h0.009
				c0.048-1.127,0.701-2.023,1.506-2.023c0.805,0,1.457,0.895,1.506,2.023h0.009v6.954V296.585z M467.191,272.686h0.008
				c0.041-0.96,0.597-1.722,1.282-1.722c0.686,0,1.241,0.762,1.282,1.722h0.008v3.73v2.248h-2.58v-3.222V272.686z M472.586,279.048
				h3.323v0.5h-3.323V279.048z M466.781,279.048h3.323v0.5h-3.323V279.048z M475.577,278.664h-2.58v-1.03v-4.948h0.008
				c0.041-0.96,0.597-1.722,1.282-1.722c0.686,0,1.241,0.762,1.282,1.722h0.008v5.922V278.664z M467.356,258.183h0.007
				c0.035-0.822,0.511-1.474,1.098-1.474s1.062,0.653,1.098,1.474h0.007v3.193v1.924h-2.209v-2.758V258.183z M467.005,264.056
				v-0.428h2.844v0.428H467.005z M474.819,264.056h-2.845v-0.428h2.845V264.056z M461.851,264.056v-0.428h2.844v0.428H461.851z
				 M474.534,263.299h-2.209v-0.882v-4.235h0.007c0.035-0.822,0.51-1.474,1.098-1.474c0.587,0,1.062,0.653,1.098,1.474h0.007v5.069
				V263.299z M467.501,245.879h0.006c0.03-0.7,0.435-1.255,0.935-1.255c0.5,0,0.905,0.556,0.935,1.255h0.006v2.719v1.638h-1.881
				v-2.348V245.879z M471.434,250.516h2.422v0.365h-2.422V250.516z M467.202,250.516h2.422v0.365h-2.422V250.516z M473.614,250.236
				h-1.881v-0.751v-3.607h0.006c0.03-0.7,0.435-1.255,0.935-1.255c0.5,0,0.905,0.556,0.935,1.255h0.006v4.317V250.236z
				 M467.628,235.593h0.005c0.026-0.594,0.369-1.065,0.793-1.065c0.424,0,0.767,0.472,0.793,1.065h0.005v2.307v1.39h-1.596v-1.993
				V235.593z M470.964,239.528h2.055v0.309h-2.055V239.528z M467.374,239.528h2.055v0.309h-2.055V239.528z M472.814,239.29h-1.596
				v-0.637v-3.06h0.005c0.026-0.594,0.369-1.065,0.793-1.065c0.424,0,0.768,0.472,0.793,1.065h0.005v3.663V239.29z M467.732,226.703
				h0.004c0.022-0.506,0.314-0.907,0.675-0.907c0.361,0,0.654,0.402,0.675,0.907h0.004v1.964v1.184h-1.359v-1.697V226.703z
				 M470.574,230.054h1.75v0.263h-1.75V230.054z M467.516,230.054h1.75v0.263h-1.75V230.054z M472.149,229.851h-1.359v-0.542v-2.606
				h0.004c0.022-0.506,0.314-0.907,0.675-0.907c0.361,0,0.654,0.402,0.675,0.907h0.004v3.119V229.851z M467.824,219.18h0.003
				c0.018-0.428,0.266-0.769,0.572-0.769c0.306,0,0.554,0.34,0.572,0.769h0.004v1.665v1.003h-1.152v-1.438V219.18z M470.233,222.02
				h1.483v0.223h-1.483V222.02z M467.641,222.02h1.483v0.223h-1.483V222.02z M471.568,221.849h-1.152v-0.46v-2.209h0.003
				c0.018-0.428,0.266-0.769,0.572-0.769c0.306,0,0.554,0.34,0.572,0.769h0.004v2.644V221.849z M467.9,212.765h0.003
				c0.016-0.365,0.227-0.655,0.487-0.655c0.261,0,0.472,0.29,0.487,0.655h0.003v1.418v0.854H467.9v-1.225V212.765z M469.951,215.183
				h1.263v0.19h-1.263V215.183z M467.744,215.183h1.263v0.19h-1.263V215.183z M471.088,215.037h-0.981v-0.392v-1.881h0.003
				c0.016-0.365,0.227-0.655,0.487-0.655c0.261,0,0.472,0.29,0.487,0.655h0.003v2.251V215.037z M467.966,207.401h0.003
				c0.013-0.31,0.192-0.555,0.413-0.555c0.221,0,0.4,0.246,0.414,0.555h0.003v1.203v0.725h-0.832v-1.039V207.401z M469.706,209.453
				h1.072v0.161h-1.072V209.453z M467.833,209.453h1.072v0.161h-1.072V209.453z M470.671,209.329h-0.832v-0.332v-1.596h0.003
				c0.013-0.31,0.192-0.555,0.413-0.555c0.221,0,0.4,0.246,0.414,0.555h0.003v1.91V209.329z M468.021,202.765h0.002
				c0.012-0.264,0.164-0.473,0.352-0.473s0.341,0.21,0.352,0.473h0.002v1.025v0.617h-0.709v-0.885V202.765z M469.503,204.512h0.913
				v0.137h-0.913V204.512z M467.908,204.512h0.913v0.137h-0.913V204.512z M470.324,204.407h-0.708v-0.283v-1.359h0.002
				c0.011-0.264,0.164-0.473,0.352-0.473c0.188,0,0.341,0.21,0.352,0.473h0.002v1.627V204.407z M466.367,202.765h0.002
				c0.011-0.264,0.164-0.473,0.352-0.473c0.188,0,0.341,0.21,0.352,0.473h0.002v0.4v1.242h-0.709v-1.509V202.765z M467.167,204.512
				v0.137h-0.913v-0.137H467.167z M466.024,207.401h0.003c0.013-0.31,0.192-0.555,0.414-0.555c0.221,0,0.4,0.246,0.414,0.555h0.003
				v0.47v1.458h-0.832v-1.772V207.401z M466.964,209.453v0.161h-1.072v-0.161H466.964z M465.611,212.765h0.003
				c0.016-0.365,0.227-0.655,0.487-0.655c0.261,0,0.472,0.29,0.487,0.655h0.003v0.553v1.719h-0.981v-2.089V212.765z
				 M466.719,215.183v0.19h-1.263v-0.19H466.719z M465.137,219.18h0.003c0.018-0.428,0.266-0.769,0.572-0.769
				c0.306,0,0.554,0.34,0.572,0.769h0.003v0.65v2.018h-1.152v-2.453V219.18z M466.437,222.02v0.223h-1.483v-0.223H466.437z
				 M464.561,226.703h0.004c0.022-0.506,0.314-0.907,0.675-0.907c0.361,0,0.654,0.402,0.675,0.907h0.004v0.767v2.381h-1.359v-2.894
				V226.703z M466.095,230.054v0.263h-1.75v-0.263H466.095z M463.904,235.593h0.005c0.026-0.594,0.369-1.065,0.793-1.065
				s0.768,0.472,0.793,1.065h0.005v0.901v2.796h-1.596v-3.399V235.593z M465.705,239.528v0.309h-2.055v-0.309H465.705z
				 M463.112,245.879h0.006c0.03-0.7,0.435-1.255,0.935-1.255c0.5,0,0.905,0.556,0.935,1.255h0.006v1.062v3.295h-1.881v-4.006
				V245.879z M465.236,250.516v0.365h-2.422v-0.365H465.236z M462.202,258.183h0.007c0.035-0.822,0.511-1.474,1.098-1.474
				c0.587,0,1.062,0.653,1.098,1.474h0.007v1.247v3.87h-2.209v-4.704V258.183z M461.17,272.686h0.008
				c0.041-0.96,0.597-1.722,1.282-1.722c0.686,0,1.241,0.762,1.282,1.722h0.008v1.457v4.521h-2.58v-5.496V272.686z M464.083,279.048
				v0.5h-3.323v-0.5H464.083z M459.921,289.566h0.009c0.048-1.127,0.701-2.023,1.506-2.023s1.457,0.895,1.506,2.023h0.009v1.71
				v5.309h-3.03v-6.453V289.566z M463.342,297.036v0.587h-3.902v-0.587H463.342z M458.419,309.096h0.011
				c0.057-1.328,0.826-2.384,1.775-2.384s1.718,1.056,1.775,2.384h0.011v2.016v6.258h-3.571v-7.606V309.096z M462.45,317.901v0.692
				h-4.599v-0.692H462.45z M470.67,338.52v3.653h-4.194v-5.237v-4.479h0.013c0.067-1.56,0.97-2.799,2.084-2.799
				c1.114,0,2.017,1.24,2.084,2.799h0.013V338.52z M456.69,332.458h0.013c0.067-1.56,0.97-2.799,2.084-2.799
				c1.115,0,2.017,1.24,2.084,2.799h0.013v2.367v7.348h-4.194v-8.932V332.458z M461.424,343.611h-5.401v-0.813h5.401V343.611z
				 M471.21,343.611h-5.401v-0.813h5.401V343.611z M480.646,343.611h-5.401v-0.813h5.401V343.611z M480.106,342.173h-4.194v-1.674
				v-8.042h0.013c0.067-1.56,0.97-2.799,2.084-2.799c1.115,0,2.017,1.24,2.084,2.799h0.013v9.625V342.173z"/>
			
				<linearGradient id="SVGID_00000173147226932293978860000001682504105464253876_" gradientUnits="userSpaceOnUse" x1="155.2494" y1="346.2068" x2="155.2494" y2="180.1586">
				<stop  offset="0" style="stop-color:#0080B5"/>
				<stop  offset="0.3207" style="stop-color:#5B7299"/>
				<stop  offset="0.6527" style="stop-color:#B2657D"/>
				<stop  offset="0.8871" style="stop-color:#EA5D6C"/>
				<stop  offset="1" style="stop-color:#FF5A65"/>
			</linearGradient>
			<path style="fill:url(#SVGID_00000173147226932293978860000001682504105464253876_);" d="M177.442,320.074h2.536v-3.88h-2.642
				v-4.016h1.268v-1.74h-1.268h-3.699l-6.854-26.847h1.226v-1.11h-1.51l-1.599-6.262h1.205v-1.11h-1.482
				c-0.627-6.404-6.569-67.17-6.781-73.262h0.674v-3.807v-2.191h0.378v-1.427h-0.378v-2.01h0.378v-1.427h-1.373v-1.741h0.263v-0.993
				h-1.783l-0.774-8.096l-0.732,8.096h-1.783v0.993h0.399v1.741h-1.508v1.427h0.573v2.01h-0.573v1.427h0.573v2.191v3.807h0.479
				c-0.212,6.092-6.154,66.858-6.781,73.262h-1.482v1.11h1.205l-1.598,6.262h-1.51v1.11h1.227l-6.854,26.847h-3.699h-1.268v1.74
				h1.268v4.016h-2.642v3.88h2.536l-9.511,26.133h11.816c0-10.984,8.904-19.887,19.887-19.887c10.984,0,19.887,8.904,19.887,19.887
				h11.816L177.442,320.074z M151.282,273.275l3.04-70.224l0.633,0.027l-3.04,70.224L151.282,273.275z M155.597,203.078l0.633-0.027
				l3.04,70.224l-0.633,0.027L155.597,203.078z M161.743,273.311l-5.073-70.224l0.632-0.046l5.073,70.224L161.743,273.311z
				 M153.196,203.042l0.632,0.046l-5.073,70.224l-0.632-0.046L153.196,203.042z M155.112,293.578h0.274h3.971l3.834,15.018h-15.884
				l3.834-15.018H155.112z M151.659,291.633v-1.383h7.181v1.383H151.659z M173.215,312.178v4.016h-1.057v-4.016H173.215z
				 M170.89,312.178v4.016h-1.057v-4.016H170.89z M168.565,312.178v4.016h-1.057v-4.016H168.565z M166.24,312.178v4.016h-1.057
				v-4.016H166.24z M163.915,312.178v4.016h-1.057v-4.016H163.915z M161.59,312.178v4.016h-1.057v-4.016H161.59z M159.265,312.178
				v4.016h-1.057v-4.016H159.265z M156.94,312.178v4.016h-1.057v-4.016H156.94z M154.615,312.178v4.016h-1.057v-4.016H154.615z
				 M152.29,312.178v4.016h-1.057v-4.016H152.29z M149.966,312.178v4.016h-1.057v-4.016H149.966z M147.641,312.178v4.016h-1.057
				v-4.016H147.641z M145.316,312.178v4.016h-1.057v-4.016H145.316z M142.991,312.178v4.016h-1.057v-4.016H142.991z
				 M140.666,312.178v4.016h-1.057v-4.016H140.666z M138.341,312.178v4.016h-1.057v-4.016H138.341z M175.54,316.194h-1.057v-4.016
				h1.057V316.194z M134.959,312.178h1.057v4.016h-1.057V312.178z M155.249,324.314c-11.944,0-21.661,9.717-21.661,21.661h-0.599
				c0-12.274,9.986-22.26,22.26-22.26c12.274,0,22.26,9.986,22.26,22.26h-0.599C176.91,334.031,167.193,324.314,155.249,324.314z"/>
			
				<linearGradient id="SVGID_00000132086344886454950000000011880491651850390178_" gradientUnits="userSpaceOnUse" x1="193.6586" y1="346.2068" x2="193.6586" y2="212.156">
				<stop  offset="0" style="stop-color:#552C59"/>
				<stop  offset="0.0075" style="stop-color:#572C59"/>
				<stop  offset="0.3623" style="stop-color:#9E405E"/>
				<stop  offset="0.6574" style="stop-color:#D34E62"/>
				<stop  offset="0.8783" style="stop-color:#F35764"/>
				<stop  offset="1" style="stop-color:#FF5A65"/>
			</linearGradient>
			<path style="fill:url(#SVGID_00000132086344886454950000000011880491651850390178_);" d="M201.659,252.697
				c0-4.048-3.01-7.385-6.911-7.917l-0.072-2.399h0.715c0.206,0,0.375-0.169,0.375-0.376c0-0.206-0.169-0.375-0.375-0.375h-0.363
				l-0.228-6.912l0,0l-0.033-0.988h0.624c0.206,0,0.375-0.169,0.375-0.375c0-0.207-0.169-0.375-0.375-0.375h-0.999l-0.629-20.822
				l-0.627,20.822h-0.998c-0.206,0-0.375,0.169-0.375,0.375c0,0.207,0.169,0.375,0.375,0.375h0.624l-0.223,7.9h-0.401
				c-0.206,0-0.375,0.169-0.375,0.375c0,0.207,0.169,0.376,0.375,0.376h0.715l-0.071,2.367c-4.005,0.437-7.123,3.828-7.123,7.95
				c0,3.605,2.385,6.651,5.662,7.651l-1.877,85.859h1.897h1.264h2.318h1.053h1.898l-1.877-85.859
				C199.274,259.347,201.659,256.301,201.659,252.697z"/>
			<g>
				<path style="fill:#FF5A65;" d="M312.931,179.003c0.132-0.106,0.268-0.218,0.404-0.334c1.129-0.968,1.902-1.919,1.726-2.124
					c-0.176-0.206-1.234,0.412-2.364,1.38c-0.005,0.004-0.01,0.009-0.016,0.014l-0.452-1.929c0.203-0.154,0.414-0.325,0.628-0.508
					c1.129-0.968,1.902-1.919,1.726-2.125c-0.176-0.205-1.234,0.413-2.363,1.381c-0.081,0.068-0.159,0.137-0.235,0.206l-0.335-1.43
					c0.173-0.139,0.347-0.283,0.523-0.434c1.745-1.495,2.938-2.964,2.666-3.282c-0.268-0.313-1.86,0.611-3.576,2.068l-0.792-3.374
					c5.095-4.714,8.407-8.563,7.817-9.252c-0.589-0.688-4.878,1.979-10.294,6.27l-3.038-1.228c1.642-1.439,2.744-2.814,2.481-3.121
					c-0.272-0.317-1.907,0.638-3.651,2.132c-0.138,0.118-0.271,0.236-0.402,0.354l-1.354-0.548c0.042-0.034,0.084-0.069,0.126-0.105
					c1.129-0.968,1.902-1.919,1.726-2.124c-0.176-0.206-1.234,0.412-2.364,1.38c-0.174,0.149-0.338,0.298-0.494,0.443l-1.831-0.74
					c1.077-0.938,1.803-1.842,1.631-2.041c-0.176-0.206-1.234,0.412-2.364,1.38c-0.098,0.084-0.192,0.167-0.284,0.25l-9.64-3.896
					c-0.114,0.197,0.294,0.707,0.906,1.132l14.504,10.069c-0.027,0.023-0.053,0.045-0.08,0.068
					c-3.134,2.684-5.898,5.279-7.966,7.428l-6.342,0.687c-0.07,0.168,0.017,0.385,0.193,0.482l3.434,1.899
					c-0.917,1.179-1.33,1.99-1.089,2.271c0.241,0.281,1.106-0.003,2.412-0.728l1.351,3.685c0.069,0.188,0.271,0.308,0.447,0.265
					l1.65-6.162c2.44-1.715,5.427-4.049,8.561-6.733c0.02-0.017,0.038-0.033,0.057-0.05l7.678,15.772
					c0.326,0.67,0.767,1.15,0.98,1.068L312.931,179.003z"/>
			</g>
		</g>
		<g>
			<g>
				
					<linearGradient id="SVGID_00000057842090778478979390000000432923719545988285_" gradientUnits="userSpaceOnUse" x1="660.7579" y1="338.9102" x2="717.4143" y2="240.7784">
					<stop  offset="0" style="stop-color:#FF5D00"/>
					<stop  offset="0.4263" style="stop-color:#FF8800"/>
					<stop  offset="0.7932" style="stop-color:#FFA600"/>
					<stop  offset="1" style="stop-color:#FFB100"/>
				</linearGradient>
				<path style="fill:url(#SVGID_00000057842090778478979390000000432923719545988285_);" d="M695.964,254.227v3.072h-1.79v-3.859
					v-11.355c0-3.94-2.806-7.224-6.528-7.967c0.01-0.008,0.021-0.015,0.031-0.022c-0.143-0.045-0.295-0.073-0.45-0.093l-0.167-1.744
					h0.67c0.376,0,0.68-0.304,0.68-0.68c0-0.375-0.305-0.679-0.68-0.679h-0.8l-0.712-7.45h0.191l-0.209-0.69l-0.254,0.69h0.236
					l-0.527,5.516l0,0l-0.185,1.934h-0.8c-0.375,0-0.68,0.304-0.68,0.679c0,0.376,0.305,0.68,0.68,0.68h0.67l-0.167,1.749
					c-0.622,0.066-1.22,0.209-1.792,0.408c-3.177,1.104-5.461,4.117-5.461,7.67v1.979v13.235h-1.374v-3.072h-2.694v3.072v2.537
					v2.538h2.694h0.261l-3.411,83.833h24.768l-0.066-2.036l0.066,0.252l-2.728-82.048h0.528h2.694v-2.538v-2.537v-3.072H695.964z
					 M687.646,253.616h-3.003v-0.318h3.003V253.616z M692.893,253.616h-3.003v-0.318h3.003V253.616z M687.345,246.567v6.487h-2.332
					v-7.106v-1.752h0.007c0.037-0.611,0.539-1.095,1.159-1.095c0.62,0,1.121,0.484,1.158,1.095h0.007V246.567z M682.204,253.616
					h-3.003v-0.318h3.003V253.616z M692.592,253.054h-2.332v-0.655v-8.204h0.007c0.038-0.611,0.539-1.095,1.159-1.095
					c0.62,0,1.122,0.484,1.159,1.095h0.007v8.823V253.054z M679.572,244.195h0.007c0.037-0.611,0.539-1.095,1.159-1.095
					c0.62,0,1.122,0.484,1.159,1.095h0.007v0.926v7.932h-2.332v-8.552V244.195z"/>
				
					<linearGradient id="SVGID_00000100358066112197314590000012925699239243156657_" gradientUnits="userSpaceOnUse" x1="318.8381" y1="346.2068" x2="318.8381" y2="274.009">
					<stop  offset="0" style="stop-color:#FF4B00"/>
					<stop  offset="0.0955" style="stop-color:#FF6300"/>
					<stop  offset="0.2346" style="stop-color:#FF7F00"/>
					<stop  offset="0.3843" style="stop-color:#FF9500"/>
					<stop  offset="0.5477" style="stop-color:#FFA500"/>
					<stop  offset="0.7351" style="stop-color:#FFAE00"/>
					<stop  offset="1" style="stop-color:#FFB100"/>
				</linearGradient>
				<path style="fill:url(#SVGID_00000100358066112197314590000012925699239243156657_);" d="M321.46,279.444
					c0.141,0.028,0.28,0.068,0.42,0.101c0.211,0.049,0.423,0.095,0.631,0.155c0.149,0.043,0.296,0.097,0.444,0.145
					c0.196,0.064,0.393,0.124,0.586,0.196c0.15,0.056,0.298,0.124,0.447,0.186c0.188,0.078,0.376,0.152,0.561,0.238
					c0.15,0.07,0.298,0.15,0.447,0.225c0.18,0.091,0.361,0.179,0.54,0.278c0.15,0.083,0.297,0.176,0.445,0.264
					c0.174,0.104,0.349,0.205,0.521,0.316c0.148,0.095,0.293,0.2,0.439,0.301c0.169,0.116,0.338,0.23,0.505,0.353
					c0.145,0.107,0.288,0.222,0.432,0.335c0.164,0.129,0.33,0.256,0.492,0.391c0.142,0.118,0.281,0.243,0.422,0.366
					c0.161,0.141,0.321,0.28,0.48,0.426c0.139,0.129,0.277,0.265,0.415,0.399c0.156,0.151,0.312,0.302,0.466,0.459
					c0.136,0.139,0.271,0.284,0.406,0.428c0.152,0.162,0.305,0.324,0.455,0.492c0.133,0.149,0.265,0.303,0.397,0.456
					c0.148,0.172,0.297,0.344,0.443,0.522c0.131,0.159,0.26,0.322,0.389,0.485c0.144,0.182,0.288,0.363,0.431,0.55
					c0.128,0.167,0.253,0.338,0.379,0.509c0.141,0.191,0.281,0.382,0.42,0.578c0.125,0.176,0.249,0.357,0.372,0.537
					c0.137,0.199,0.273,0.398,0.407,0.602c0.122,0.184,0.242,0.371,0.362,0.558c0.134,0.208,0.267,0.417,0.398,0.629
					c0.118,0.191,0.236,0.384,0.353,0.578c0.13,0.216,0.259,0.432,0.388,0.652c0.115,0.197,0.23,0.397,0.344,0.598
					c0.126,0.223,0.252,0.447,0.377,0.673c0.113,0.204,0.224,0.411,0.335,0.618c0.123,0.23,0.246,0.462,0.368,0.696
					c0.108,0.208,0.215,0.417,0.322,0.627c0.121,0.239,0.242,0.479,0.362,0.721c0.105,0.213,0.21,0.427,0.313,0.642
					c0.117,0.243,0.233,0.487,0.349,0.733c0.103,0.219,0.205,0.439,0.307,0.661c0.114,0.248,0.226,0.497,0.338,0.748
					c0.1,0.224,0.2,0.449,0.298,0.675c0.11,0.253,0.22,0.507,0.328,0.762c0.096,0.226,0.192,0.452,0.287,0.679
					c0.109,0.262,0.217,0.525,0.324,0.788c0.092,0.227,0.184,0.454,0.275,0.682c0.105,0.264,0.209,0.529,0.313,0.795
					c0.09,0.231,0.18,0.462,0.268,0.694c0.103,0.269,0.204,0.539,0.305,0.81c0.086,0.232,0.173,0.464,0.258,0.697
					c0.099,0.271,0.196,0.542,0.294,0.814c0.084,0.235,0.168,0.47,0.251,0.706c0.097,0.275,0.192,0.551,0.287,0.827
					c0.08,0.233,0.16,0.466,0.239,0.699c0.094,0.278,0.186,0.557,0.278,0.836c0.078,0.236,0.156,0.472,0.233,0.709
					c0.09,0.277,0.178,0.555,0.267,0.832c0.075,0.236,0.15,0.471,0.224,0.707c0.089,0.284,0.176,0.567,0.263,0.851
					c0.071,0.231,0.142,0.462,0.212,0.692c0.086,0.286,0.171,0.572,0.255,0.858c0.068,0.23,0.137,0.46,0.203,0.69
					c0.083,0.286,0.165,0.572,0.246,0.857c0.065,0.227,0.13,0.455,0.194,0.682c0.081,0.29,0.161,0.578,0.24,0.867
					c0.061,0.222,0.123,0.444,0.183,0.665c0.08,0.295,0.158,0.589,0.237,0.884c0.057,0.213,0.115,0.427,0.17,0.64
					c0.079,0.302,0.156,0.602,0.234,0.902c0.052,0.203,0.105,0.406,0.157,0.608c0.077,0.303,0.152,0.603,0.227,0.904
					c0.05,0.199,0.1,0.398,0.149,0.596c0.072,0.292,0.142,0.582,0.212,0.871c0.049,0.204,0.1,0.41,0.148,0.614
					c0.074,0.308,0.145,0.612,0.216,0.917c0.041,0.177,0.084,0.355,0.124,0.53c0.081,0.35,0.159,0.696,0.238,1.042
					c0.029,0.13,0.06,0.262,0.089,0.391c0.08,0.355,0.156,0.704,0.233,1.053c0.026,0.12,0.054,0.241,0.08,0.36
					c0.304,1.394,0.585,2.743,0.843,4.034c0.024,0.121,0.047,0.238,0.071,0.358c0.061,0.307,0.122,0.615,0.18,0.915
					c0.026,0.135,0.051,0.266,0.077,0.4c0.053,0.276,0.107,0.553,0.158,0.822c0.03,0.156,0.057,0.306,0.086,0.46
					c0.045,0.241,0.091,0.484,0.134,0.72c0.028,0.151,0.054,0.297,0.081,0.446c0.043,0.236,0.086,0.473,0.128,0.702
					c0.025,0.139,0.048,0.272,0.073,0.408c0.039,0.221,0.079,0.444,0.116,0.659c0.028,0.159,0.054,0.311,0.081,0.465
					c0.033,0.191,0.066,0.384,0.098,0.569c0.025,0.149,0.049,0.292,0.074,0.437c0.03,0.177,0.06,0.356,0.089,0.528
					c0.027,0.161,0.052,0.316,0.078,0.472c0.024,0.145,0.048,0.292,0.071,0.432c0.024,0.148,0.047,0.289,0.069,0.431
					c0.024,0.148,0.048,0.298,0.07,0.441c0.02,0.126,0.039,0.247,0.058,0.369c0.021,0.137,0.043,0.275,0.063,0.406
					c0.019,0.125,0.037,0.245,0.056,0.364c0.018,0.12,0.037,0.24,0.054,0.354c0.019,0.126,0.037,0.245,0.054,0.364
					c0.013,0.088,0.026,0.178,0.039,0.262c0.019,0.127,0.036,0.247,0.053,0.364c0.01,0.073,0.021,0.148,0.031,0.217
					c0.014,0.096,0.026,0.186,0.039,0.274c0.012,0.085,0.024,0.171,0.035,0.249c0.011,0.076,0.021,0.149,0.03,0.218
					c0.008,0.059,0.016,0.119,0.024,0.173c0.011,0.079,0.021,0.151,0.03,0.219c0.006,0.042,0.012,0.086,0.017,0.124
					c0.007,0.055,0.014,0.104,0.02,0.149c0.005,0.037,0.01,0.075,0.014,0.106c0.005,0.036,0.009,0.069,0.013,0.097
					c0.011,0.084,0.018,0.138,0.018,0.138h7.687c0,0-14.056-71.511-39.789-72.198h-0.975c-25.733,0.687-39.789,72.198-39.789,72.198
					h7.687c0,0,0.007-0.054,0.018-0.138c0.003-0.028,0.008-0.061,0.012-0.097c0.004-0.031,0.009-0.068,0.014-0.106
					c0.006-0.045,0.013-0.095,0.02-0.149c0.005-0.038,0.011-0.082,0.017-0.124c0.009-0.068,0.019-0.14,0.03-0.219
					c0.007-0.054,0.016-0.114,0.024-0.173c0.01-0.07,0.02-0.142,0.03-0.218c0.011-0.078,0.023-0.164,0.035-0.249
					c0.013-0.089,0.025-0.178,0.039-0.274c0.01-0.069,0.021-0.144,0.031-0.217c0.017-0.117,0.035-0.237,0.053-0.364
					c0.012-0.084,0.026-0.173,0.039-0.262c0.018-0.118,0.035-0.238,0.054-0.364c0.017-0.114,0.035-0.235,0.054-0.354
					c0.018-0.12,0.036-0.239,0.056-0.364c0.02-0.131,0.042-0.269,0.063-0.406c0.019-0.122,0.038-0.242,0.058-0.369
					c0.022-0.142,0.047-0.292,0.07-0.441c0.023-0.143,0.045-0.284,0.069-0.431c0.023-0.14,0.047-0.287,0.071-0.432
					c0.026-0.156,0.051-0.311,0.078-0.472c0.029-0.172,0.059-0.35,0.089-0.528c0.025-0.145,0.048-0.288,0.074-0.437
					c0.032-0.185,0.065-0.378,0.098-0.569c0.027-0.155,0.053-0.307,0.081-0.465c0.038-0.215,0.077-0.437,0.116-0.659
					c0.024-0.136,0.048-0.27,0.073-0.408c0.041-0.229,0.085-0.467,0.128-0.702c0.027-0.149,0.053-0.294,0.081-0.446
					c0.043-0.236,0.089-0.478,0.134-0.72c0.029-0.154,0.056-0.304,0.086-0.46c0.051-0.269,0.104-0.546,0.158-0.822
					c0.026-0.134,0.051-0.265,0.077-0.4c0.058-0.3,0.119-0.607,0.18-0.915c0.024-0.12,0.047-0.237,0.071-0.358
					c0.258-1.291,0.539-2.64,0.843-4.034c0.026-0.119,0.053-0.241,0.08-0.36c0.077-0.349,0.154-0.699,0.233-1.053
					c0.029-0.129,0.06-0.261,0.089-0.391c0.078-0.346,0.157-0.692,0.238-1.042c0.041-0.175,0.083-0.354,0.124-0.53
					c0.071-0.305,0.142-0.609,0.216-0.917c0.048-0.203,0.099-0.409,0.148-0.614c0.07-0.29,0.14-0.579,0.212-0.871
					c0.049-0.198,0.099-0.397,0.149-0.596c0.075-0.301,0.15-0.601,0.227-0.904c0.051-0.202,0.104-0.405,0.157-0.608
					c0.077-0.3,0.154-0.6,0.234-0.902c0.056-0.213,0.113-0.427,0.17-0.64c0.078-0.294,0.156-0.588,0.236-0.884
					c0.06-0.221,0.122-0.444,0.183-0.665c0.08-0.289,0.159-0.578,0.24-0.867c0.064-0.227,0.129-0.455,0.194-0.682
					c0.082-0.286,0.163-0.571,0.246-0.857c0.067-0.23,0.135-0.46,0.203-0.69c0.085-0.286,0.169-0.572,0.255-0.858
					c0.07-0.231,0.141-0.461,0.212-0.692c0.087-0.284,0.174-0.568,0.263-0.851c0.074-0.236,0.149-0.471,0.224-0.707
					c0.088-0.277,0.176-0.555,0.266-0.832c0.077-0.237,0.155-0.473,0.233-0.709c0.092-0.279,0.184-0.558,0.278-0.836
					c0.079-0.234,0.159-0.466,0.239-0.699c0.095-0.276,0.19-0.552,0.287-0.827c0.083-0.236,0.167-0.471,0.251-0.706
					c0.097-0.272,0.195-0.543,0.294-0.814c0.085-0.233,0.172-0.465,0.258-0.697c0.101-0.271,0.202-0.541,0.305-0.81
					c0.089-0.232,0.178-0.463,0.268-0.694c0.104-0.266,0.208-0.531,0.313-0.795c0.091-0.228,0.183-0.455,0.275-0.682
					c0.107-0.264,0.215-0.527,0.324-0.788c0.095-0.227,0.19-0.453,0.286-0.679c0.109-0.255,0.218-0.509,0.328-0.762
					c0.099-0.226,0.198-0.451,0.298-0.675c0.112-0.251,0.225-0.5,0.338-0.748c0.102-0.221,0.204-0.442,0.306-0.661
					c0.115-0.246,0.232-0.49,0.349-0.733c0.104-0.215,0.208-0.43,0.313-0.642c0.12-0.242,0.24-0.482,0.361-0.721
					c0.107-0.21,0.214-0.419,0.322-0.627c0.122-0.234,0.245-0.465,0.368-0.696c0.111-0.207,0.223-0.413,0.335-0.618
					c0.125-0.226,0.251-0.45,0.377-0.673c0.114-0.201,0.228-0.401,0.343-0.598c0.128-0.22,0.258-0.436,0.388-0.652
					c0.117-0.194,0.234-0.388,0.353-0.578c0.132-0.212,0.265-0.421,0.398-0.629c0.12-0.187,0.241-0.374,0.362-0.558
					c0.135-0.203,0.271-0.402,0.407-0.602c0.124-0.18,0.247-0.36,0.372-0.537c0.139-0.196,0.279-0.387,0.42-0.578
					c0.126-0.171,0.252-0.342,0.379-0.509c0.142-0.187,0.287-0.368,0.431-0.55c0.129-0.163,0.259-0.326,0.389-0.485
					c0.146-0.178,0.295-0.35,0.443-0.522c0.132-0.153,0.263-0.307,0.397-0.456c0.151-0.168,0.303-0.329,0.455-0.492
					c0.135-0.144,0.269-0.289,0.406-0.428c0.154-0.157,0.31-0.307,0.466-0.459c0.138-0.134,0.275-0.269,0.415-0.399
					c0.158-0.147,0.319-0.286,0.48-0.426c0.14-0.123,0.28-0.248,0.422-0.366c0.163-0.135,0.327-0.262,0.492-0.391
					c0.144-0.112,0.286-0.227,0.431-0.335c0.167-0.123,0.336-0.237,0.505-0.353c0.146-0.101,0.291-0.205,0.439-0.301
					c0.172-0.111,0.347-0.212,0.521-0.316c0.148-0.088,0.295-0.181,0.445-0.264c0.178-0.099,0.359-0.187,0.54-0.278
					c0.149-0.075,0.296-0.155,0.447-0.225c0.185-0.086,0.374-0.161,0.561-0.238c0.149-0.062,0.296-0.129,0.447-0.186
					c0.193-0.073,0.39-0.133,0.586-0.196c0.148-0.048,0.294-0.102,0.444-0.145c0.208-0.06,0.42-0.105,0.631-0.155
					c0.14-0.033,0.279-0.073,0.42-0.101c0.237-0.047,0.477-0.079,0.717-0.113c0.119-0.017,0.237-0.042,0.357-0.055
					c0.362-0.041,0.727-0.067,1.096-0.077h0.905c0.369,0.01,0.734,0.036,1.096,0.077c0.12,0.013,0.237,0.038,0.357,0.055
					C320.983,279.365,321.223,279.397,321.46,279.444z"/>
				
					<linearGradient id="SVGID_00000069362477433914533480000001131845306209051539_" gradientUnits="userSpaceOnUse" x1="513.7311" y1="362.4145" x2="565.3928" y2="272.9337">
					<stop  offset="0" style="stop-color:#95B100"/>
					<stop  offset="0.3369" style="stop-color:#BDB100"/>
					<stop  offset="0.7792" style="stop-color:#EDB100"/>
					<stop  offset="1" style="stop-color:#FFB100"/>
				</linearGradient>
				<path style="fill:url(#SVGID_00000069362477433914533480000001131845306209051539_);" d="M590.048,331.161
					c-0.263-2.646-2.234-2.788-2.234-2.788v-15.326h1.314v-3.762h-0.92V306.5h0.92v-3.762h-1.052v-2.229h1.052v-3.344l-0.788-0.835
					l-1.972-11.286l-2.103,11.146l-0.919,0.975v3.344h1.051v2.229h-1.183v3.762h1.183v2.786h-1.051v3.762h1.051v15.326
					c-0.742,0-1.251,0.274-1.6,0.651v-4.554h-1.699c-0.748-2.568-3.082-3.427-4.221-3.696c-0.004-0.462-0.264-0.858-0.637-1.038
					v-1.437c0.193-0.148,0.32-0.387,0.32-0.658c0-0.271-0.127-0.51-0.32-0.658v-1.165l-0.444-1.277c-0.004-0.012-0.009,0-0.009,0
					l-0.444,1.277v1.165c-0.193,0.148-0.319,0.387-0.319,0.658c0,0.272,0.127,0.511,0.319,0.658v1.437
					c-0.373,0.18-0.633,0.576-0.637,1.038c-1.138,0.27-3.473,1.128-4.221,3.696h-2.199v5.764c-0.893,0.007-1.763,0.927-1.763,0.927
					h-2.302v-31.767h-5.09c-3.923-8.137-12.053-11.063-16.252-12.058c-0.016-1.914-1.094-3.556-2.641-4.301v-5.956
					c0.799-0.613,1.324-1.603,1.324-2.729c0-1.126-0.525-2.116-1.324-2.729v-4.83l-1.84-5.294c-0.006-0.018-0.013-0.021-0.019-0.02
					v0.006c-0.01,0.002-0.019,0.014-0.019,0.014l-1.84,5.294v4.83c-0.799,0.613-1.324,1.603-1.324,2.729
					c0,1.125,0.525,2.116,1.324,2.729v5.956c-1.546,0.745-2.625,2.387-2.641,4.301c-4.199,0.995-12.329,3.921-16.252,12.058h-5.09
					v31.767h-2.302c0,0-0.95-1.005-1.882-0.922v-5.769h-1.885c-0.748-2.568-3.082-3.427-4.221-3.696
					c-0.004-0.462-0.264-0.858-0.637-1.038v-1.437c0.193-0.148,0.319-0.387,0.319-0.658c0-0.271-0.127-0.51-0.319-0.658v-1.165
					l-0.444-1.277c-0.004-0.012-0.009,0-0.009,0l-0.444,1.277v1.165c-0.193,0.148-0.32,0.387-0.32,0.658
					c0,0.272,0.127,0.511,0.32,0.658v1.437c-0.373,0.18-0.633,0.576-0.637,1.038c-1.138,0.27-3.473,1.128-4.221,3.696h-2.014v4.443
					c-0.344-0.316-0.816-0.54-1.481-0.54v-15.326h1.052v-3.762h-1.052V306.5h1.183v-3.762h-1.183v-2.229h1.052v-3.344l-0.92-0.975
					l-2.103-11.146l-1.972,11.286l-0.788,0.835v3.344h1.051v2.229h-1.051v3.762h0.92v2.786h-0.92v3.762h1.314v15.326
					c0,0-1.971,0.143-2.234,2.788h-1.051v15.045h26.879h9.789h0.24h15.813h15.812h0.241h9.789H591.1v-15.045H590.048z"/>
				<g>
					
						<linearGradient id="SVGID_00000025413402524142614010000015197151709799191999_" gradientUnits="userSpaceOnUse" x1="71.3524" y1="318.9504" x2="71.3524" y2="308.9374">
						<stop  offset="0" style="stop-color:#E96478"/>
						<stop  offset="0.1924" style="stop-color:#EE745F"/>
						<stop  offset="0.7423" style="stop-color:#FAA01B"/>
						<stop  offset="1" style="stop-color:#FFB100"/>
					</linearGradient>
					<path style="fill:url(#SVGID_00000025413402524142614010000015197151709799191999_);" d="M71.153,311.6
						c-1.72,2.732,0.404,5.059,0.404,5.059s0.094,0.944,0.212,2.292l0.455-10.013C72.01,309.835,71.676,310.768,71.153,311.6z"/>
					
						<linearGradient id="SVGID_00000013914056311064702110000012097753016128908734_" gradientUnits="userSpaceOnUse" x1="104.8335" y1="289.5756" x2="104.8335" y2="287.2624">
						<stop  offset="0" style="stop-color:#E96478"/>
						<stop  offset="0.1924" style="stop-color:#EE745F"/>
						<stop  offset="0.7423" style="stop-color:#FAA01B"/>
						<stop  offset="1" style="stop-color:#FFB100"/>
					</linearGradient>
					<polygon style="fill:url(#SVGID_00000013914056311064702110000012097753016128908734_);" points="102.421,288.477 
						103.238,287.819 107.246,289.576 103.028,287.262 					"/>
					
						<linearGradient id="SVGID_00000040537581490453467030000006710722283128093110_" gradientUnits="userSpaceOnUse" x1="87.8846" y1="346.2068" x2="87.8846" y2="223.5615">
						<stop  offset="0" style="stop-color:#E96478"/>
						<stop  offset="0.1924" style="stop-color:#EE745F"/>
						<stop  offset="0.7423" style="stop-color:#FAA01B"/>
						<stop  offset="1" style="stop-color:#FFB100"/>
					</linearGradient>
					<path style="fill:url(#SVGID_00000040537581490453467030000006710722283128093110_);" d="M109.105,294.7l1.672-3.187
						l-0.433-0.237l-0.63,0.49l0.506,0.607l-1.214,2.125c-2.227-0.608-0.81,0.91-0.81,0.91c2.125,2.531-0.607,0.709-0.607,0.709
						c-3.744-0.405-1.923,2.895-1.923,2.895l-4.554,8.943l-1.72-0.708c0.303-2.53-1.518-12.042-1.518-12.446l2.66-3.137
						c0,0-1.605,0.303-3.883-2.429c0,0-1.518-2.428-1.67-5.616c0,0-1.228-4.876-3.953-4.259c0,0,0.323-1.357-0.594-1.813
						l-1.047-3.128l0.42,1.964l-0.953,0.709c0,0-0.291-1.012-0.626-2.182c-0.335-1.17-0.677-4.193-0.484-4.63
						c0.193-0.436,0-2.273,0-2.273c-0.062-0.772,0.029-2.773,0.029-2.773c-1.404-1.537-3.144-1.917-3.144-1.917
						c-0.09,0.171-0.61,0.348-0.61,0.348c-2.117,0.74-3.449,2.599-3.449,2.599c-0.911,0.81-0.911,2.53-0.911,2.53
						c-0.303-0.809-1.417-0.708-1.417-0.708c1.821-1.214,1.214-2.541,1.214-2.541c4.588-1.73,5.13-2.707,5.17-3.017
						c-0.007-0.065-0.009-0.109-0.009-0.109s0.018,0.036,0.009,0.109c0.022,0.201,0.096,0.613,0.339,0.656
						c0.323,0.057,2.41,1.157,2.789,1.67c0.38,0.512,1.101,0.133,1.101,0.133c-0.55,0.664-1.081,0.247-1.081,0.247
						c0.019,0.379,1.084,1.031,1.084,1.031l0.662,1.254H88.75l1.056,3.445l-0.817,1.586l0.065,0.303l1.382-1.376l-1.524-3.643h0.86
						c0,0,0.101-1.366-0.86-2.277c0,0,0.556,0.202,0.86-0.911h6.577l-6.274-1.113v-1.417l6.274-2.327l-6.78,1.113l-0.81-1.113
						l4.25-4.25l-5.667,3.643l-1.923-0.506v-5.667l-1.416,5.667l-2.429,0.607l-4.452-3.947l3.137,4.554l-1.619,1.619h-4.25
						l3.947,0.809l-0.405,1.214l-1.923,0.506l1.822,0.405l0.506,2.429l-0.405,2.024l-1.113,0.506c0,0-0.81-5.464-2.429-6.679
						c0,0-0.202-7.994-1.012-9.714c0,0-1.012-4.149-0.607-7.893c0,0,1.214-5.161-1.417-6.274v-1.417c0,0,0.911,0,0.506-1.316
						c0,0,3.845-0.101,2.834-2.428l-0.304-2.226c0,0-1.72-0.81-3.036-0.709v-1.113c0,0,2.365-3.137-1.398-6.072
						c0,0,0.487,1.821-0.828,2.024c0,0-2.833,1.113-1.214,3.947l0.013,0.101h3.132l0.335,1.417l-3.467-1.415l0.189,1.516
						c0,0-2.327-0.304-2.935,0.708v1.72c0,0-0.81,1.518,0.911,2.226h1.619c0,0-1.214,1.316,0.202,1.518l-0.101,1.012
						c0,0-1.315,0.708-0.304,2.935c0,0-0.607,1.72,1.012,4.553l0.202,2.53c0,0-1.417,9.613,0.708,12.953l-0.101,3.339
						c0,0-4.452,4.452-2.631,10.423c0,0,0.607,1.214,1.518,1.518l-0.506,2.773l0.518,0.621c-0.184-0.361-0.308-0.621-0.308-0.621
						l4.452-2.976c0,0-1.919,5.116-2.45,5.804l-1.2,5.024c0,0-1.964,1.406,3.024,5.478l-0.689-1.329c0,0,0.709-4.006,1.113-4.634
						l14.545-7.367c0,0-11.926,10.432-14.159,14.583c-0.092,0.745-0.646,2.198-2.601,5.007c0,0-0.113,6.008,2.445,6.072l0.074-1.62
						l2.53-4.453c3.947-4.554,11.887-18.721,11.887-18.721c4.492-3.045,2.457,0.709,2.457,0.709
						c-3.144,1.61-17.414,37.623-17.579,38.038c0.248,2.847,0.598,7.478,0.393,8.915c0,0-1.609,4.756-0.602,4.858
						c0,0-0.68,1.642-1.181,3.382c0.57-1.478,1.387-3.686,1.387-3.686c9.006-2.125,18.518-19.227,18.518-19.227l-0.476,20.441
						c-3.005,2.938-17.873,3.657-19.75,3.737c-0.201,0.938-0.284,1.792-0.103,2.301c0.588,1.654-0.563,6.511-0.563,6.511h32.408
						l-1.213-6.511l-0.054-4.316l0.054-5.312l1.68-0.911l-0.867-7.43l-0.867-9.723c0,0,1.127-0.911,1.734-3.947l2.732-5.009
						c0,0,3.07-1.063,5.634-5.768C110.635,297.281,111.388,296.218,109.105,294.7z M89.976,262.815l-0.531,0.5l-0.133-0.149
						l0.493-0.702L89.976,262.815z M89.578,261.61c0.241,0.205,0.228,0.506,0.228,0.506c-0.19-0.063-0.797,0.822-0.797,0.822
						l-0.185-0.209L89.578,261.61z M88.97,260.87l0.474,0.436c0,0-0.949,0.854-0.987,1.044l-0.256-0.234L88.97,260.87z
						 M88.686,260.642c0,0-0.651,1.176-0.677,1.319l-0.291-0.18l0.418-1.475L88.686,260.642z M87.092,259.674l0.759,0.399
						c0,0-0.569,1.025-0.569,1.537l-0.437-0.199L87.092,259.674z M85.821,259.2l0.911,0.361c0,0-0.354,1.366-0.396,1.85h-0.515
						V259.2z M85.423,259.2l-0.12,2.211h-0.602L84.55,259.2H85.423z M84.113,259.371v1.935h-0.702l-0.168-1.935H84.113z
						 M82.861,259.371l0.245,2.239h-0.738c0,0-0.133-1.651-0.436-1.954C81.931,259.656,82.33,259.409,82.861,259.371z
						 M81.647,259.845c0,0,0.494,1.309,0.474,2.116l-0.569,0.155c0,0-0.228-1.682-0.778-1.872L81.647,259.845z M80.413,260.471
						c0,0,0.778,0.86,0.835,1.644l-0.474,0.234c0,0-0.36-1.139-0.863-1.461L80.413,260.471z M79.711,261.098
						c0,0,0.93,1.271,0.93,1.499l-0.323,0.228c0,0-0.835-1.195-1.138-1.214C79.18,261.61,79.541,261.192,79.711,261.098z
						 M79.047,261.781l1.006,1.195l-0.247,0.436c0,0-0.664-1.006-0.996-0.911C78.81,262.502,78.82,261.914,79.047,261.781z
						 M78.7,262.653c0,0,0.803,0.626,0.879,0.911l-0.133,0.413c0,0-0.664-0.697-0.911-0.773L78.7,262.653z M78.475,263.413
						l0.8,0.778l-0.095,0.351l-0.835-0.579L78.475,263.413z M78.364,264.076l0.683,0.683l-0.228,0.246l-0.569-0.417L78.364,264.076z
						 M78.25,264.874l0.569,0.368l-0.12,0.315l-0.449-0.253V264.874z M78.25,265.556l0.449,0.152l-0.107,0.253l-0.228-0.12
						L78.25,265.556z M68.631,249.467l0.809,0.303c1.923,1.417,1.954-2.833,1.954-2.833c0.639-0.506-0.335-1.214-0.335-1.214
						l0.335-4.048l-1.246-2.226c-0.709-1.316,1.619,0,1.619,0c2.327,1.619,0.606,6.072,0.606,6.072c-0.304,0.607,0,6.274,0,6.274
						C70.147,254.021,68.631,249.467,68.631,249.467z M73.184,273.854c-1.012,2.327-2.732,1.923-4.655,1.822
						c-1.923-0.101-1.416-1.721-1.72-3.947c-0.303-2.226,2.328-6.071,2.631-5.667c0.304,0.405,0.101,2.935,0.423,3.775
						c0.322,0.84,0.69,2.398,1.196,2.297c0.506-0.101,2.125-3.339,2.125-3.339c2.429-2.53,1.417-5.079,1.417-5.079
						C78.041,266.632,74.196,271.527,73.184,273.854z M80.075,272.937c0,0-0.819-1.322-1.831-1.973
						c-1.012-0.651-1.417-1.222-1.417-1.222s1.836,0.51,2.628,0.758c0.792,0.248,0.307-0.632,0.863-0.663L80.075,272.937z
						 M84.341,266.752c0,0,0.237,1.328-0.527,1.252C83.814,268.004,84.36,267.738,84.341,266.752z M85.403,269.835
						c0,0-0.437,0.332-1.025,0c0,0-0.74,0.256-1.063,0.218l1.081-0.436l0.531,0.218l0.512-0.218l0.44,0.361
						C85.881,269.978,85.499,269.996,85.403,269.835z M84.208,270.698c-0.759-0.095-0.188-0.322-0.188-0.322
						c0.249,0.057,1.766-0.095,1.766-0.095C86.348,270.857,84.208,270.698,84.208,270.698z M82.026,266.866
						c0.664,0.095,1.524-0.114,1.524-0.114C83.107,267.186,82.026,266.866,82.026,266.866z M84.012,266.67c0-0.607-2.732,0-2.732,0
						C84.315,264.848,84.012,266.67,84.012,266.67z M86.561,274.911c-5.085-1.518-5.882-3.947-5.882-3.947
						c1.765,1.803,3.928,1.537,3.928,1.537c1.48,0.114,2.543-1.347,2.543-1.347C86.845,271.666,86.561,274.911,86.561,274.911z
						 M85.881,266.752c0,0,0.912,0.083,1.423-0.006c0.149-0.041,0.25-0.076,0.25-0.076c-0.059,0.034-0.147,0.058-0.25,0.076
						C86.957,266.84,86.321,266.964,85.881,266.752z M85.635,267.516c0.246,1.15,0.252,1.728-0.403,1.93
						c-0.875,0.271-1.212-0.753-1.212-0.753c1.118,0.63,1.516,0.335,1.288-0.651c-0.177-0.765,0.019-1.777,0.019-1.777
						c1.417-1.619,2.226,0,2.226,0C85.226,265.658,85.635,267.516,85.635,267.516z M72.779,325.311l-0.405-4.301
						c-0.101-4.452,12.473-29.245,12.473-29.245C84.754,295.296,72.779,325.311,72.779,325.311z M81.476,321.011
						c0,0,1.558-4.627,3.29-10.276c2.614-11.278,4.223-25.849,4.223-25.849l0.361,6.375c0.316,2.695-2.287,11.985-4.584,19.475
						C83.797,314.915,82.69,318.645,81.476,321.011z M93.22,334.974v3.239c0,0-3.542-1.012-3.411-2.227
						c0.131-1.214,10.687-7.386,10.687-7.386C100.587,329.51,93.22,334.974,93.22,334.974z"/>
					
						<linearGradient id="SVGID_00000065789305737426276250000011665921276081601694_" gradientUnits="userSpaceOnUse" x1="72.1607" y1="294.0925" x2="72.1607" y2="292.6903">
						<stop  offset="0" style="stop-color:#E96478"/>
						<stop  offset="0.1924" style="stop-color:#EE745F"/>
						<stop  offset="0.7423" style="stop-color:#FAA01B"/>
						<stop  offset="1" style="stop-color:#FFB100"/>
					</linearGradient>
					<path style="fill:url(#SVGID_00000065789305737426276250000011665921276081601694_);" d="M72.367,293.182
						c-0.218-0.169-0.422-0.332-0.618-0.492l0.727,1.402c0.024-0.047,0.056-0.1,0.082-0.149
						C72.638,293.293,72.367,293.182,72.367,293.182z"/>
					
						<linearGradient id="SVGID_00000037669444163717441840000016152170089668867206_" gradientUnits="userSpaceOnUse" x1="72.4068" y1="308.9374" x2="72.4068" y2="305.022">
						<stop  offset="0" style="stop-color:#E96478"/>
						<stop  offset="0.1924" style="stop-color:#EE745F"/>
						<stop  offset="0.7423" style="stop-color:#FAA01B"/>
						<stop  offset="1" style="stop-color:#FFB100"/>
					</linearGradient>
					<path style="fill:url(#SVGID_00000037669444163717441840000016152170089668867206_);" d="M72.569,305.022
						c-0.058,0.004-0.112,0.002-0.167,0l-0.178,3.915C72.714,306.884,72.569,305.022,72.569,305.022z"/>
					
						<linearGradient id="SVGID_00000116221993495737064690000015371384996909324975_" gradientUnits="userSpaceOnUse" x1="71.7694" y1="318.986" x2="71.7694" y2="318.9504">
						<stop  offset="0" style="stop-color:#E96478"/>
						<stop  offset="0.1924" style="stop-color:#EE745F"/>
						<stop  offset="0.7423" style="stop-color:#FAA01B"/>
						<stop  offset="1" style="stop-color:#FFB100"/>
					</linearGradient>
					<path style="fill:url(#SVGID_00000116221993495737064690000015371384996909324975_);" d="M71.768,318.986
						c0,0,0.003-0.007,0.004-0.01c-0.001-0.008-0.002-0.017-0.002-0.026L71.768,318.986z"/>
					
						<linearGradient id="SVGID_00000001627107628154588280000013719638332260566693_" gradientUnits="userSpaceOnUse" x1="70.1221" y1="337.4034" x2="70.1221" y2="336.131">
						<stop  offset="0" style="stop-color:#E96478"/>
						<stop  offset="0.1924" style="stop-color:#EE745F"/>
						<stop  offset="0.7423" style="stop-color:#FAA01B"/>
						<stop  offset="1" style="stop-color:#FFB100"/>
					</linearGradient>
					<path style="fill:url(#SVGID_00000001627107628154588280000013719638332260566693_);" d="M69.863,337.403
						c0,0,0.069-0.003,0.196-0.008c0.088-0.413,0.2-0.841,0.321-1.264C70.133,336.774,69.93,337.281,69.863,337.403z"/>
					
						<linearGradient id="SVGID_00000053545997144950217260000012074031135425564589_" gradientUnits="userSpaceOnUse" x1="69.0937" y1="282.2741" x2="69.0937" y2="279.9816">
						<stop  offset="0" style="stop-color:#E96478"/>
						<stop  offset="0.1924" style="stop-color:#EE745F"/>
						<stop  offset="0.7423" style="stop-color:#FAA01B"/>
						<stop  offset="1" style="stop-color:#FFB100"/>
					</linearGradient>
					<path style="fill:url(#SVGID_00000053545997144950217260000012074031135425564589_);" d="M68.23,279.982
						c0.466,0.913,1.329,2.49,1.633,2.272c0.017-0.012,0.038-0.037,0.061-0.066l0.033-0.137L68.23,279.982z"/>
					
						<linearGradient id="SVGID_00000000216167307489723930000000707225652319272616_" gradientUnits="userSpaceOnUse" x1="89.1507" y1="274.4199" x2="89.1507" y2="272.8529">
						<stop  offset="0" style="stop-color:#E96478"/>
						<stop  offset="0.1924" style="stop-color:#EE745F"/>
						<stop  offset="0.7423" style="stop-color:#FAA01B"/>
						<stop  offset="1" style="stop-color:#FFB100"/>
					</linearGradient>
					<polygon style="fill:url(#SVGID_00000000216167307489723930000000707225652319272616_);" points="89.389,274.42 
						89.054,272.853 88.912,272.994 					"/>
					
						<linearGradient id="SVGID_00000157266393299522426790000003787022823523544742_" gradientUnits="userSpaceOnUse" x1="108.9357" y1="291.2754" x2="108.9357" y2="289.5756">
						<stop  offset="0" style="stop-color:#E96478"/>
						<stop  offset="0.1924" style="stop-color:#EE745F"/>
						<stop  offset="0.7423" style="stop-color:#FAA01B"/>
						<stop  offset="1" style="stop-color:#FFB100"/>
					</linearGradient>
					<polygon style="fill:url(#SVGID_00000157266393299522426790000003787022823523544742_);" points="107.246,289.576 
						110.345,291.275 110.626,291.057 					"/>
					
						<linearGradient id="SVGID_00000177478119144972959420000000699877554076610227_" gradientUnits="userSpaceOnUse" x1="67.9247" y1="229.6352" x2="67.9247" y2="229.633">
						<stop  offset="0" style="stop-color:#E96478"/>
						<stop  offset="0.1924" style="stop-color:#EE745F"/>
						<stop  offset="0.7423" style="stop-color:#FAA01B"/>
						<stop  offset="1" style="stop-color:#FFB100"/>
					</linearGradient>
					<polygon style="fill:url(#SVGID_00000177478119144972959420000000699877554076610227_);" points="67.922,229.633 
						67.927,229.635 67.927,229.633 					"/>
				</g>
				
					<linearGradient id="SVGID_00000132064994839519119250000002133830129864889991_" gradientUnits="userSpaceOnUse" x1="394.2752" y1="346.2068" x2="394.2752" y2="233.8448">
					<stop  offset="0" style="stop-color:#FFB1B7"/>
					<stop  offset="0.006" style="stop-color:#FFB1B6"/>
					<stop  offset="0.6971" style="stop-color:#FFB134"/>
					<stop  offset="1" style="stop-color:#FFB100"/>
				</linearGradient>
				<path style="fill:url(#SVGID_00000132064994839519119250000002133830129864889991_);" d="M404.064,267.68l0.652-0.616h2.695
					v-2.548l23.273-21.999l-6.67-7.056l-23.365,22.086l-6.209-9.157l-6.015,8.606l-21.884-23.152l-1.246,1.178l0,0l-5.81,5.492
					l21.655,22.909v3.641h3.441l0.276,0.292l-0.758,5.836l-26.232,24.796l6.67,7.056l17.584-16.621l-7.506,57.784h39.244h0.407
					l-7.189-55.344l14.934,15.799l7.056-6.67l-24.118-25.515L404.064,267.68z M390.277,291.695c0-2.138,1.445-3.935,3.41-4.478l0,0
					c0.181-0.051,0.368-0.088,0.557-0.117c0.029-0.004,0.057-0.009,0.086-0.013c0.196-0.026,0.395-0.043,0.598-0.043
					c2.569,0,4.651,2.082,4.651,4.651c0,0.19-0.015,0.377-0.037,0.561c-0.006,0.053-0.016,0.105-0.024,0.158
					c-0.021,0.136-0.048,0.27-0.081,0.402c-0.012,0.05-0.024,0.099-0.038,0.148c-0.047,0.164-0.1,0.325-0.164,0.481
					c-0.003,0.008-0.006,0.017-0.009,0.025c-0.073,0.176-0.157,0.346-0.25,0.51c-0.008,0.014-0.017,0.027-0.025,0.042
					c-0.087,0.149-0.181,0.292-0.283,0.43c-0.013,0.017-0.025,0.034-0.038,0.051c-0.346,0.454-0.773,0.844-1.26,1.146
					c-0.71,0.44-1.545,0.698-2.441,0.698C392.36,296.347,390.277,294.265,390.277,291.695z"/>
			</g>
			<g>
				
					<linearGradient id="SVGID_00000113338827007829875760000007524825780325026452_" gradientUnits="userSpaceOnUse" x1="202.4662" y1="346.1517" x2="202.4662" y2="292.2079">
					<stop  offset="0" style="stop-color:#4DB100"/>
					<stop  offset="0.0524" style="stop-color:#65B100"/>
					<stop  offset="0.1546" style="stop-color:#8EB100"/>
					<stop  offset="0.2632" style="stop-color:#B1B100"/>
					<stop  offset="0.3774" style="stop-color:#CDB100"/>
					<stop  offset="0.4992" style="stop-color:#E3B100"/>
					<stop  offset="0.6322" style="stop-color:#F3B100"/>
					<stop  offset="0.7846" style="stop-color:#FCB100"/>
					<stop  offset="1" style="stop-color:#FFB100"/>
				</linearGradient>
				<path style="fill:url(#SVGID_00000113338827007829875760000007524825780325026452_);" d="M250.325,346.152l-1.458-4.371h-2.251
					l-1.393-4.177h-2.187l-1.458-4.371h-2.187l-1.458-4.371h-2.187l-1.458-4.371h-2.187l-1.458-4.371h-2.188l-1.457-4.371h-2.187
					l-1.458-4.371h-2.187l-1.458-4.371h-5.464V294.27h2.111v-2.062h-28.351v2.062h2.684v12.735h-5.464l-1.458,4.371h-2.187
					l-1.458,4.371h-2.187l-1.458,4.371h-2.187l-1.458,4.371h-2.187l-1.458,4.371H167l-1.458,4.371h-2.187l-1.458,4.371h-2.187
					l-1.393,4.177h-2.252l-1.458,4.371h39.359v-0.982h16.999v0.982H250.325z M210.966,312.56v0.896h-16.999v-0.896H210.966z
					 M193.967,311.126v-0.896h16.999v0.896H193.967z M210.966,314.889v0.896h-16.999v-0.896H210.966z M210.966,317.218v0.896
					h-16.999v-0.896H210.966z M210.966,319.547v0.896h-16.999v-0.896H210.966z M210.966,321.877v0.896h-16.999v-0.896H210.966z
					 M210.966,324.206v0.896h-16.999v-0.896H210.966z M210.966,326.535v0.896h-16.999v-0.896H210.966z M210.966,328.865v0.896
					h-16.999v-0.896H210.966z M210.966,331.194v0.896h-16.999v-0.896H210.966z M210.966,333.523v0.896h-16.999v-0.896H210.966z
					 M210.966,335.852v0.896h-16.999v-0.896H210.966z M210.966,338.182v0.896h-16.999v-0.896H210.966z M210.966,340.511v0.896
					h-16.999v-0.896H210.966z M199.916,307.005v-6.678h5.1v6.678h5.95v1.792h-16.999v-1.792H199.916z M193.967,343.736v-0.896
					h16.999v0.896H193.967z"/>
				
					<linearGradient id="SVGID_00000147912614510280836570000013032574401915002542_" gradientUnits="userSpaceOnUse" x1="202.4664" y1="346.2068" x2="202.4664" y2="346.1517">
					<stop  offset="0" style="stop-color:#FFB100;stop-opacity:0"/>
					<stop  offset="0.1175" style="stop-color:#FFB100;stop-opacity:0.1175"/>
					<stop  offset="1" style="stop-color:#FFB100"/>
				</linearGradient>
				
					<rect x="193.967" y="346.152" style="fill:url(#SVGID_00000147912614510280836570000013032574401915002542_);" width="16.999" height="0.055"/>
			</g>
		</g>
		<g>
			
				<linearGradient id="SVGID_00000119087777932856241030000009880376063906786748_" gradientUnits="userSpaceOnUse" x1="129.6357" y1="346.2068" x2="129.6357" y2="237.713">
				<stop  offset="0" style="stop-color:#CEE1A8"/>
				<stop  offset="0.2459" style="stop-color:#ABC7B6"/>
				<stop  offset="0.5798" style="stop-color:#81A8C8"/>
				<stop  offset="0.8427" style="stop-color:#6895D2"/>
				<stop  offset="1" style="stop-color:#5E8ED6"/>
			</linearGradient>
			<path style="fill:url(#SVGID_00000119087777932856241030000009880376063906786748_);" d="M175.205,281.062v-6.415h2.338v-0.705
				v-0.705h-27.373c0.949-0.192,0.613-1.605,0.613-1.605c0.462-0.427,0.208-1.068,0.208-1.068l0.226-1.549
				c0.736-1.388-0.434-1.868-0.434-1.868v-0.694c0.676-2.189-0.734-3.268-0.734-3.268c0.103-0.546-0.209-1.738-0.209-1.738
				c0-0.789,0.624-0.706,0.624-0.706c0.785,0.107,0.753-0.84,0.753-0.84c0.416-0.359,0-0.941,0-0.941l0.107-1.011
				c0.095-0.282,0.491-0.785,0.281-0.999c-0.209-0.213,0.048-0.747,0.048-0.747c0.586-0.588,0.27-0.961,0.27-0.961
				c-0.265-0.107-0.318,0.32-0.318,0.32l-0.769-0.32c0.036-0.267,0.045-0.758,0.045-0.758c-0.4-0.171-1.437,1.024-1.437,1.024
				l-0.803,0.374c-0.611,0.214-1.567,2.626-1.567,2.626c-0.44,0.368-0.826,2.97-0.938,3.793c-0.292,0.088-4.181,1.216-6.854,0.145
				c-0.111-0.312-0.324-0.674-0.759-0.999c0,0-0.423-2.468-0.265-2.735c0.158-0.267,1.167-0.748,0.796-1.228
				c0,0,0.109-0.908-0.424-0.694v-0.961c0,0,0.747-0.768-0.107-1.104l-0.265-0.417c0,0,0.43-0.294,0.053-0.828
				c0,0-0.538-0.07-0.537,0.499c0,0-0.443-0.478-0.808,0.019c0,0-0.63-1.165-0.872-0.094v0.701c0,0-0.844,3.139-0.997,4.985
				c0,0-0.462,1.902-0.734,2.514c-0.104,0.234-0.221,0.5-0.32,0.758l0.947-3.52c0,0,0.137-3.384-1.769-3.437
				c0,0-0.517,0.471-0.437,1.224l-0.263,0.709l-0.803-0.289l-0.991-0.672c0,0,0.558-0.812,0.653-1.238l0.209-0.748
				c0,0,0.551-0.534-0.209-0.961c0,0-0.527-0.427-1.631-0.213l-0.231,0.186l-0.253-4.851c1.245-0.194,2.2-1.262,2.2-2.562
				c0-0.891-0.449-1.676-1.132-2.145l0.005,0.001l-0.718-0.739l-0.007-0.087c0.1-0.167,0.114-0.46,0.114-0.46
				c0.294,0.3,0.434-0.047,0.434-0.047c0.567,0.334,0.515-0.194,0.515-0.194c0.522,0.167,0.266-0.187,0.266-0.187
				c0.374,0.12,0.313-0.654,0.313-0.654c-0.04-0.314,0.167-0.28,0.167-0.28c0.734-0.534,0.434-0.58,0.434-0.58
				c0.454-0.307,0.187-0.333,0.187-0.333c0.494-0.394,0.1-0.361,0.1-0.361c0.427-0.38,0.107-0.347,0.107-0.347
				c0.601-0.6,0.12-0.497,0.12-0.497c0.527-0.657,0.013-0.404,0.013-0.404c0.761-0.868,0.22-0.753,0.22-0.753
				c0.581-1.073,0.04-0.611,0.04-0.611l-0.761,0.896c0.053-0.347-0.213-0.093-0.213-0.093c-0.187,0.287-1.928,1.635-1.928,1.635
				c-0.334,0.173-0.133,0.26-0.133,0.26c1.068,0.427-0.518,0.936-0.518,0.936l-0.056-0.565l-0.053-0.29c0,0,0.179-0.601-0.224-0.667
				c0,0,0.632-0.427,0.108-0.507l-0.189-0.053l-0.028-0.16c0,0,0.257-0.389-0.025-0.395c0,0-0.202-0.032-0.122,0.328
				c0,0-0.026,0.24-0.093,0.254c0,0-0.536-0.04-0.261,0.347l0.248,0.2c0,0-0.305,0.013-0.326,0.12c0,0-0.301-0.053-0.301,0.187
				c0,0,0.334,0.013,0.32,0.12c0,0,0.219,1.046,0.059,1.136l-0.16,0.036c0,0-1.639-0.295-0.637-0.859c0,0,0.187-0.112-0.167-0.24
				c0,0-1.904-1.107-2.127-1.367c0,0-0.298-0.216-0.199,0.121l-0.872-0.788c0,0-0.597-0.386,0.12,0.6c0,0-0.551-0.043,0.318,0.717
				c0,0-0.543-0.183,0.066,0.399c0,0-0.49-0.04,0.185,0.477c0,0-0.322,0.009,0.151,0.33c0,0-0.394,0.019,0.147,0.344
				c0,0-0.261,0.062,0.229,0.306c0,0-0.291,0.086,0.506,0.518c0,0,0.201-0.06,0.202,0.256c0,0,0.042,0.775,0.397,0.607
				c0,0-0.208,0.384,0.288,0.15c0,0,0.018,0.529,0.536,0.124c0,0,0.185,0.326,0.436-0.011c0,0,0.052,0.289,0.173,0.441l0.005,0.087
				l-0.591,0.796c-0.542,0.477-0.891,1.167-0.891,1.946c0,1.378,1.074,2.494,2.428,2.585l0.177,3.893
				c-0.188,0.049-0.472,0.234-0.831,0.802c0,0-0.571,0.267-0.648,0.588c0,0-1.369,1.585-1.364,2.261c0,0-1.203-0.446-0.519,4.787
				l0.111,2.251l-0.248,0.407c-0.01-0.099-0.015-0.16-0.015-0.16c0.101-0.362-0.261-1.187-0.533-1.799
				c-0.272-0.612-0.734-2.514-0.734-2.514c-0.152-1.846-0.997-4.985-0.997-4.985v-0.701c-0.241-1.071-0.872,0.094-0.872,0.094
				c-0.365-0.496-0.808-0.019-0.808-0.019c0.001-0.569-0.537-0.499-0.537-0.499c-0.376,0.534,0.054,0.828,0.054,0.828l-0.265,0.417
				c-0.854,0.337-0.107,1.104-0.107,1.104v0.961c-0.534-0.214-0.425,0.694-0.425,0.694c-0.371,0.48,0.638,0.961,0.796,1.228
				c0.158,0.267-0.265,2.735-0.265,2.735c-0.462,0.346-0.676,0.734-0.779,1.058c-2.774,1.018-6.747-0.212-6.747-0.212l0,0
				c-0.114-0.832-0.498-3.417-0.937-3.784c0,0-0.957-2.412-1.567-2.626l-0.803-0.374c0,0-1.037-1.195-1.437-1.024
				c0,0,0.009,0.491,0.045,0.758l-0.769,0.32c0,0-0.052-0.427-0.318-0.32c0,0-0.315,0.374,0.27,0.961c0,0,0.257,0.534,0.048,0.747
				c-0.21,0.214,0.186,0.717,0.282,0.999l0.107,1.011c0,0-0.416,0.582,0,0.941c0,0-0.032,0.946,0.753,0.84
				c0,0,0.624-0.083,0.624,0.706c0,0-0.311,1.192-0.209,1.738c0,0-1.41,1.079-0.734,3.268v0.694c0,0-1.17,0.48-0.434,1.868
				l0.226,1.549c0,0-0.255,0.64,0.208,1.068c0,0-0.336,1.412,0.613,1.605H80.593v0.705v0.705h2.16v6.415h-8.208v0.704v0.705h1.116
				v1.554h1.396v4.998v1.535h1.486c0,0,0.723,3.616,1.607,3.616h0.956v2.992v45.426h-0.956c-0.884,0-1.607,3.616-1.607,3.616h0.559
				H91.44h0.368c0,0-0.723-3.616-1.607-3.616h-0.956v-12.613v-35.805h0.956c0.884,0,1.607-3.616,1.607-3.616h1.403
				c0,0,0.723,3.616,1.607,3.616h0.956v2.992v45.426h-0.956c-0.884,0-1.607,3.616-1.607,3.616h0.559h12.337h0.368
				c0,0-0.723-3.616-1.607-3.616h-0.956v-12.613v-35.805h0.956c0.884,0,1.607-3.616,1.607-3.616h1.404c0,0,0.723,3.616,1.607,3.616
				h0.956v2.992v45.426h-0.956c-0.884,0-1.607,3.616-1.607,3.616h0.559h12.337h0.368c0,0-0.723-3.616-1.607-3.616h-0.956v-12.613
				v-35.805h0.956c0.884,0,1.607-3.616,1.607-3.616h16.958c0,0,0.723,3.616,1.607,3.616h0.956v2.992v45.426h-0.956
				c-0.884,0-1.607,3.616-1.607,3.616h0.559h12.338h0.368c0,0-0.723-3.616-1.607-3.616h-0.956v-12.613v-35.805h0.956
				c0.884,0,1.607-3.616,1.607-3.616h1.404c0,0,0.723,3.616,1.607,3.616h0.956v2.992v45.426h-0.956
				c-0.884,0-1.607,3.616-1.607,3.616h0.559h12.338h0.368c0,0-0.722-3.616-1.607-3.616h-0.956v-12.613v-35.805h0.956
				c0.884,0,1.607-3.616,1.607-3.616h1.404c0,0,0.723,3.616,1.606,3.616h0.956v2.992v45.426h-0.956
				c-0.884,0-1.606,3.616-1.606,3.616h0.559h12.337h0.368c0,0-0.723-3.616-1.607-3.616h-0.956v-12.613v-35.805h0.956
				c0.884,0,1.607-3.616,1.607-3.616h1.44v-1.535v-4.998h1.465v-1.554h1.118v-0.705v-0.704H175.205z M114.182,271.205l1.147-0.267
				c0,0-0.296,1.014,0,1.975l0.083,0.323h-1.207C114.143,272.748,114.012,271.543,114.182,271.205z M143.942,270.938l1.147,0.267
				c0.17,0.338,0.039,1.543-0.022,2.032h-1.207l0.083-0.323C144.238,271.953,143.942,270.938,143.942,270.938z M125.353,272.646
				c0,0,0.326-1.228,0.487-1.762c0,0,1.791,1.764,2.806,1.978h3.791c0,0,0.59-0.475,1.187-0.985
				c0.112,0.412,0.207,0.769,0.207,0.769s0.002,0.29,0.002,0.591h-8.481C125.351,272.936,125.353,272.646,125.353,272.646z
				 M147.492,270.618c0.162-0.427,1.149-1.869,1.149-1.869c-0.13,0.32,0.803,0.32,0.803,0.32l1.02-0.32
				c0.305,0.214-0.053,1.068-0.053,1.068c-0.336,0.32-0.362,0.854-0.362,0.854c-0.057,0.694-0.395,0.854-0.395,0.854
				c-1.094,1.174,0,1.709,0,1.709c0.012,0.002,0.021,0.001,0.033,0.003h-3.174l0.33-0.858
				C147.42,271.418,147.492,270.618,147.492,270.618z M145.565,263.134l-0.367,0.395c-1.008,0.158-4.011,0.599-5.385,0.473
				c-0.039-0.294-0.156-0.59-0.426-0.817c0,0,0.004-0.04,0.006-0.096C140.228,263.35,142.212,263.739,145.565,263.134z
				 M138.629,271.418c0,0,0.32-0.694,0-1.281c0,0,0.86-0.587,1.017-1.441c0,0,0.536-2.723,0-3.524c0,0,0.192-0.458,0.181-0.973
				l4.346-0.264c-0.374,0.293-0.6,0.801-0.6,0.801c-0.447-0.222-0.727,0.169-0.727,0.169c-0.801,0.32-0.419,1.228-0.419,1.228
				c-1.431,3.79-0.384,4.751-0.384,4.751c0.1,0.368,0.075,1.534,0.042,2.352h-3.687L138.629,271.418z M136.639,271.846
				c0,0,0.485,0.534,0.57,1.014c0.019,0.107,0.015,0.239,0.001,0.377h-1.575l0.408-1.231L136.639,271.846z M133.83,263.903
				c0,0-0.015,0.218-0.061,0.509l0,0c0,0-0.044-0.026-0.125-0.067l0.174-0.646C133.813,263.775,133.814,263.846,133.83,263.903z
				 M128.487,243.608c0,0-0.195-0.237,0.059-0.372l0.208-0.03c0.27,0.1,0.108,0.36,0.108,0.36c-0.183,0.087-0.077,0.321-0.077,0.321
				l0.02,0.006c-0.068,0.001-0.132,0.014-0.198,0.02C128.609,243.905,128.678,243.669,128.487,243.608z M128.165,254.624
				l0.746-0.684l0.127,2.796l-0.501,0.261l-1.15-0.816L128.165,254.624z M125.607,265.137l-0.016,0.024
				c-0.003-0.008-0.005-0.015-0.007-0.023L125.607,265.137z M121.974,272.86c0.085-0.48,0.57-1.014,0.57-1.014l0.595,0.16
				l0.408,1.231h-1.575C121.959,273.099,121.955,272.967,121.974,272.86z M120.554,271.418l0.23,1.819h-3.599
				c-0.033-0.818-0.058-1.984,0.042-2.352c0,0,1.048-0.961-0.384-4.751c0,0,0.382-0.908-0.418-1.228c0,0-0.28-0.391-0.727-0.169
				c0,0-0.227-0.51-0.603-0.803l4.261,0.259c-0.012,0.518,0.181,0.98,0.181,0.98c-0.537,0.801,0,3.524,0,3.524
				c0.157,0.854,1.017,1.441,1.017,1.441C120.234,270.725,120.554,271.418,120.554,271.418z M119.791,263.123
				c0.002,0.037,0.005,0.062,0.005,0.062c-0.273,0.23-0.39,0.53-0.427,0.827c-1.439,0.092-4.352-0.339-5.3-0.488l-0.369-0.397
				C116.93,263.715,118.893,263.383,119.791,263.123z M109.618,271.525c0,0-0.338-0.16-0.396-0.854c0,0-0.026-0.534-0.362-0.854
				c0,0-0.358-0.854-0.053-1.068l1.02,0.32c0,0,0.933,0,0.803-0.32c0,0,0.988,1.441,1.149,1.869c0,0,0.072,0.8,0.65,1.761
				l0.33,0.858h-1.758h-1.416c0.012-0.002,0.021-0.001,0.033-0.003C109.618,273.234,110.713,272.7,109.618,271.525z"/>
			
				<linearGradient id="SVGID_00000096047357695421623150000014594683792386908089_" gradientUnits="userSpaceOnUse" x1="520.6033" y1="346.2068" x2="520.6033" y2="302.8013">
				<stop  offset="0" style="stop-color:#5EE6D6"/>
				<stop  offset="0.0567" style="stop-color:#5EDED6"/>
				<stop  offset="0.3254" style="stop-color:#5EBBD6"/>
				<stop  offset="0.5796" style="stop-color:#5EA2D6"/>
				<stop  offset="0.8114" style="stop-color:#5E93D6"/>
				<stop  offset="1" style="stop-color:#5E8ED6"/>
			</linearGradient>
			<path style="fill:url(#SVGID_00000096047357695421623150000014594683792386908089_);" d="M576.403,342.324l-2.762-0.268
				l0.844-0.842l-6.01-3.328v-2.679l-0.143,0.133l6.153-5.775c-7.645-2.08-20.504,3.051-20.504,3.051l-1.96,4.818h0l1.96-4.818
				c-1.525-2.052-4.997-3.121-7.932-3.673l3.26-7.282c-13.105-3.883-25.308,4.299-25.308,4.299s-7.443-19.414-30.347-23.159
				c0,0,3.072,6.338,5.883,15.231l-0.031-0.099c0,0-8.372-5.703-18.078-5.425c0,0,1.473,3.775,3.14,9.152
				c-0.003-0.002-6.055-4.16-19.226-2.357l6.136,10.324l-2.946,4.375l-4.437,1.204l1.248,1.569h1.239l-0.375,0.139v2.511
				l-2.111-0.661v3.558h-2.219v3.883h117.458v-2.08L576.403,342.324z M541.238,340.521v-0.832l3.218-7.188
				c0.733,1.122,1.488,2.335,2.178,3.473h0l-3.913,2.792v1.756H541.238z"/>
			<g>
				
					<linearGradient id="SVGID_00000145766661128565556210000009778965482910508706_" gradientUnits="userSpaceOnUse" x1="434.7312" y1="346.2068" x2="434.7312" y2="270.9975">
					<stop  offset="6.610600e-04" style="stop-color:#5024D6"/>
					<stop  offset="0.0057" style="stop-color:#5025D6"/>
					<stop  offset="0.323" style="stop-color:#5652D6"/>
					<stop  offset="0.6057" style="stop-color:#5A73D6"/>
					<stop  offset="0.841" style="stop-color:#5D87D6"/>
					<stop  offset="1" style="stop-color:#5E8ED6"/>
				</linearGradient>
				<path style="fill:url(#SVGID_00000145766661128565556210000009778965482910508706_);" d="M475.007,271.139
					c-0.133,0.057-0.276,0.113-0.418,0.17c-0.103,0.041-0.207,0.082-0.315,0.122c-0.1,0.038-0.204,0.075-0.309,0.112
					c-0.113,0.04-0.227,0.08-0.344,0.12c-0.109,0.037-0.221,0.074-0.335,0.11c-0.122,0.039-0.245,0.079-0.372,0.118
					c-0.117,0.036-0.238,0.072-0.359,0.107c-0.131,0.038-0.262,0.077-0.397,0.115c-0.127,0.036-0.257,0.071-0.387,0.106
					c-0.139,0.037-0.278,0.075-0.421,0.111c-0.135,0.035-0.273,0.069-0.412,0.103c-0.147,0.036-0.295,0.073-0.446,0.109
					c-0.142,0.034-0.288,0.067-0.434,0.1c-0.156,0.036-0.313,0.071-0.473,0.106c-0.151,0.033-0.305,0.066-0.46,0.098
					c-0.162,0.034-0.325,0.069-0.491,0.102c-0.159,0.032-0.323,0.064-0.486,0.096c-0.17,0.033-0.34,0.066-0.514,0.099
					c-0.166,0.031-0.336,0.062-0.506,0.093c-0.178,0.032-0.356,0.065-0.537,0.096c-0.173,0.03-0.351,0.06-0.527,0.09
					c-0.185,0.031-0.37,0.062-0.559,0.093c-0.182,0.03-0.368,0.058-0.553,0.087c-0.19,0.03-0.379,0.059-0.573,0.089
					c-0.189,0.029-0.383,0.056-0.576,0.084c-0.198,0.029-0.395,0.058-0.596,0.086c-0.194,0.027-0.393,0.054-0.59,0.08
					c-0.205,0.028-0.409,0.055-0.617,0.082c-0.203,0.026-0.409,0.052-0.615,0.077c-0.209,0.026-0.417,0.052-0.629,0.078
					c-0.212,0.026-0.429,0.05-0.645,0.075c-0.212,0.025-0.422,0.049-0.637,0.073c-0.221,0.025-0.445,0.048-0.669,0.072
					c-0.217,0.023-0.432,0.046-0.651,0.069c-0.222,0.023-0.447,0.045-0.672,0.067c-0.228,0.022-0.455,0.045-0.687,0.067
					c-0.228,0.021-0.459,0.042-0.69,0.063c-0.23,0.021-0.458,0.042-0.69,0.062c-0.244,0.021-0.491,0.041-0.738,0.062
					c-0.226,0.019-0.451,0.038-0.679,0.056c-0.246,0.02-0.497,0.038-0.746,0.057c-0.236,0.018-0.471,0.036-0.709,0.053
					c-0.247,0.018-0.499,0.034-0.749,0.051c-0.242,0.016-0.483,0.033-0.728,0.049c-0.261,0.017-0.526,0.033-0.79,0.049
					c-0.238,0.014-0.474,0.029-0.714,0.043c-0.271,0.016-0.546,0.03-0.82,0.045c-0.239,0.013-0.476,0.026-0.717,0.039
					c-0.27,0.014-0.543,0.026-0.815,0.039c-0.249,0.012-0.496,0.024-0.747,0.035c-0.283,0.013-0.569,0.023-0.854,0.035
					c-0.241,0.01-0.481,0.02-0.724,0.029c-0.298,0.011-0.599,0.021-0.899,0.031c-0.237,0.008-0.473,0.017-0.712,0.024
					c-0.294,0.009-0.591,0.017-0.886,0.025c-0.249,0.007-0.496,0.015-0.746,0.021c-0.309,0.008-0.622,0.014-0.934,0.021
					c-0.238,0.005-0.475,0.011-0.714,0.016c-0.347,0.006-0.697,0.011-1.046,0.016c-0.208,0.003-0.414,0.007-0.622,0.01
					c-0.388,0.005-0.779,0.008-1.17,0.011c-0.174,0.001-0.346,0.004-0.52,0.005c-0.566,0.004-1.135,0.005-1.706,0.005
					c-18.504,0-34.256-1.859-40.175-4.459c-0.074-0.032-0.148-0.065-0.22-0.098c-0.051,0.082-0.093,0.17-0.132,0.259
					c-0.204,0.476-0.234,1.048-0.005,1.587l1.363,3.213c1.613,0.587,3.743,1.13,6.293,1.616l2.326,4.921
					c0.221,0.467,0.691,0.766,1.208,0.766h6.738c0.202,0.579,0.48,1.158,0.786,1.158h6.56c0.362,0,0.684-0.554,0.887-1.158h10.818
					v5.541h-11.902l-0.094-4.309h-5.645l-0.181,4.309h-7.504c-0.719,0-1.307,0.588-1.307,1.307v1.695
					c0,0.719,0.588,1.307,1.307,1.307h7.547l-0.41,25.367c-0.064-0.007-0.132-0.013-0.195-0.021l-0.251,27.651h7.635l-0.254-27.8
					c-0.062,0.011-0.131,0.019-0.194,0.029l-0.289-17.909l0.095,0.149l-0.164-7.467h29.065l-0.41,25.367
					c-0.064-0.007-0.132-0.013-0.195-0.021l-0.251,27.651h7.635l-0.254-27.8c-0.062,0.011-0.131,0.019-0.194,0.029l-0.289-17.909
					l0.095,0.149l-0.164-7.467h8.438c0.719,0,1.307-0.588,1.307-1.307v-1.695c0-0.719-0.588-1.307-1.307-1.307h-8.533l-0.094-4.309
					h-5.645l-0.181,4.309h-12.087v-5.541h10.859c0.202,0.579,0.48,1.158,0.786,1.158h6.559c0.362,0,0.684-0.554,0.888-1.158h7.72
					c0.535,0,1.018-0.318,1.229-0.809l1.997-4.647c2.944-0.512,5.4-1.096,7.241-1.734l1.306-3.385
					C475.308,272.214,475.249,271.617,475.007,271.139z"/>
				
					<linearGradient id="SVGID_00000143603239837986124380000016490083611736427158_" gradientUnits="userSpaceOnUse" x1="394.579" y1="268.8532" x2="394.579" y2="268.5943">
					<stop  offset="0" style="stop-color:#5E8ED6;stop-opacity:0"/>
					<stop  offset="0.1464" style="stop-color:#5E8ED6;stop-opacity:0.1464"/>
					<stop  offset="1" style="stop-color:#5E8ED6"/>
				</linearGradient>
				<path style="fill:url(#SVGID_00000143603239837986124380000016490083611736427158_);" d="M394.535,268.594
					c-0.051,0.082-0.093,0.169-0.132,0.259c0.113-0.054,0.23-0.108,0.352-0.161C394.68,268.659,394.606,268.627,394.535,268.594z"/>
			</g>
			
				<linearGradient id="SVGID_00000153689282647128595540000007612186736596522652_" gradientUnits="userSpaceOnUse" x1="641.9968" y1="346.2068" x2="641.9968" y2="260.9665">
				<stop  offset="0" style="stop-color:#B58ED6"/>
				<stop  offset="0.1785" style="stop-color:#A08ED6"/>
				<stop  offset="0.5299" style="stop-color:#7C8ED6"/>
				<stop  offset="0.8163" style="stop-color:#668ED6"/>
				<stop  offset="1" style="stop-color:#5E8ED6"/>
			</linearGradient>
			<path style="fill:url(#SVGID_00000153689282647128595540000007612186736596522652_);" d="M641.997,260.966l-50.338,14.38v0.732
				v0.732l2.244-0.641v7.303h-0.42v0.732v0.731h3.972v0.759h1.153v4.864v1.493h1.228c0,0,0.597,3.519,1.327,3.519h0.79v2.911v44.207
				h-0.79c-0.73,0-1.327,3.519-1.327,3.519h0.462h10.192h0.304c0,0-0.597-3.519-1.327-3.519h-0.79v-12.275V295.57h0.79
				c0.73,0,1.327-3.519,1.327-3.519h1.16c0,0,0.597,3.519,1.327,3.519h0.79v2.911v44.207h-0.79c-0.73,0-1.327,3.519-1.327,3.519
				h0.462h10.192h0.304c0,0-0.597-3.519-1.327-3.519h-0.79v-12.275V295.57h0.79c0.73,0,1.327-3.519,1.327-3.519h1.16
				c0,0,0.597,3.519,1.327,3.519h0.79v2.911v44.207h-0.79c-0.73,0-1.327,3.519-1.327,3.519h0.462h10.192h0.304
				c0,0-0.597-3.519-1.327-3.519h-0.79v-12.275V295.57h0.79c0.73,0,1.327-3.519,1.327-3.519h1.507c0,0,0.597,3.519,1.327,3.519h0.79
				v2.911v44.207h-0.79c-0.73,0-1.327,3.519-1.327,3.519h0.462h10.192h0.304c0,0-0.597-3.519-1.327-3.519h-0.79v-12.275V295.57h0.79
				c0.73,0,1.327-3.519,1.327-3.519h1.545c0,0,0.597,3.519,1.327,3.519h0.79v2.911v44.207h-0.79c-0.73,0-1.327,3.519-1.327,3.519
				h0.462h10.192h0.304c0,0-0.597-3.519-1.327-3.519h-0.79v-12.275V295.57h0.79c0.73,0,1.327-3.519,1.327-3.519h1.16
				c0,0,0.597,3.519,1.327,3.519h0.79v2.911v44.207h-0.79c-0.73,0-1.327,3.519-1.327,3.519h0.462h10.192h0.304
				c0,0-0.597-3.519-1.327-3.519h-0.789v-12.275V295.57h0.789c0.73,0,1.327-3.519,1.327-3.519h1.16c0,0,0.597,3.519,1.327,3.519
				h0.79v2.911v44.207h-0.79c-0.73,0-1.327,3.519-1.327,3.519h0.462h10.192h0.304c0,0-0.597-3.519-1.327-3.519h-0.79v-12.275V295.57
				h0.79c0.73,0,1.327-3.519,1.327-3.519h1.189v-1.493v-4.864h1.21v-0.759h3.979v-0.731v-0.732h-0.7v-7.355l2.427,0.693v-0.732
				v-0.732L641.997,260.966z"/>
		</g>
		
			<linearGradient id="SVGID_00000028317925011389186570000004673030313564240568_" gradientUnits="userSpaceOnUse" x1="86.4209" y1="346.2068" x2="86.4209" y2="317.4069">
			<stop  offset="0" style="stop-color:#FF5AD1"/>
			<stop  offset="0.0891" style="stop-color:#FF5ABC"/>
			<stop  offset="0.2488" style="stop-color:#FF5A9D"/>
			<stop  offset="0.4154" style="stop-color:#FF5A84"/>
			<stop  offset="0.5899" style="stop-color:#FF5A73"/>
			<stop  offset="0.7772" style="stop-color:#FF5A68"/>
			<stop  offset="1" style="stop-color:#FF5A65"/>
		</linearGradient>
		<path style="fill:url(#SVGID_00000028317925011389186570000004673030313564240568_);" d="M57.315,341.594h4.915
			c0-1.966,0.832-2.495,0.832-2.495c-0.227-0.907,0.605-2.268,0.605-2.268l3.327-9.755l-3.176-0.302
			c-1.285-0.454-0.454-1.739-0.454-1.739c0.255-0.17,0.436-0.383,0.562-0.582c0.126-0.199,0.198-0.385,0.235-0.502
			c0.025-0.078,0.034-0.125,0.034-0.125l-1.134-0.076l1.437-2.042c-0.076-0.123-0.126-0.243-0.158-0.36
			c-0.031-0.117-0.042-0.23-0.039-0.338c0.004-0.108,0.022-0.211,0.05-0.308c0.084-0.29,0.256-0.523,0.38-0.663
			c0.083-0.093,0.144-0.145,0.144-0.145c0.681-2.42,2.495-2.42,2.495-2.42c11.721-0.983,10.738,9.452,10.738,9.452
			c0,0.68-1.437-1.664-1.815,1.512c-0.136,1.146,0.169,1.945,0.747,2.503c0.289,0.279,0.645,0.497,1.048,0.669
			c0.101,0.043,0.204,0.083,0.311,0.12c0.213,0.074,0.435,0.138,0.666,0.192c0.461,0.109,0.952,0.181,1.453,0.229
			c1.002,0.097,2.04,0.099,2.945,0.114c0.113,0.002,0.224,0.004,0.333,0.007c0.326,0.007,0.63,0.019,0.904,0.039
			c0.091,0.007,0.179,0.015,0.263,0.024c0.796,0.086,1.589,0.192,2.382,0.307c0.212,0.031,0.424,0.065,0.636,0.098
			c0.611,0.095,1.221,0.196,1.83,0.306c0.114,0.021,0.229,0.036,0.342,0.057v0.005c0.903,0.167,1.804,0.343,2.701,0.539
			c2.792,0.609,6.014,1.332,8.891,0.849c1.958-0.329,3.731-0.919,5.759-0.913c2.05,0.005,4.123,0.35,6.028,1.12
			c2.496,1.009,4.562,2.839,5.858,5.199c0.406,0.74,0.742,1.524,0.983,2.333c0.035,0.119,0.131,0.89,0.232,0.949
			c1.815,1.059,0.302,3.025,0.302,3.025H90.155H51.341C51.871,341.897,57.315,341.594,57.315,341.594z"/>
		<g>
			
				<linearGradient id="SVGID_00000103952655356572568890000004391470922704380548_" gradientUnits="userSpaceOnUse" x1="416.3962" y1="346.2068" x2="416.3962" y2="340.7471">
				<stop  offset="0" style="stop-color:#FF5A24"/>
				<stop  offset="0.1112" style="stop-color:#FF5A2F"/>
				<stop  offset="0.4704" style="stop-color:#FF5A4C"/>
				<stop  offset="0.7792" style="stop-color:#FF5A5F"/>
				<stop  offset="1" style="stop-color:#FF5A65"/>
			</linearGradient>
			<path style="fill:url(#SVGID_00000103952655356572568890000004391470922704380548_);" d="M416.396,340.747
				c-1.508,0-2.73,1.222-2.73,2.73s1.222,2.73,2.73,2.73c1.508,0,2.73-1.222,2.73-2.73S417.904,340.747,416.396,340.747z"/>
			
				<linearGradient id="SVGID_00000106136684439324500320000001701430738627939736_" gradientUnits="userSpaceOnUse" x1="389.097" y1="346.2068" x2="389.097" y2="340.7471">
				<stop  offset="0" style="stop-color:#FF5A24"/>
				<stop  offset="0.1112" style="stop-color:#FF5A2F"/>
				<stop  offset="0.4704" style="stop-color:#FF5A4C"/>
				<stop  offset="0.7792" style="stop-color:#FF5A5F"/>
				<stop  offset="1" style="stop-color:#FF5A65"/>
			</linearGradient>
			<path style="fill:url(#SVGID_00000106136684439324500320000001701430738627939736_);" d="M389.097,340.747
				c-1.508,0-2.73,1.222-2.73,2.73s1.222,2.73,2.73,2.73c1.507,0,2.73-1.222,2.73-2.73S390.605,340.747,389.097,340.747z"/>
			
				<linearGradient id="SVGID_00000142861089605423017690000000826957416699883178_" gradientUnits="userSpaceOnUse" x1="405.7007" y1="343.4209" x2="405.7007" y2="319.5765">
				<stop  offset="0" style="stop-color:#FF5A24"/>
				<stop  offset="0.1112" style="stop-color:#FF5A2F"/>
				<stop  offset="0.4704" style="stop-color:#FF5A4C"/>
				<stop  offset="0.7792" style="stop-color:#FF5A5F"/>
				<stop  offset="1" style="stop-color:#FF5A65"/>
			</linearGradient>
			<path style="fill:url(#SVGID_00000142861089605423017690000000826957416699883178_);" d="M428.876,322.34
				c0-1.52-1.244-2.763-2.763-2.763h-44.391c-1.52,0-2.763,1.243-2.763,2.763v18.318c0,1.52,1.243,2.763,2.763,2.763h3.812
				c0.03-1.943,1.613-3.51,3.564-3.51c1.951,0,3.533,1.567,3.563,3.51h3.885h3.157h1.04h3.157h8.933
				c0.03-1.943,1.613-3.51,3.563-3.51c1.951,0,3.533,1.567,3.563,3.51h0.876h3.157h1.04h3.157h1.49c1.52,0,2.763-1.243,2.763-2.763
				L428.876,322.34z M411.048,320.707h5.237v6.223h-5.237V320.707z M405.143,320.707h5.237v6.223h-5.237V320.707z M387.426,320.707
				h5.237v6.223h-5.237V320.707z M381.495,323.208c0-1.376,1.126-2.501,2.501-2.501h2.762v6.223h-5.263V323.208z M380.601,331.499
				h4.624v4.624h-4.624V331.499z M385.783,341.415h-5.181v-0.446h5.181V341.415z M385.783,340.301h-5.181v-0.446h5.181V340.301z
				 M385.783,339.187h-5.181v-0.446h5.181V339.187z M385.783,338.073h-5.181v-0.446h5.181V338.073z M390.407,336.123h-4.624v-4.624
				h4.624V336.123z M395.616,336.123h-4.624v-4.624h4.624V336.123z M393.332,326.93v-6.223h5.237v6.223H393.332z M399.702,342.752
				h-3.157v-0.67h3.157V342.752z M399.702,341.414h-3.157v-9.916h3.157V341.414z M403.9,342.752h-3.157v-0.67h3.157V342.752z
				 M403.9,341.414h-3.157v-9.916h3.157V341.414z M404.474,326.93h-5.237v-6.223h5.237V326.93z M409.404,336.123h-4.624v-4.624
				h4.624V336.123z M414.586,336.123h-4.624v-4.624h4.624V336.123z M419.795,336.123h-4.624v-4.624h4.624V336.123z M416.953,326.93
				v-6.223h5.237v6.223H416.953z M423.993,342.752h-3.157v-0.67h3.157V342.752z M423.993,341.414h-3.157v-9.916h3.157V341.414z
				 M422.859,326.93v-6.223h1.318c1.376,0,2.501,1.125,2.501,2.501l0.725,3.722H422.859z M428.19,342.752h-3.157v-0.67h3.157
				V342.752z M428.19,341.414h-3.157v-9.916h3.157V341.414z"/>
		</g>
	</g>
</g>
</svg>
