<svg width="1440" height="481" viewBox="0 0 1440 481" fill="none" xmlns="http://www.w3.org/2000/svg">
<path d="M495.711 441.986V296.615H491.147V280.151H487.908V250.847H491.147V244.68H487.908V227.8H486.831C484.164 223.324 478.636 221.716 475.781 221.166C475.77 220.114 475.036 219.211 473.986 218.799V215.523C474.529 215.185 474.887 214.642 474.887 214.021C474.887 213.403 474.531 212.858 473.986 212.52V209.863L472.736 206.951C472.725 206.925 472.709 206.951 472.709 206.951L471.459 209.863V212.52C470.916 212.858 470.558 213.4 470.558 214.021C470.558 214.64 470.914 215.185 471.459 215.523V218.799C470.407 219.209 469.675 220.112 469.664 221.166C466.808 221.714 461.282 223.324 458.614 227.8H456.69V244.68H453.451V250.847H456.69V265.184H422.352H388.585V250.847H391.826V244.68H388.585V227.8H387.508C385.842 225.004 383.057 223.324 380.505 222.328C379.484 221.927 378.501 221.638 377.642 221.427C377.213 221.322 376.815 221.238 376.457 221.169C376.446 220.116 375.712 219.213 374.662 218.802V215.525C375.204 215.187 375.562 214.644 375.562 214.023C375.562 213.405 375.204 212.86 374.662 212.522V209.866L373.411 206.954C373.4 206.927 373.387 206.954 373.387 206.954L372.975 207.91L372.134 209.866V212.522C371.592 212.86 371.233 213.403 371.233 214.023C371.233 214.642 371.589 215.187 372.134 215.525V218.802C371.082 219.211 370.348 220.114 370.339 221.169C367.483 221.716 361.957 223.326 359.29 227.802H357.366V244.682H354.127V250.849H357.366V280.153H354.127V296.617H349.562V441.988H345.522V480.84H372.975H377.371H400.429H422.35H444.844H456.777H462.054H472.298H499.751V441.988H495.711V441.986Z" fill="url(#paint0_linear_339_8)"/>
<path d="M633.955 401.363H618.312C618.036 398.74 615.963 398.598 615.963 398.598V383.397H617.344V379.667H616.376V376.904H617.344V373.173H616.238V370.962H617.344V367.645L616.516 366.818L615.115 359.256H615.18V352.48L613.487 350.79L609.249 327.917L604.731 350.505L602.755 352.48V359.256H605.013V363.774H602.473V371.398H605.013V377.044H602.755V384.668H605.013V391.208C604.811 391.148 604.624 391.099 604.462 391.063C604.457 390.605 604.183 390.213 603.792 390.033V388.61C603.994 388.463 604.128 388.225 604.128 387.956C604.128 387.686 603.994 387.448 603.792 387.304V386.147L603.325 384.879C603.32 384.868 603.316 384.879 603.316 384.879L602.849 386.147V387.304C602.646 387.451 602.513 387.689 602.513 387.956C602.513 388.225 602.646 388.463 602.849 388.61V390.033C602.457 390.213 602.184 390.605 602.179 391.063C600.909 391.348 598.222 392.287 597.614 395.217C596.813 399.083 599.149 400.151 599.149 400.151H598.382V401.367H596.753C595.648 399.296 593.574 401.367 593.574 401.367H591.917C591.477 401.167 591.054 400.994 590.643 400.851C590.124 400.344 589.604 400.273 589.145 400.402C589.054 400.38 588.943 400.344 588.856 400.326C588.847 399.39 588.289 398.589 587.488 398.224V395.312C587.902 395.012 588.173 394.527 588.173 393.977C588.173 393.428 587.902 392.943 587.488 392.643V390.282L586.968 388.872C588.251 385.731 588.91 381.291 587.63 375.111C585.119 362.974 573.976 359.078 568.713 357.902C568.697 356.004 567.563 354.376 565.936 353.635V347.729C566.777 347.121 567.329 346.138 567.329 345.021C567.329 343.905 566.775 342.924 565.936 342.314V337.525L564.001 332.275C563.983 332.226 563.961 332.275 563.961 332.275L562.026 337.525V342.314C561.185 342.924 560.633 343.905 560.633 345.021C560.633 346.138 561.185 347.119 562.026 347.729V353.635C560.4 354.376 559.265 356.004 559.249 357.902C557.416 358.311 554.865 359.065 552.218 360.369C544.567 341.326 525.42 334.713 515.815 332.566C515.781 328.686 513.463 325.358 510.142 323.848V311.78C511.857 310.536 512.987 308.53 512.987 306.249C512.987 303.969 511.859 301.963 510.142 300.719V290.931L506.189 280.202C506.151 280.102 506.109 280.202 506.109 280.202L502.156 290.931V300.719C500.439 301.96 499.311 303.969 499.311 306.249C499.311 308.53 500.439 310.536 502.156 311.78V323.848C498.832 325.358 496.517 328.686 496.483 332.566C486.633 334.768 466.75 341.669 459.522 361.857C456.001 359.595 452.299 358.449 449.859 357.904C449.843 356.006 448.708 354.378 447.085 353.637V347.731C447.923 347.124 448.477 346.14 448.477 345.024C448.477 343.907 447.925 342.926 447.085 342.316V337.527L445.149 332.277C445.131 332.228 445.109 332.277 445.109 332.277L443.176 337.527V342.316C442.335 342.926 441.783 343.907 441.783 345.024C441.783 346.14 442.335 347.121 443.176 347.731V353.637C441.55 354.378 440.415 356.006 440.4 357.904C435.136 359.081 423.994 362.976 421.482 375.113C419.451 384.935 422.292 390.385 424.801 393.143C424.65 393.39 424.547 393.668 424.547 393.98C424.547 394.529 424.819 395.014 425.235 395.314V395.563H424.661V398.6C424.18 399.023 423.871 399.639 423.867 400.329C423.148 400.489 422.201 400.769 421.191 401.194C420.739 400.704 419.295 399.414 418.029 401.37H415.542C415.542 401.37 413.469 399.299 412.363 401.37H410.942V400.153H410.175C410.175 400.153 412.508 399.085 411.707 395.219C411.122 392.391 408.608 391.424 407.291 391.105V384.672H409.549V377.048H407.291V371.402H409.832V363.779H407.291V359.261H409.549V352.485L407.574 350.509L403.056 327.921L398.82 350.794L397.127 352.485V359.261H399.388V363.779H397.127V366.924L396.887 366.684L394.676 355.63L392.603 366.822L391.775 367.65V370.967H392.881V373.178H391.775V376.908H392.743V379.671H391.775V383.402H393.157V398.602C393.157 398.602 391.083 398.745 390.807 401.367H389.702V430.471H392.894V480.847H471.668H472.184C478.685 468.747 466.825 430.87 506.153 431.539C541.916 432.149 533.622 468.745 540.125 480.847H540.641H632.834H636.188V430.471H636.191V401.363H633.955ZM396.749 376.902H397.993V373.171H396.749V370.96H397.127V371.394H399.105V377.04H397.127V379.665H396.749V376.902ZM399.953 401.363H399.239C399.239 401.363 399.239 398.598 396.751 398.598V383.397H397.13V384.665H399.955L399.953 401.363ZM427.164 395.557V395.308C427.197 395.283 427.212 395.243 427.241 395.217C427.604 395.441 427.84 395.557 427.84 395.557H427.164ZM585.562 392.636C585.148 392.936 584.874 393.421 584.874 393.971C584.874 394.52 585.146 395.005 585.562 395.305V398.217C585.072 398.44 584.692 398.838 584.454 399.319V395.557H581.275C581.275 395.557 583.584 394.487 585.559 391.535V392.636H585.562ZM612.37 398.596C612.363 398.596 612.361 398.598 612.356 398.598V384.663H612.37V398.596ZM612.919 363.232V359.252H613.716L612.919 363.232Z" fill="url(#paint1_linear_339_8)"/>
<path d="M700.765 246.3H707.423V166.413H697.993V165.603V145.589H700.765V140.811H697.993V125.107V111.453H694.81L692.303 125.107H689.086L687.431 113.024H688.457V107.355H683.525V103.932V78.9098H685.91V73.8979H683.525L666.743 4.438H669.846L666.456 0L662.336 4.438H666.167L649.387 73.8979H647.002V78.9098H649.387V93.0581V107.355H644.455V113.024H645.48L643.823 125.107H640.606L638.099 111.453H634.916V125.107V127.156V140.811H632.144V145.589H634.916V146.465V166.413H625.486V246.3H632.144V282.102V323.114H627.537V327.212H632.144V332.328H627.537V336.426H632.144V414.268H627.537V418.365H632.144V423.486H627.29V427.584H632.144V480.842H700.765V427.584H705.123V423.486H700.765V418.365H705.372V414.268H700.765V336.426H705.372V332.328H700.765V327.212H705.372V323.114H700.765V316.827V246.3ZM687.38 162.382V152.076H689.847V162.832H688.862H687.38V162.382ZM681.839 160.703V152.076H684.306V161.45V162.832H681.839V160.703ZM676.422 89.9615H678.978V102.479V107.351H676.422V101.665V89.9615ZM676.3 159.021V152.076H678.767V159.771V162.834H676.3V159.021ZM670.687 89.9615H673.243V100.653V107.351H670.687V99.8385V89.9615ZM673.227 152.076V158.089V162.832H670.76V157.339V152.074H673.227V152.076ZM667.688 152.076V156.409V162.834H665.221V155.662V152.078L667.688 152.076ZM664.952 89.9615H667.508V98.8264V107.351H664.952V98.0122V89.9615ZM662.149 152.076V154.727V162.832H659.682V153.978V152.074H662.149V152.076ZM659.219 89.9615H661.775V97V107.351H659.219V96.1858V89.9615ZM656.608 152.076V153.048V162.834H654.141V152.301V152.078L656.608 152.076ZM653.484 94.3594V89.9615H656.04V95.1736V107.351H653.484V94.3594ZM648.601 152.076H651.068V162.832H648.601V152.076ZM643.062 152.076H645.529V162.832H643.062V152.076ZM645.374 470.127H642.393V427.584H645.374V470.127ZM645.374 423.484H642.393V418.363H645.374V423.484ZM645.374 414.268H642.393V336.426H645.374V414.268ZM645.374 332.328H642.393V327.212H645.374V332.328ZM645.374 288.798V323.116H642.393V287.289V264.737H645.374V288.798ZM645.374 260.127H642.393V255.004H645.374V260.127ZM651.6 470.127H648.619V427.584H651.6V470.127ZM651.6 423.484H648.619V418.363H651.6V423.484ZM651.6 414.268H648.619V336.426H651.6V414.268ZM651.6 332.328H648.619V327.212H651.6V332.328ZM651.6 291.948V323.114H648.619V290.439V264.737H651.6V291.948ZM651.6 260.127H648.619V255.004H651.6V260.127ZM657.829 470.127H654.848V427.584H657.829V470.127ZM657.829 423.484H654.848V418.363H657.829V423.484ZM657.829 414.268H654.848V336.426H657.829V414.268ZM657.829 332.328H654.848V327.212H657.829V332.328ZM657.829 295.1V323.114H654.848V293.592V264.737H657.829V295.1ZM657.829 260.127H654.848V255.004H657.829V260.127ZM664.056 470.127H661.075V427.584H664.056V470.127ZM664.056 423.484H661.075V418.363H664.056V423.484ZM664.056 414.268H661.075V336.426H664.056V414.268ZM664.056 332.328H661.075V327.212H664.056V332.328ZM664.056 298.252V323.116H661.075V296.744V264.737H664.056V298.252ZM664.056 260.127H661.075V255.004H664.056V260.127ZM670.389 470.127H667.408V427.584H670.389V470.127ZM670.389 423.484H667.408V418.363H670.389V423.484ZM670.389 414.268H667.408V336.426H670.389V414.268ZM670.389 332.328H667.408V327.212H670.389V332.328ZM670.389 301.456V323.114H667.408V299.947V264.735H670.389V301.456ZM670.389 260.127H667.408V255.004H670.389V260.127ZM676.618 470.127H673.637V427.584H676.618V470.127ZM676.618 423.484H673.637V418.363H676.618V423.484ZM676.618 414.268H673.637V336.426H676.618V414.268ZM676.618 332.328H673.637V327.212H676.618V332.328ZM676.618 304.608V323.114H673.637V303.099V264.737H676.618V304.608ZM676.618 260.127H673.637V255.004H676.618V260.127ZM682.844 470.127H679.863V427.584H682.844V470.127ZM682.844 423.484H679.863V418.363H682.844V423.484ZM682.844 414.268H679.863V336.426H682.844V414.268ZM682.844 332.328H679.863V327.212H682.844V332.328ZM682.844 307.76V323.116H679.863V306.252V264.737H682.844V307.76ZM682.844 260.127H679.863V255.004H682.844V260.127ZM689.073 470.127H686.092V427.584H689.073V470.127ZM689.073 423.484H686.092V418.363H689.073V423.484ZM689.073 414.268H686.092V336.426H689.073V414.268ZM689.073 332.328H686.092V327.212H689.073V332.328ZM689.073 310.91V323.114H686.092V309.402V264.735H689.073V310.91ZM689.073 260.127H686.092V255.004H689.073V260.127ZM631.121 240.834V171.881H701.789V240.834H631.121Z" fill="url(#paint2_linear_339_8)"/>
<path d="M634.916 237.083H697.994V175.632H634.916V237.083ZM666.454 177.812C682.192 177.812 694.999 190.616 694.999 206.357C694.999 222.099 682.195 234.903 666.454 234.903C650.713 234.903 637.908 222.099 637.908 206.357C637.908 190.616 650.713 177.812 666.454 177.812Z" fill="url(#paint3_linear_339_8)"/>
<path d="M666.456 228.872C678.869 228.872 688.968 218.773 688.968 206.357C688.968 193.944 678.869 183.843 666.456 183.843C654.041 183.843 643.941 193.942 643.941 206.357C643.941 218.771 654.041 228.872 666.456 228.872ZM664.916 187.664H667.989V204.82H686.595V207.892H664.916V187.664Z" fill="url(#paint4_linear_339_8)"/>
<path d="M666.454 231.831C680.499 231.831 691.927 220.403 691.927 206.358C691.927 192.312 680.499 180.884 666.454 180.884C652.408 180.884 640.98 192.312 640.98 206.358C640.98 220.403 652.408 231.831 666.454 231.831ZM666.456 182.819C679.434 182.819 689.992 193.379 689.992 206.358C689.992 219.338 679.434 229.896 666.456 229.896C653.475 229.896 642.918 219.338 642.918 206.358C642.915 193.377 653.475 182.819 666.456 182.819Z" fill="url(#paint5_linear_339_8)"/>
<path d="M1332.21 323.069H1325.49L1324.67 276.736L1324.39 260.374H1328.24V247.797H1324.17L1323.65 218.125H1326.26V205.548H1323.42L1323.14 189.315L1322.9 175.876H1324.28V163.299H1322.68L1322.34 143.678H1324.28V131.1H1318.71C1317.56 119.978 1308.89 111.11 1297.88 109.609V99.2868H1298.7V91.6655H1296.99L1293.91 78.4649H1293.26L1290.18 91.6655H1288.47V99.2868H1289.3V109.954C1288.89 110.045 1288.48 110.154 1288.08 110.267C1278.62 112.894 1271.48 121.083 1270.44 131.103H1264.88V143.68H1266.82L1266.47 163.301H1264.88V175.879H1266.25L1266.21 178.348L1265.74 205.55H1262.9V218.128H1265.52L1265 247.799H1260.92V260.377H1264.77L1264.76 261.124L1263.67 323.072H1256.95V335.649H1263.45L1262.93 365.57H1237.06H1191.45H1163.84L1163.32 335.649H1169.82V323.072H1163.1L1162.29 276.738L1162 260.377H1165.86V247.799H1161.78L1161.26 218.128H1163.88V205.55H1161.04L1160.75 189.317L1160.52 175.879H1161.89V163.301H1160.3L1159.95 143.68H1161.89V131.103H1156.33C1155.18 119.98 1146.51 111.113 1135.49 109.611V99.289H1136.32V91.6677H1134.6L1131.53 78.4671H1130.87L1127.8 91.6677H1126.08V99.289H1126.91V109.956C1126.5 110.047 1126.09 110.156 1125.69 110.27C1116.23 112.897 1109.09 121.085 1108.06 131.105H1102.49V143.682H1104.43L1104.09 163.303H1102.49V175.881H1103.87L1103.83 178.35L1103.35 205.552H1100.51V218.13H1103.13L1102.61 247.801H1098.53V260.379H1102.39L1102.37 261.126L1101.29 323.074H1094.56V335.652H1101.07L1098.52 480.845H1165.86L1164.27 389.931H1181.44H1247.07H1262.5L1260.91 480.845H1328.25L1326.52 382.339L1325.71 335.652H1332.21V323.069ZM1147.73 323.069V295.458V260.374H1151.34V297.442V323.069H1147.73ZM1151.34 163.301H1147.73V149.137H1151.34V163.301ZM1147.73 247.797V218.125H1151.34V247.797H1147.73ZM1139.06 159.848V149.137H1142.67V161.481V163.299H1139.06V159.848ZM1142.67 205.548H1139.06V200.316V175.876H1142.67V202.3V205.548ZM1134 157.559V163.301H1130.39V155.927V149.139H1134V157.559ZM1130.39 175.876H1134V197.537V205.548H1130.39V195.553V175.876ZM1130.39 218.125H1134V241.37V247.797H1130.39V239.386V218.125ZM1139.06 247.797V244.148V218.125H1142.67V246.133V247.797H1139.06ZM1147.73 205.548V205.078V175.876H1151.34V205.548H1147.73ZM1121.72 152.002V149.137H1125.33V153.637V163.301H1121.72V152.002ZM1121.72 190.792V175.876H1125.33V192.776V205.548H1121.72V190.792ZM1121.72 234.625V218.125H1125.33V236.609V247.799H1121.72V234.625ZM1121.72 281.172V260.372H1125.33V283.156V323.067H1121.72V281.172ZM1130.39 285.935V260.374H1134V287.919V323.069H1130.39V285.935ZM1139.06 323.069V290.697V260.374H1142.67V292.682V323.069H1139.06ZM1113.05 149.137H1115.39H1116.66V163.301H1113.05V149.137ZM1113.05 186.032V175.879H1116.66V205.55H1113.05V186.032ZM1113.05 229.862V218.125H1116.66V247.797H1113.05V229.862ZM1113.05 276.411V260.374H1116.66V323.069H1113.05V276.411ZM1113.05 470.278V354.269V335.645H1116.66V470.276H1113.05V470.278ZM1125.33 470.278H1121.72V359.032V335.645H1125.33V361.016V470.278ZM1134 470.278H1130.39V363.795V335.647H1134V365.779V470.278ZM1142.67 470.278H1139.06V368.557V335.647H1142.67V370.542V470.278ZM1151.34 470.278H1147.73V373.318V335.645H1151.34V375.302V470.278ZM1180.14 386.356H1170.48V369.138H1180.14L1180.14 386.356ZM1195.65 386.356H1185.99V378.868V369.138H1189.99H1195.65L1195.65 386.356ZM1211.17 386.356H1201.5V369.138H1211.17V386.356ZM1226.68 386.356H1217.01V369.138H1226.68V386.356ZM1242.19 386.356H1232.53V369.138H1238.52H1242.19V378.067V386.356ZM1257.71 386.356H1248.04V369.138H1257.71V386.356ZM1310.11 323.069V295.458V260.374H1313.73V297.442V323.069H1310.11ZM1313.72 163.301H1310.11V149.137H1313.72V163.301ZM1310.11 247.797V218.125H1313.73V247.797H1310.11ZM1301.45 159.848V149.137H1305.06V161.481V163.299H1301.45V159.848ZM1305.06 205.548H1301.44V200.316V175.876H1305.06V202.3V205.548ZM1296.39 157.559V163.301H1292.78V155.927V149.139H1296.39V157.559ZM1292.78 175.876H1296.39V197.537V205.548H1292.78V195.553V175.876ZM1292.78 218.125H1296.39V241.37V247.797H1292.78V239.386V218.125ZM1301.45 247.797V244.148V218.125H1305.06V246.133V247.797H1301.45ZM1310.11 205.548V205.078V175.876H1313.73V205.548H1310.11ZM1284.11 152.002V149.137H1287.72V153.637V163.301H1284.11V152.002ZM1284.11 190.792V175.876H1287.72V192.776V205.548H1284.11V190.792ZM1284.11 234.625V218.125H1287.72V236.609V247.799H1284.11V234.625ZM1284.11 281.172V260.372H1287.72V283.156V323.067H1284.11V281.172ZM1292.78 285.935V260.374H1296.39V287.919V323.069H1292.78V285.935ZM1301.45 323.069V290.697V260.374H1305.06V292.682V323.069H1301.45ZM1275.44 149.137H1277.78H1279.05V163.301H1275.44V149.137ZM1275.44 186.032V175.879H1279.05V205.55H1275.44V186.032ZM1275.44 229.862V218.125H1279.05V247.797H1275.44V229.862ZM1275.44 276.411V260.374H1279.05V323.069H1275.44V276.411ZM1275.44 470.278V354.269V335.645H1279.05V470.276H1275.44V470.278ZM1287.72 470.278H1284.11V359.032V335.645H1287.72V361.016V470.278ZM1296.39 470.278H1292.78V363.795V335.647H1296.39V365.779V470.278ZM1305.06 470.278H1301.44V368.557V335.647H1305.06V370.542V470.278ZM1313.72 470.278H1310.11V373.318V335.645H1313.72V375.302V470.278Z" fill="url(#paint6_linear_339_8)"/>
<path d="M965.851 432.872L955.365 423.153H955.316V418.552V390.656H960.179C962.508 387.346 960.179 383.482 960.179 383.482L951.249 375.204H951.123V372.034V348.365H955.249C957.227 345.555 955.249 342.279 955.249 342.279L947.672 335.256H947.637V331.932V311.778H951.149C952.833 309.386 951.149 306.594 951.149 306.594L944.756 300.668V297.563V280.309H947.763C949.205 278.262 947.763 275.873 947.763 275.873L942.24 270.754H942.213V268.332V253.641H944.774C946.002 251.897 944.774 249.863 944.774 249.863L940.071 245.503H940.004V243.833V231.366H942.178C943.219 229.887 942.178 228.16 942.178 228.16L938.187 224.461H938.167V222.71V212.095H940.018C940.903 210.836 940.018 209.365 940.018 209.365L936.618 206.215H936.561V204.8V195.804H938.129C938.881 194.736 938.129 193.491 938.129 193.491L935.248 190.821H935.235V189.558V181.896H936.569C937.21 180.986 936.569 179.925 936.569 179.925L934.116 177.652H934.08V176.78V170.279H935.212C935.755 169.508 935.212 168.609 935.212 168.609L933.132 166.68H933.121V165.766V160.231H934.087C934.55 159.575 934.087 158.807 934.087 158.807L932.314 157.166L929.489 150.287H928.052L927.502 134.967L926.953 150.287H925.765L922.94 157.166L921.166 158.807C921.166 158.807 920.704 159.575 921.166 160.231H922.132V161.617V166.68H922.123L920.043 168.609C920.043 168.609 919.5 169.51 920.043 170.279H921.175V171.908V177.652H921.14L918.688 179.925C918.688 179.925 918.048 180.986 918.688 181.896H920.023V183.816V190.821H920.01L917.129 193.491C917.129 193.491 916.377 194.736 917.129 195.804H918.697V198.058V206.215H918.639L915.242 209.365C915.242 209.365 914.357 210.836 915.242 212.095H917.093V214.755V224.461H917.073L913.082 228.16C913.082 228.16 912.041 229.887 913.082 231.366H915.256V234.489V245.501H915.189L910.486 249.861C910.486 249.861 909.258 251.894 910.486 253.638H913.047V257.32V270.754H913.02L907.497 275.873C907.497 275.873 906.055 278.262 907.497 280.309H910.504V284.631V300.668L904.109 306.594C904.109 306.594 902.425 309.386 904.109 311.778H907.621V316.827V335.258H907.586L900.009 342.281C900.009 342.281 898.033 345.558 900.009 348.367H904.135V354.296V375.207H904.006L895.077 383.484C895.077 383.484 892.748 387.346 895.077 390.658H899.94V397.648V423.157H899.891L889.404 432.876C889.404 432.876 886.668 437.412 889.404 441.301H895.115V449.507V480.845H960.136V474.06V441.301H965.847C968.588 437.408 965.851 432.872 965.851 432.872ZM924.11 398.284H924.134C924.261 395.33 925.972 392.981 928.083 392.981C930.194 392.981 931.902 395.33 932.031 398.284H932.056V409.767V416.688H924.112V406.766L924.11 398.284ZM940.72 417.872H950.951V419.411H940.72V417.872ZM922.846 417.872H933.077V419.411H922.846V417.872ZM949.93 416.688H941.986V413.516V398.282H942.011C942.138 395.328 943.848 392.979 945.959 392.979C948.07 392.979 949.781 395.328 949.908 398.282H949.932V416.517L949.93 416.688ZM924.644 354.838H924.664C924.77 352.331 926.223 350.338 928.014 350.338C929.804 350.338 931.255 352.329 931.364 354.838H931.384V364.582V370.455H924.644V362.037V354.838ZM938.738 371.456H947.419V372.762H938.738V371.456ZM923.571 371.456H932.252V372.762H923.571V371.456ZM946.551 370.453H939.811V367.763V354.838H939.831C939.937 352.331 941.39 350.338 943.181 350.338C944.972 350.338 946.422 352.329 946.531 354.838H946.551V370.308V370.453ZM925.086 317.288H925.104C925.195 315.152 926.432 313.457 927.956 313.457C929.482 313.457 930.717 315.152 930.808 317.288H930.826V325.585V330.586H925.086V323.419V317.288ZM937.088 331.44H944.48V332.553H937.088V331.44ZM924.174 331.44H931.566V332.553H924.174V331.44ZM943.741 330.586H938.002V328.295V317.288H938.02C938.111 315.152 939.348 313.457 940.872 313.457C942.398 313.457 943.632 315.152 943.724 317.288H943.741V330.462V330.586ZM925.453 285.025H925.469C925.547 283.196 926.606 281.746 927.911 281.746C929.217 281.746 930.274 283.199 930.354 285.025H930.37V292.128V296.408H925.455V290.273V285.025H925.453ZM924.672 298.09V297.138H930.999V298.09H924.672ZM942.055 298.09H935.726V297.138H942.055V298.09ZM913.207 298.09V297.138H919.534V298.09H913.207ZM941.421 296.406H936.507V294.444V285.023H936.523C936.601 283.194 937.657 281.744 938.965 281.744C940.271 281.744 941.328 283.196 941.408 285.023H941.423V296.299V296.406H941.421ZM925.776 257.654H925.789C925.856 256.097 926.757 254.862 927.869 254.862C928.981 254.862 929.882 256.099 929.949 257.654H929.962V263.702V267.346H925.778V262.123V257.654H925.776ZM934.525 267.969H939.913V268.781H934.525V267.969ZM925.111 267.969H930.499V268.781H925.111V267.969ZM939.375 267.346H935.19V265.676V257.652H935.204C935.27 256.094 936.171 254.86 937.284 254.86C938.396 254.86 939.297 256.097 939.363 257.652H939.377V267.255L939.375 267.346ZM926.058 234.772H926.069C926.127 233.45 926.89 232.403 927.834 232.403C928.777 232.403 929.54 233.453 929.598 234.772H929.609V239.904V242.996H926.058V238.563V234.772ZM933.479 243.526H938.051V244.213H933.479V243.526ZM925.493 243.526H930.065V244.213H925.493V243.526ZM937.595 242.996H934.045V241.579V234.772H934.056C934.113 233.45 934.876 232.403 935.82 232.403C936.763 232.403 937.528 233.453 937.584 234.772H937.595V242.92V242.996ZM926.29 214.995H926.299C926.348 213.87 926.997 212.978 927.8 212.978C928.603 212.978 929.255 213.872 929.302 214.995H929.311V219.365V221.998H926.287V218.223V214.995H926.29ZM932.612 222.45H936.505V223.035H932.612V222.45ZM925.809 222.45H929.702V223.035H925.809V222.45ZM936.116 221.998H933.092V220.793V214.995H933.101C933.15 213.87 933.8 212.978 934.603 212.978C935.406 212.978 936.058 213.872 936.105 214.995H936.113V221.934L936.116 221.998ZM926.494 198.26H926.501C926.541 197.308 927.093 196.549 927.773 196.549C928.454 196.549 929.006 197.306 929.046 198.26H929.055V201.964V204.195H926.492V200.996V198.26H926.494ZM931.853 204.578H935.152V205.074H931.853V204.578ZM926.087 204.578H929.386V205.074H926.087V204.578ZM934.823 204.197H932.26V203.174V198.26H932.267C932.307 197.308 932.859 196.549 933.54 196.549C934.22 196.549 934.772 197.306 934.812 198.26H934.821V204.142V204.197H934.823ZM926.663 183.989H926.67C926.706 183.177 927.175 182.532 927.753 182.532C928.334 182.532 928.803 183.177 928.837 183.989H928.844V187.144V189.044H926.663V186.319V183.989ZM931.226 189.368H934.036V189.791H931.226V189.368ZM926.316 189.368H929.126V189.791H926.316V189.368ZM933.755 189.044H931.573V188.172V183.987H931.58C931.615 183.175 932.085 182.53 932.663 182.53C933.244 182.53 933.713 183.175 933.746 183.987H933.753V188.995V189.044H933.755ZM926.81 172.057H926.817C926.846 171.367 927.244 170.822 927.736 170.822C928.227 170.822 928.625 171.369 928.657 172.057H928.663V174.733V176.346H926.812V174.035V172.057H926.81ZM930.681 176.622H933.066V176.98H930.681V176.622ZM926.514 176.622H928.899V176.98H926.514V176.622ZM932.828 176.346H930.977V175.607V172.057H930.984C931.012 171.367 931.411 170.822 931.902 170.822C932.394 170.822 932.792 171.369 932.823 172.057H932.83V176.306V176.346H932.828ZM926.933 161.744H926.937C926.964 161.157 927.302 160.692 927.72 160.692C928.138 160.692 928.479 161.159 928.503 161.744H928.508V164.024V165.397H926.93V163.428V161.744H926.933ZM930.229 165.63H932.26V165.935H930.229V165.63ZM926.681 165.63H928.712V165.935H926.681V165.63ZM932.056 165.397H930.481V164.767V161.744H930.485C930.51 161.157 930.85 160.692 931.268 160.692C931.686 160.692 932.027 161.159 932.051 161.744H932.056V165.363V165.397ZM923.253 161.744H923.258C923.282 161.157 923.622 160.692 924.041 160.692C924.459 160.692 924.799 161.159 924.824 161.744H924.828V162.634V165.397H923.251V162.04V161.744H923.253ZM925.033 165.63V165.935H923.002V165.63H925.033ZM922.49 172.057H922.497C922.526 171.367 922.924 170.822 923.418 170.822C923.909 170.822 924.308 171.369 924.339 172.057H924.345V173.102V176.346H922.495V172.404V172.057H922.49ZM924.581 176.622V176.98H922.196V176.622H924.581ZM921.571 183.989H921.578C921.614 183.177 922.083 182.532 922.661 182.532C923.242 182.532 923.711 183.177 923.745 183.989H923.751V185.22V189.044H921.569V184.397V183.989H921.571ZM924.036 189.368V189.791H921.227V189.368H924.036ZM920.517 198.26H920.524C920.564 197.308 921.115 196.549 921.796 196.549C922.477 196.549 923.028 197.306 923.069 198.26H923.075V199.706V204.195H920.513V198.738V198.26H920.517ZM923.409 204.578V205.074H920.11V204.578H923.409ZM919.236 214.995H919.244C919.293 213.87 919.943 212.978 920.746 212.978C921.549 212.978 922.201 213.872 922.248 214.995H922.257V216.702V221.998H919.233V215.561V214.995H919.236ZM922.648 222.45V223.035H918.755V222.45H922.648ZM917.774 234.772H917.785C917.843 233.45 918.606 232.403 919.549 232.403C920.492 232.403 921.258 233.453 921.313 234.772H921.324V236.776V242.996H917.774V235.435V234.772ZM921.78 243.526V244.213H917.209V243.526H921.78ZM916.012 257.654H916.026C916.092 256.097 916.993 254.862 918.106 254.862C919.218 254.862 920.119 256.099 920.185 257.654H920.199V260.016V267.346H916.014V258.435V257.654H916.012ZM920.737 267.969V268.781H915.349V267.969H920.737ZM913.988 285.025H914.003C914.081 283.196 915.14 281.746 916.446 281.746C917.752 281.746 918.808 283.199 918.889 285.025H918.904V287.799V296.408H913.99V285.944V285.025H913.988ZM911.692 317.288H911.71C911.801 315.152 913.038 313.457 914.562 313.457C916.088 313.457 917.322 315.152 917.414 317.288H917.431V320.529V330.586H911.692V318.36V317.288ZM918.172 331.44V332.553H910.78V331.44H918.172ZM908.914 354.838H908.934C909.04 352.331 910.493 350.338 912.284 350.338C914.075 350.338 915.525 352.329 915.634 354.838H915.654V358.642V370.453H908.914V356.098V354.838ZM916.524 371.456V372.762H907.844V371.456H916.524ZM905.572 398.284H905.597C905.724 395.33 907.434 392.981 909.545 392.981C911.656 392.981 913.367 395.33 913.494 398.284H913.518V402.769V416.69H905.575V399.77V398.284H905.572ZM914.54 417.872V419.411H904.309V417.872H914.54ZM932.825 463.74V471.866H923.496V460.216V450.252H923.525C923.674 446.782 925.682 444.026 928.161 444.026C930.639 444.026 932.648 446.784 932.797 450.252H932.825V463.74ZM901.726 450.255H901.755C901.904 446.784 903.913 444.028 906.391 444.028C908.871 444.028 910.878 446.786 911.027 450.255H911.056V455.52V471.866H901.726V451.996V450.255ZM912.257 475.065H900.242V473.257H912.257V475.065ZM934.027 475.065H922.012V473.257H934.027V475.065ZM955.018 475.065H943.003V473.257H955.018V475.065ZM953.816 471.866H944.487V468.142V450.252H944.516C944.665 446.782 946.673 444.026 949.152 444.026C951.632 444.026 953.638 446.784 953.788 450.252H953.816V471.664V471.866Z" fill="url(#paint7_linear_339_8)"/>
<path d="M280.52 422.705H286.162V414.074H280.284V405.14H283.105V401.27H280.284H272.056L256.809 341.547H259.536V339.077H256.177L252.62 325.147H255.3V322.678H252.003C250.609 308.432 237.39 173.254 236.919 159.702H238.418V151.233V146.359H239.259V143.184H238.418V138.713H239.259V135.538H236.205V131.665H236.79V129.456H232.823L231.101 111.446L229.473 129.456H225.507V131.665H226.394V135.538H223.04V138.713H224.314V143.184H223.04V146.359H224.314V151.233V159.702H225.38C224.908 173.254 211.69 308.432 210.295 322.678H206.998V325.147H209.679L206.124 339.077H202.765V341.547H205.494L190.247 401.27H182.019H179.198V405.14H182.019V414.074H176.141V422.705H181.783L160.625 480.84H186.91C186.91 456.405 206.718 436.6 231.15 436.6C255.585 436.6 275.39 456.408 275.39 480.84H301.676L280.52 422.705ZM222.325 318.598L229.088 162.38L230.496 162.44L223.734 318.658L222.325 318.598ZM231.924 162.44L233.333 162.38L240.095 318.598L238.687 318.658L231.924 162.44ZM245.597 318.678L234.311 162.46L235.717 162.358L247.003 318.576L245.597 318.678ZM226.583 162.36L227.989 162.462L216.704 318.68L215.298 318.578L226.583 162.36ZM230.846 363.763H231.455H240.289L248.818 397.172H213.483L222.012 363.763H230.846ZM223.164 359.437V356.36H239.139V359.437H223.164ZM271.117 405.14V414.074H268.766V405.14H271.117ZM265.945 405.14V414.074H263.593V405.14H265.945ZM260.773 405.14V414.074H258.421V405.14H260.773ZM255.601 405.14V414.074H253.249V405.14H255.601ZM250.428 405.14V414.074H248.077V405.14H250.428ZM245.256 405.14V414.074H242.905V405.14H245.256ZM240.084 405.14V414.074H237.733V405.14H240.084ZM234.912 405.14V414.074H232.561V405.14H234.912ZM229.74 405.14V414.074H227.389V405.14H229.74ZM224.568 405.14V414.074H222.216V405.14H224.568ZM219.398 405.14V414.074H217.047V405.14H219.398ZM214.226 405.14V414.074H211.874V405.14H214.226ZM209.054 405.14V414.074H206.702V405.14H209.054ZM203.882 405.14V414.074H201.53V405.14H203.882ZM198.709 405.14V414.074H196.358V405.14H198.709ZM193.537 405.14V414.074H191.186V405.14H193.537ZM276.289 414.074H273.938V405.14H276.289V414.074ZM186.014 405.14H188.365V414.074H186.014V405.14ZM231.15 432.138C204.58 432.138 182.964 453.754 182.964 480.324H181.631C181.631 453.02 203.846 430.805 231.15 430.805C258.455 430.805 280.669 453.02 280.669 480.324H279.337C279.337 453.754 257.721 432.138 231.15 432.138Z" fill="url(#paint8_linear_339_8)"/>
<path d="M334.392 272.821C334.392 263.816 327.697 256.392 319.019 255.209L318.858 249.872H320.449C320.907 249.872 321.283 249.496 321.283 249.036C321.283 248.578 320.907 248.202 320.449 248.202H319.641L319.134 232.825L319.061 230.628H320.449C320.907 230.628 321.283 230.252 321.283 229.793C321.283 229.333 320.907 228.959 320.449 228.959H318.227L316.827 182.639L315.433 228.959H313.212C312.754 228.959 312.378 229.335 312.378 229.793C312.378 230.254 312.754 230.628 313.212 230.628H314.601L314.104 248.202H313.212C312.754 248.202 312.378 248.578 312.378 249.036C312.378 249.496 312.754 249.872 313.212 249.872H314.803L314.645 255.138C305.736 256.11 298.799 263.653 298.799 272.823C298.799 280.843 304.105 287.619 311.395 289.843L307.219 480.842H311.439H314.251H319.408H321.75H325.973L321.797 289.843C329.087 287.614 334.392 280.838 334.392 272.821Z" fill="url(#paint9_linear_339_8)"/>
<path d="M581.924 108.884C582.218 108.648 582.521 108.399 582.823 108.141C585.335 105.987 587.054 103.872 586.663 103.416C586.271 102.957 583.918 104.332 581.404 106.486C581.393 106.494 581.382 106.506 581.368 106.517L580.363 102.226C580.814 101.883 581.284 101.503 581.76 101.095C584.271 98.9421 585.991 96.8265 585.6 96.3683C585.208 95.9122 582.854 97.287 580.343 99.4404C580.163 99.5916 579.989 99.7452 579.82 99.8987L579.075 96.7175C579.46 96.4083 579.847 96.088 580.238 95.7521C584.12 92.4263 586.774 89.1584 586.169 88.451C585.573 87.7547 582.031 89.8102 578.214 93.0514L576.452 85.5457C587.786 75.0591 595.154 66.4968 593.841 64.964C592.531 63.4335 582.99 69.3665 570.942 78.9121L564.184 76.1803C567.836 72.9792 570.288 69.9204 569.703 69.2374C569.098 68.5322 565.461 70.6567 561.581 73.9802C561.274 74.2427 560.978 74.5052 560.687 74.7677L557.674 73.5487C557.768 73.473 557.861 73.3952 557.955 73.3151C560.466 71.1617 562.186 69.0461 561.794 68.5901C561.403 68.1318 559.049 69.5066 556.536 71.66C556.148 71.9915 555.784 72.3229 555.437 72.6455L551.363 70.9993C553.759 68.9127 555.374 66.9017 554.992 66.459C554.6 66.0007 552.247 67.3755 549.733 69.5288C549.515 69.7157 549.306 69.9003 549.101 70.085L527.656 61.4181C527.403 61.8563 528.31 62.9909 529.672 63.9363L561.937 86.3355C561.877 86.3866 561.819 86.4356 561.759 86.4867C554.787 92.4575 548.638 98.2302 544.038 103.011L529.93 104.539C529.774 104.913 529.968 105.396 530.359 105.611L537.998 109.836C535.958 112.459 535.04 114.263 535.576 114.888C536.112 115.513 538.036 114.881 540.941 113.268L543.947 121.466C544.1 121.884 544.55 122.151 544.941 122.055L548.612 108.348C554.04 104.532 560.684 99.3403 567.656 93.3696C567.701 93.3317 567.741 93.2961 567.783 93.2583L584.863 128.344C585.588 129.835 586.569 130.902 587.043 130.72L581.924 108.884Z" fill="#FF5A65"/>
<path d="M1434.01 276.224V283.058H1430.03V274.474V249.214C1430.03 240.449 1423.78 233.144 1415.5 231.491C1415.53 231.473 1415.55 231.457 1415.57 231.442C1415.25 231.342 1414.92 231.279 1414.57 231.235L1414.2 227.355H1415.69C1416.53 227.355 1417.2 226.679 1417.2 225.842C1417.2 225.008 1416.52 224.332 1415.69 224.332H1413.91L1412.33 207.759H1412.75L1412.29 206.224L1411.72 207.759H1412.25L1411.07 220.03L1410.66 224.332H1408.88C1408.05 224.332 1407.37 225.008 1407.37 225.842C1407.37 226.679 1408.05 227.355 1408.88 227.355H1410.37L1410 231.246C1408.62 231.393 1407.29 231.711 1406.02 232.154C1398.95 234.61 1393.87 241.312 1393.87 249.216V253.618V283.061H1390.81V276.227H1384.82V283.061V288.704V294.35H1390.81H1391.39L1383.8 480.842H1438.9L1438.75 476.313L1438.9 476.874L1432.83 294.352H1434.01H1440V288.707V283.063V276.229H1434.01V276.224ZM1415.5 274.865H1408.82V274.158H1415.5V274.865ZM1427.18 274.865H1420.5V274.158H1427.18V274.865ZM1414.83 259.184V273.615H1409.65V257.807V253.91H1409.66C1409.74 252.551 1410.86 251.474 1412.24 251.474C1413.62 251.474 1414.73 252.551 1414.82 253.91H1414.83L1414.83 259.184ZM1403.4 274.865H1396.72V274.158H1403.4V274.865ZM1426.51 273.615H1421.32V272.158V253.908H1421.33C1421.42 252.548 1422.53 251.472 1423.91 251.472C1425.29 251.472 1426.41 252.548 1426.49 253.908H1426.51V273.535V273.615ZM1397.54 253.908H1397.56C1397.64 252.548 1398.76 251.472 1400.14 251.472C1401.51 251.472 1402.63 252.548 1402.71 253.908H1402.73V255.968V273.613H1397.54V254.588V253.908Z" fill="url(#paint10_linear_339_8)"/>
<path d="M600.898 332.321C601.211 332.384 601.521 332.473 601.832 332.546C602.301 332.655 602.773 332.757 603.236 332.891C603.567 332.987 603.894 333.107 604.223 333.213C604.659 333.356 605.098 333.489 605.527 333.649C605.861 333.774 606.19 333.925 606.522 334.063C606.94 334.237 607.358 334.401 607.769 334.593C608.103 334.748 608.432 334.926 608.764 335.093C609.164 335.296 609.567 335.491 609.965 335.712C610.299 335.896 610.626 336.103 610.955 336.299C611.342 336.53 611.731 336.755 612.114 337.002C612.443 337.213 612.766 337.447 613.091 337.671C613.467 337.929 613.843 338.183 614.214 338.457C614.537 338.695 614.855 338.951 615.175 339.202C615.54 339.489 615.909 339.771 616.27 340.072C616.585 340.334 616.895 340.612 617.208 340.886C617.566 341.2 617.922 341.509 618.276 341.834C618.585 342.121 618.892 342.423 619.199 342.721C619.546 343.057 619.893 343.393 620.236 343.742C620.539 344.051 620.839 344.374 621.139 344.694C621.477 345.055 621.818 345.415 622.151 345.789C622.447 346.12 622.741 346.463 623.034 346.803C623.364 347.186 623.695 347.569 624.02 347.965C624.311 348.318 624.598 348.681 624.885 349.043C625.206 349.448 625.526 349.851 625.844 350.267C626.129 350.638 626.407 351.019 626.687 351.399C627.001 351.824 627.312 352.249 627.621 352.685C627.9 353.077 628.175 353.479 628.449 353.88C628.754 354.322 629.056 354.765 629.354 355.219C629.626 355.628 629.893 356.044 630.16 356.46C630.458 356.923 630.754 357.388 631.045 357.859C631.308 358.284 631.57 358.714 631.83 359.145C632.12 359.626 632.407 360.106 632.694 360.596C632.949 361.034 633.205 361.479 633.459 361.926C633.739 362.422 634.019 362.92 634.297 363.423C634.549 363.877 634.796 364.337 635.043 364.798C635.316 365.309 635.59 365.826 635.861 366.346C636.102 366.809 636.34 367.274 636.578 367.741C636.847 368.273 637.116 368.806 637.383 369.345C637.616 369.819 637.85 370.295 638.079 370.773C638.339 371.314 638.598 371.856 638.856 372.404C639.085 372.891 639.312 373.38 639.538 373.874C639.792 374.426 640.041 374.98 640.29 375.538C640.513 376.036 640.735 376.537 640.953 377.04C641.198 377.602 641.443 378.167 641.683 378.735C641.897 379.237 642.11 379.74 642.321 380.245C642.564 380.828 642.804 381.413 643.042 381.998C643.247 382.503 643.452 383.008 643.654 383.515C643.888 384.103 644.119 384.692 644.35 385.284C644.55 385.798 644.751 386.312 644.946 386.828C645.176 387.426 645.4 388.027 645.625 388.63C645.816 389.146 646.01 389.662 646.199 390.18C646.419 390.783 646.635 391.386 646.853 391.991C647.04 392.514 647.227 393.036 647.411 393.561C647.627 394.173 647.838 394.787 648.05 395.401C648.228 395.919 648.406 396.438 648.581 396.956C648.79 397.575 648.995 398.195 649.2 398.816C649.373 399.341 649.547 399.866 649.718 400.393C649.918 401.009 650.114 401.628 650.312 402.244C650.479 402.769 650.646 403.292 650.81 403.817C651.008 404.448 651.202 405.078 651.395 405.71C651.553 406.224 651.711 406.738 651.867 407.249C652.058 407.885 652.247 408.522 652.434 409.158C652.586 409.67 652.739 410.181 652.886 410.693C653.071 411.329 653.253 411.965 653.433 412.599C653.578 413.104 653.722 413.611 653.865 414.116C654.045 414.762 654.223 415.402 654.399 416.045C654.534 416.539 654.672 417.033 654.806 417.524C654.984 418.181 655.157 418.835 655.333 419.491C655.46 419.965 655.589 420.441 655.711 420.915C655.887 421.587 656.058 422.254 656.232 422.921C656.347 423.373 656.465 423.824 656.581 424.274C656.752 424.948 656.919 425.615 657.086 426.285C657.197 426.728 657.308 427.17 657.417 427.611C657.578 428.26 657.733 428.905 657.889 429.548C657.998 430.002 658.111 430.46 658.218 430.914C658.383 431.599 658.541 432.276 658.699 432.954C658.79 433.348 658.886 433.744 658.975 434.133C659.155 434.912 659.328 435.681 659.504 436.451C659.568 436.74 659.638 437.034 659.702 437.321C659.88 438.111 660.049 438.887 660.22 439.663C660.278 439.93 660.34 440.199 660.398 440.464C661.075 443.565 661.7 446.566 662.274 449.438C662.327 449.707 662.378 449.968 662.432 450.235C662.567 450.917 662.703 451.603 662.832 452.27C662.89 452.57 662.945 452.862 663.003 453.16C663.121 453.774 663.241 454.39 663.355 454.988C663.421 455.335 663.482 455.669 663.546 456.012C663.646 456.548 663.749 457.088 663.844 457.613C663.906 457.949 663.964 458.274 664.024 458.606C664.12 459.131 664.216 459.658 664.309 460.167C664.365 460.476 664.416 460.772 664.471 461.075C664.558 461.566 664.647 462.062 664.729 462.541C664.792 462.894 664.85 463.233 664.91 463.575C664.983 464 665.057 464.429 665.128 464.841C665.183 465.172 665.237 465.491 665.292 465.813C665.359 466.207 665.426 466.605 665.49 466.988C665.55 467.346 665.606 467.691 665.664 468.038C665.717 468.36 665.771 468.687 665.822 468.999C665.875 469.328 665.926 469.642 665.975 469.958C666.029 470.287 666.082 470.62 666.131 470.939C666.175 471.219 666.218 471.488 666.26 471.759C666.307 472.064 666.356 472.371 666.4 472.663C666.442 472.941 666.482 473.208 666.525 473.472C666.565 473.739 666.607 474.006 666.645 474.26C666.687 474.54 666.727 474.805 666.765 475.07C666.794 475.265 666.823 475.466 666.852 475.652C666.894 475.935 666.932 476.202 666.97 476.462C666.992 476.625 667.016 476.791 667.039 476.945C667.07 477.158 667.096 477.359 667.125 477.554C667.152 477.744 667.179 477.935 667.203 478.108C667.228 478.277 667.25 478.44 667.27 478.593C667.288 478.724 667.306 478.858 667.323 478.978C667.348 479.154 667.37 479.314 667.39 479.465C667.403 479.559 667.417 479.657 667.428 479.741C667.443 479.864 667.459 479.972 667.472 480.073C667.484 480.155 667.495 480.239 667.504 480.308C667.515 480.388 667.524 480.462 667.532 480.524C667.557 480.711 667.573 480.831 667.573 480.831H684.673C684.673 480.831 653.404 321.75 596.159 320.222H593.991C536.746 321.75 505.477 480.831 505.477 480.831H522.577C522.577 480.831 522.593 480.711 522.617 480.524C522.624 480.462 522.635 480.388 522.644 480.308C522.653 480.239 522.664 480.157 522.675 480.073C522.689 479.972 522.704 479.861 522.72 479.741C522.731 479.657 522.744 479.559 522.758 479.465C522.778 479.314 522.8 479.154 522.824 478.978C522.84 478.858 522.86 478.724 522.878 478.593C522.9 478.438 522.922 478.277 522.945 478.108C522.969 477.935 522.996 477.744 523.022 477.554C523.051 477.356 523.078 477.158 523.109 476.945C523.131 476.791 523.156 476.625 523.178 476.462C523.216 476.202 523.256 475.935 523.296 475.652C523.323 475.466 523.354 475.268 523.383 475.07C523.423 474.807 523.461 474.54 523.503 474.26C523.541 474.006 523.581 473.737 523.623 473.472C523.663 473.205 523.703 472.941 523.748 472.663C523.792 472.371 523.841 472.064 523.888 471.759C523.93 471.488 523.972 471.221 524.017 470.939C524.066 470.623 524.121 470.289 524.172 469.958C524.224 469.639 524.273 469.326 524.326 468.999C524.377 468.687 524.43 468.36 524.484 468.038C524.542 467.691 524.597 467.346 524.657 466.988C524.722 466.605 524.789 466.209 524.855 465.813C524.911 465.491 524.962 465.172 525.02 464.841C525.091 464.429 525.165 464 525.238 463.575C525.298 463.23 525.356 462.892 525.418 462.541C525.503 462.062 525.59 461.569 525.676 461.075C525.73 460.772 525.783 460.474 525.839 460.167C525.93 459.658 526.028 459.128 526.123 458.606C526.183 458.274 526.241 457.951 526.304 457.613C526.399 457.088 526.502 456.55 526.602 456.012C526.666 455.669 526.726 455.335 526.793 454.988C526.906 454.39 527.024 453.774 527.144 453.16C527.202 452.862 527.258 452.57 527.316 452.27C527.445 451.603 527.58 450.92 527.716 450.235C527.77 449.968 527.821 449.707 527.874 449.438C528.448 446.566 529.073 443.565 529.749 440.464C529.807 440.199 529.867 439.928 529.927 439.663C530.099 438.887 530.27 438.108 530.446 437.321C530.51 437.034 530.579 436.74 530.644 436.451C530.817 435.681 530.993 434.912 531.173 434.133C531.264 433.744 531.358 433.346 531.449 432.954C531.607 432.276 531.765 431.599 531.93 430.914C532.036 430.463 532.15 430.004 532.259 429.548C532.415 428.903 532.57 428.26 532.73 427.611C532.839 427.17 532.951 426.728 533.062 426.285C533.229 425.615 533.396 424.948 533.567 424.274C533.68 423.824 533.798 423.373 533.916 422.921C534.087 422.254 534.259 421.587 534.437 420.915C534.561 420.441 534.688 419.965 534.815 419.491C534.988 418.837 535.162 418.183 535.34 417.524C535.473 417.033 535.611 416.537 535.747 416.045C535.925 415.402 536.101 414.759 536.281 414.116C536.423 413.611 536.568 413.104 536.712 412.599C536.895 411.963 537.075 411.329 537.26 410.693C537.409 410.181 537.56 409.67 537.711 409.158C537.9 408.522 538.087 407.885 538.278 407.249C538.434 406.735 538.592 406.224 538.75 405.71C538.944 405.078 539.137 404.446 539.335 403.817C539.5 403.292 539.667 402.769 539.833 402.244C540.029 401.628 540.225 401.009 540.425 400.393C540.596 399.866 540.77 399.341 540.943 398.816C541.148 398.195 541.353 397.575 541.562 396.956C541.738 396.436 541.916 395.919 542.094 395.401C542.305 394.787 542.516 394.173 542.732 393.561C542.917 393.036 543.104 392.514 543.29 391.991C543.506 391.386 543.724 390.783 543.944 390.18C544.134 389.662 544.327 389.146 544.518 388.63C544.743 388.027 544.968 387.426 545.197 386.828C545.395 386.312 545.593 385.798 545.793 385.284C546.024 384.692 546.256 384.103 546.489 383.515C546.692 383.008 546.896 382.503 547.101 381.998C547.339 381.411 547.579 380.826 547.822 380.245C548.033 379.74 548.244 379.237 548.458 378.735C548.701 378.167 548.943 377.602 549.188 377.04C549.408 376.537 549.628 376.036 549.851 375.538C550.1 374.98 550.351 374.426 550.603 373.874C550.829 373.382 551.056 372.891 551.283 372.404C551.539 371.856 551.799 371.314 552.06 370.773C552.291 370.295 552.522 369.816 552.756 369.345C553.023 368.806 553.29 368.273 553.559 367.741C553.797 367.274 554.035 366.809 554.275 366.346C554.547 365.826 554.82 365.312 555.094 364.798C555.341 364.337 555.59 363.879 555.839 363.423C556.117 362.92 556.398 362.422 556.678 361.926C556.931 361.479 557.185 361.034 557.441 360.596C557.726 360.106 558.015 359.626 558.304 359.145C558.564 358.714 558.825 358.282 559.089 357.859C559.383 357.388 559.679 356.923 559.975 356.46C560.242 356.044 560.511 355.628 560.78 355.219C561.08 354.767 561.383 354.325 561.685 353.88C561.961 353.479 562.235 353.079 562.513 352.685C562.822 352.249 563.134 351.824 563.447 351.399C563.727 351.019 564.008 350.638 564.29 350.267C564.606 349.851 564.929 349.448 565.249 349.043C565.536 348.681 565.825 348.318 566.114 347.965C566.439 347.569 566.771 347.186 567.1 346.803C567.394 346.463 567.685 346.12 567.983 345.789C568.319 345.415 568.657 345.057 568.995 344.694C569.296 344.374 569.594 344.051 569.898 343.742C570.241 343.393 570.588 343.059 570.935 342.721C571.242 342.423 571.547 342.123 571.858 341.834C572.21 341.507 572.568 341.197 572.926 340.886C573.237 340.612 573.549 340.334 573.865 340.072C574.227 339.771 574.592 339.489 574.959 339.202C575.28 338.953 575.596 338.697 575.918 338.457C576.29 338.183 576.666 337.929 577.042 337.671C577.366 337.447 577.689 337.215 578.018 337.002C578.401 336.755 578.79 336.53 579.177 336.299C579.506 336.103 579.833 335.896 580.167 335.712C580.563 335.491 580.966 335.296 581.368 335.093C581.7 334.926 582.027 334.748 582.363 334.593C582.774 334.401 583.195 334.234 583.611 334.063C583.942 333.925 584.269 333.776 584.605 333.649C585.034 333.487 585.473 333.354 585.909 333.213C586.238 333.107 586.563 332.987 586.896 332.891C587.359 332.757 587.831 332.657 588.3 332.546C588.611 332.473 588.921 332.384 589.234 332.321C589.762 332.217 590.295 332.146 590.829 332.07C591.094 332.032 591.357 331.977 591.624 331.948C592.429 331.856 593.241 331.799 594.062 331.776H596.075C596.896 331.799 597.708 331.856 598.513 331.948C598.78 331.977 599.04 332.032 599.307 332.07C599.837 332.146 600.371 332.217 600.898 332.321Z" fill="url(#paint11_linear_339_8)"/>
<path d="M1198.39 447.369C1197.8 441.483 1193.42 441.167 1193.42 441.167V407.073H1196.34V398.705H1194.3V392.509H1196.34V384.14H1194V379.182H1196.34V371.743L1194.59 369.885L1190.2 344.779L1185.53 369.574L1183.48 371.743V379.182H1185.82V384.14H1183.19V392.509H1185.82V398.707H1183.48V407.076H1185.82V441.169C1184.17 441.169 1183.04 441.779 1182.26 442.618V432.487H1178.48C1176.82 426.774 1171.62 424.863 1169.09 424.265C1169.08 423.237 1168.5 422.356 1167.67 421.956V418.759C1168.1 418.43 1168.38 417.898 1168.38 417.295C1168.38 416.693 1168.1 416.161 1167.67 415.832V413.24L1166.69 410.399C1166.68 410.373 1166.67 410.399 1166.67 410.399L1165.68 413.24V415.832C1165.25 416.161 1164.97 416.693 1164.97 417.295C1164.97 417.9 1165.25 418.432 1165.68 418.759V421.956C1164.85 422.356 1164.27 423.237 1164.26 424.265C1161.73 424.866 1156.53 426.774 1154.87 432.487H1149.98V445.309C1147.99 445.325 1146.06 447.371 1146.06 447.371H1140.94V376.704H1129.61C1120.89 358.602 1102.8 352.093 1093.46 349.88C1093.42 345.622 1091.03 341.969 1087.58 340.312V327.062C1089.36 325.699 1090.53 323.497 1090.53 320.992C1090.53 318.487 1089.36 316.285 1087.58 314.921V304.176L1083.49 292.399C1083.48 292.359 1083.46 292.353 1083.45 292.355V292.368C1083.43 292.373 1083.41 292.399 1083.41 292.399L1079.31 304.176V314.921C1077.54 316.285 1076.37 318.487 1076.37 320.992C1076.37 323.494 1077.54 325.699 1079.31 327.062V340.312C1075.87 341.969 1073.47 345.622 1073.44 349.88C1064.1 352.093 1046.01 358.602 1037.28 376.704H1025.96V447.371H1020.84C1020.84 447.371 1018.73 445.136 1016.65 445.32V432.487H1012.46C1010.8 426.774 1005.6 424.863 1003.07 424.265C1003.06 423.237 1002.48 422.356 1001.65 421.956V418.759C1002.08 418.43 1002.36 417.898 1002.36 417.295C1002.36 416.693 1002.08 416.161 1001.65 415.832V413.24L1000.67 410.399C1000.66 410.373 1000.65 410.399 1000.65 410.399L999.658 413.24V415.832C999.229 416.161 998.946 416.693 998.946 417.295C998.946 417.9 999.229 418.432 999.658 418.759V421.956C998.828 422.356 998.25 423.237 998.241 424.265C995.709 424.866 990.515 426.774 988.851 432.487H984.371V442.371C983.606 441.668 982.556 441.169 981.076 441.169V407.076H983.416V398.707H981.076V392.509H983.708V384.14H981.076V379.182H983.416V371.743L981.37 369.574L976.692 344.779L972.305 369.885L970.552 371.743V379.182H972.89V384.14H970.552V392.509H972.598V398.707H970.552V407.076H973.475V441.169C973.475 441.169 969.09 441.488 968.505 447.371H966.167V480.84H1025.96H1047.74H1048.27H1083.45H1118.62H1119.16H1140.94H1200.73V447.371L1198.39 447.369Z" fill="url(#paint12_linear_339_8)"/>
<path d="M44.0731 403.855C40.2469 409.932 44.9718 415.109 44.9718 415.109C44.9718 415.109 45.1809 417.209 45.4434 420.207L46.4556 397.933C45.9796 399.928 45.2366 402.004 44.0731 403.855Z" fill="url(#paint13_linear_339_8)"/>
<path d="M113.631 352.416L115.448 350.952L124.364 354.861L114.981 349.713L113.631 352.416Z" fill="url(#paint14_linear_339_8)"/>
<path d="M128.5 366.259L132.219 359.17L131.256 358.642L129.855 359.733L130.98 361.083L128.28 365.81C123.326 364.457 126.478 367.834 126.478 367.834C131.205 373.465 125.127 369.412 125.127 369.412C116.799 368.511 120.85 375.852 120.85 375.852L110.719 395.746L106.893 394.171C107.567 388.543 103.516 367.383 103.516 366.484L109.433 359.506C109.433 359.506 105.863 360.18 100.795 354.102C100.795 354.102 97.4183 348.701 97.0801 341.609C97.0801 341.609 94.3484 330.762 88.2864 332.135C88.2864 332.135 89.0049 329.116 86.965 328.101L84.6359 321.143L85.5702 325.512L83.4502 327.089C83.4502 327.089 82.8028 324.838 82.0576 322.235C81.3124 319.632 80.5516 312.908 80.9809 311.935C81.4103 310.966 80.9809 306.879 80.9809 306.879C80.843 305.162 81.0455 300.71 81.0455 300.71C77.9222 297.291 74.0514 296.446 74.0514 296.446C73.8512 296.826 72.6944 297.22 72.6944 297.22C67.985 298.866 65.0219 303.002 65.0219 303.002C62.9953 304.804 62.9953 308.63 62.9953 308.63C62.3213 306.83 59.8431 307.055 59.8431 307.055C63.894 304.354 62.5437 301.402 62.5437 301.402C72.75 297.554 73.9557 295.38 74.0447 294.691C74.0292 294.546 74.0247 294.448 74.0247 294.448C74.0247 294.448 74.0648 294.528 74.0447 294.691C74.0937 295.138 74.2583 296.054 74.7989 296.15C75.5174 296.277 80.1601 298.724 81.0032 299.865C81.8485 301.004 83.4524 300.161 83.4524 300.161C82.2289 301.638 81.0455 300.71 81.0455 300.71C81.0877 301.553 83.4591 303.004 83.4591 303.004L84.9318 305.793H83.2188L85.568 313.457L83.7505 316.985L83.8951 317.659L86.9695 314.598L83.5792 306.494H85.4924C85.4924 306.494 85.717 303.455 83.5792 301.429C83.5792 301.429 84.8161 301.878 85.4924 299.402H100.123L86.1664 296.926V293.774L100.123 288.598L85.0408 291.074L83.2389 288.598L92.6933 279.143L80.0867 287.247L75.8088 286.122V273.515L72.6588 286.122L67.2553 287.472L57.3516 278.692L64.3301 288.822L60.7285 292.424H51.2741L60.0544 294.223L59.1535 296.924L54.8756 298.05L58.9288 298.951L60.0544 304.354L59.1535 308.857L56.6775 309.982C56.6775 309.982 54.8756 297.827 51.2741 295.124C51.2741 295.124 50.8247 277.341 49.0228 273.515C49.0228 273.515 46.7715 264.285 47.6725 255.956C47.6725 255.956 50.3731 244.475 44.5203 242V238.847C44.5203 238.847 46.5469 238.847 45.6459 235.92C45.6459 235.92 54.1994 235.695 51.9503 230.519L51.2741 225.567C51.2741 225.567 47.4478 223.765 44.5203 223.989V221.514C44.5203 221.514 49.7814 214.535 41.4103 208.006C41.4103 208.006 42.4937 212.057 39.5684 212.508C39.5684 212.508 33.2662 214.984 36.8678 221.289L36.8967 221.514H43.864L44.6093 224.666L36.8967 221.518L37.3171 224.89C37.3171 224.89 32.1406 224.214 30.788 226.465V230.292C30.788 230.292 28.9861 233.669 32.8146 235.244H36.4162C36.4162 235.244 33.7156 238.171 36.8655 238.62L36.6409 240.872C36.6409 240.872 33.7156 242.447 35.9646 247.401C35.9646 247.401 34.6143 251.227 38.2158 257.529L38.6652 263.157C38.6652 263.157 35.513 284.542 40.2402 291.972L40.0155 299.4C40.0155 299.4 30.1118 309.304 34.1627 322.587C34.1627 322.587 35.513 325.287 37.5396 325.964L36.414 332.132L37.5663 333.514C37.157 332.711 36.8811 332.132 36.8811 332.132L46.7849 325.512C46.7849 325.512 42.5159 336.893 41.3347 338.423L38.6652 349.6C38.6652 349.6 34.2962 352.727 45.3923 361.786L43.8596 358.829C43.8596 358.829 45.4368 349.918 46.3355 348.521L78.6918 332.132C78.6918 332.132 52.1617 355.339 47.1942 364.573C46.9895 366.23 45.7571 369.463 41.4081 375.712C41.4081 375.712 41.1567 389.077 46.8472 389.219L47.0118 385.615L52.6399 375.709C61.4203 365.579 79.0834 334.063 79.0834 334.063C89.0761 327.289 84.5491 335.64 84.5491 335.64C77.5551 339.222 45.8105 419.335 45.4435 420.259C45.9952 426.592 46.7738 436.894 46.3177 440.091C46.3177 440.091 42.7384 450.671 44.9785 450.898C44.9785 450.898 43.4658 454.55 42.3513 458.421C43.6193 455.133 45.4368 450.221 45.4368 450.221C65.4712 445.494 86.6313 407.449 86.6313 407.449L85.5724 452.922C78.8876 459.458 45.8127 461.057 41.6372 461.235C41.1901 463.322 41.0055 465.221 41.4081 466.354C42.7162 470.033 40.1557 480.838 40.1557 480.838H112.249L109.551 466.354L109.431 456.753L109.551 444.936L113.288 442.909L111.36 426.381L109.431 404.751C109.431 404.751 111.938 402.725 113.288 395.971L119.366 384.828C119.366 384.828 126.195 382.463 131.899 371.997C131.904 372.001 133.579 369.636 128.5 366.259ZM85.9462 295.329L84.7649 296.441L84.469 296.11L85.5658 294.548L85.9462 295.329ZM85.0608 292.648C85.5969 293.104 85.568 293.774 85.568 293.774C85.1453 293.634 83.795 295.603 83.795 295.603L83.3835 295.138L85.0608 292.648ZM83.7083 291.002L84.7627 291.972C84.7627 291.972 82.6516 293.872 82.5671 294.295L81.9976 293.774L83.7083 291.002ZM83.0765 290.495C83.0765 290.495 81.6283 293.111 81.5704 293.429L80.9231 293.029L81.853 289.748L83.0765 290.495ZM79.5305 288.342L81.219 289.229C81.219 289.229 79.9532 291.509 79.9532 292.648L78.9811 292.206L79.5305 288.342ZM76.7031 287.287L78.7297 288.09C78.7297 288.09 77.9422 291.129 77.8487 292.206H76.7031V287.287ZM75.8177 287.287L75.5508 292.206H74.2116L73.8757 287.287H75.8177ZM72.9035 287.668V291.972H71.3419L70.9681 287.668H72.9035ZM70.1184 287.668L70.6634 292.648H69.0217C69.0217 292.648 68.7258 288.976 68.0517 288.302C68.0495 288.302 68.9371 287.752 70.1184 287.668ZM67.4178 288.722C67.4178 288.722 68.5167 291.634 68.4722 293.429L67.2064 293.774C67.2064 293.774 66.6992 290.032 65.4757 289.61L67.4178 288.722ZM64.6726 290.115C64.6726 290.115 66.4033 292.028 66.5301 293.772L65.4757 294.292C65.4757 294.292 64.6749 291.759 63.5559 291.042L64.6726 290.115ZM63.111 291.509C63.111 291.509 65.1798 294.337 65.1798 294.844L64.4613 295.351C64.4613 295.351 62.6038 292.693 61.9297 292.651C61.9297 292.648 62.7328 291.719 63.111 291.509ZM61.6339 293.029L63.8718 295.687L63.3223 296.657C63.3223 296.657 61.8452 294.419 61.1066 294.631C61.1066 294.633 61.1289 293.325 61.6339 293.029ZM60.8619 294.969C60.8619 294.969 62.6483 296.361 62.8173 296.995L62.5215 297.914C62.5215 297.914 61.0444 296.364 60.4949 296.194L60.8619 294.969ZM60.3614 296.659L62.1411 298.39L61.9297 299.171L60.0722 297.883L60.3614 296.659ZM60.1145 298.134L61.6339 299.654L61.1267 300.201L59.8609 299.273L60.1145 298.134ZM59.8609 299.909L61.1267 300.728L60.8597 301.429L59.8609 300.866V299.909ZM59.8609 301.427L60.8597 301.765L60.6217 302.328L60.1145 302.061L59.8609 301.427ZM38.4628 265.636L40.2625 266.31C44.5403 269.462 44.6093 260.007 44.6093 260.007C46.0308 258.882 43.864 257.307 43.864 257.307L44.6093 248.302L41.8375 243.35C40.2602 240.422 45.439 243.35 45.439 243.35C50.6156 246.951 46.7871 256.857 46.7871 256.857C46.1108 258.208 46.7871 270.814 46.7871 270.814C41.8352 275.766 38.4628 265.636 38.4628 265.636ZM48.5912 319.886C46.34 325.063 42.5137 324.164 38.2359 323.939C33.958 323.715 35.0859 320.111 34.4096 315.159C33.7356 310.207 39.5884 301.654 40.2625 302.552C40.9387 303.453 40.4871 309.081 41.2034 310.95C41.9198 312.819 42.7384 316.285 43.864 316.06C44.9897 315.835 48.5912 308.632 48.5912 308.632C53.9947 303.004 51.7434 297.333 51.7434 297.333C59.396 303.82 50.8425 314.71 48.5912 319.886ZM63.9207 317.846C63.9207 317.846 62.0988 314.905 59.8476 313.457C57.5963 312.009 56.6953 310.739 56.6953 310.739C56.6953 310.739 60.7796 311.873 62.5415 312.425C64.3034 312.977 63.2244 311.019 64.4613 310.95L63.9207 317.846ZM73.4107 304.087C73.4107 304.087 73.938 307.041 72.2384 306.872C72.2384 306.872 73.453 306.281 73.4107 304.087ZM75.7732 310.946C75.7732 310.946 74.8011 311.684 73.493 310.946C73.493 310.946 71.8469 311.515 71.1283 311.431L73.5331 310.461L74.7143 310.946L75.8533 310.461L76.8321 311.264C76.8366 311.264 75.9868 311.304 75.7732 310.946ZM73.1149 312.865C71.4264 312.654 72.6966 312.149 72.6966 312.149C73.2506 312.276 76.6252 311.938 76.6252 311.938C77.8754 313.219 73.1149 312.865 73.1149 312.865ZM68.2609 304.341C69.738 304.552 71.6511 304.087 71.6511 304.087C70.6656 305.053 68.2609 304.341 68.2609 304.341ZM72.6789 303.905C72.6789 302.555 66.6013 303.905 66.6013 303.905C73.3529 299.852 72.6789 303.905 72.6789 303.905ZM78.3493 322.237C67.0373 318.861 65.2644 313.457 65.2644 313.457C69.1907 317.468 74.0025 316.876 74.0025 316.876C77.2948 317.13 79.6595 313.88 79.6595 313.88C78.9811 315.019 78.3493 322.237 78.3493 322.237ZM76.8366 304.087C76.8366 304.087 78.8654 304.272 80.0021 304.074C80.3336 303.983 80.5583 303.905 80.5583 303.905C80.427 303.98 80.2313 304.034 80.0021 304.074C79.2302 304.283 77.8154 304.559 76.8366 304.087ZM76.2893 305.787C76.8366 308.345 76.8499 309.631 75.3928 310.08C73.4463 310.683 72.6966 308.405 72.6966 308.405C75.1837 309.807 76.0691 309.15 75.5619 306.957C75.1681 305.255 75.6042 303.004 75.6042 303.004C78.7564 299.402 80.556 303.004 80.556 303.004C75.3795 301.654 76.2893 305.787 76.2893 305.787ZM47.6903 434.356L46.7893 424.788C46.5647 414.884 74.5364 359.73 74.5364 359.73C74.3295 367.585 47.6903 434.356 47.6903 434.356ZM67.0373 424.79C67.0373 424.79 70.5032 414.497 74.3562 401.93C80.1712 376.842 83.7505 344.427 83.7505 344.427L84.5536 358.609C85.2565 364.604 79.466 385.271 74.3562 401.933C72.2006 411.229 69.738 419.527 67.0373 424.79ZM93.1627 455.852V463.057C93.1627 463.057 85.2832 460.806 85.5747 458.103C85.8661 455.402 109.349 441.672 109.349 441.672C109.551 443.697 93.1627 455.852 93.1627 455.852Z" fill="url(#paint15_linear_339_8)"/>
<path d="M46.7738 362.883C46.2888 362.507 45.835 362.144 45.399 361.788L47.0163 364.907C47.0696 364.802 47.1408 364.684 47.1987 364.575C47.3766 363.129 46.7738 362.883 46.7738 362.883Z" fill="url(#paint16_linear_339_8)"/>
<path d="M47.2231 389.221C47.0941 389.23 46.974 389.226 46.8516 389.221L46.4556 397.931C47.5457 393.364 47.2231 389.221 47.2231 389.221Z" fill="url(#paint17_linear_339_8)"/>
<path d="M45.4412 420.285C45.4412 420.285 45.4479 420.27 45.4501 420.263C45.4479 420.245 45.4457 420.225 45.4457 420.205L45.4412 420.285Z" fill="url(#paint18_linear_339_8)"/>
<path d="M41.2034 461.255C41.2034 461.255 41.3569 461.248 41.6394 461.237C41.8352 460.319 42.0844 459.366 42.3535 458.425C41.8041 459.856 41.3525 460.984 41.2034 461.255Z" fill="url(#paint19_linear_339_8)"/>
<path d="M37.5707 333.518C38.6074 335.549 40.5272 339.057 41.2034 338.572C41.2413 338.546 41.288 338.49 41.3391 338.426L41.4125 338.121L37.5707 333.518Z" fill="url(#paint20_linear_339_8)"/>
<path d="M84.6404 321.145L83.8951 317.659L83.5792 317.973L84.6404 321.145Z" fill="url(#paint21_linear_339_8)"/>
<path d="M124.364 354.861L131.258 358.64L131.883 358.155L124.364 354.861Z" fill="url(#paint22_linear_339_8)"/>
<path d="M36.8855 221.514L36.8967 221.518V221.514H36.8855Z" fill="url(#paint23_linear_339_8)"/>
<path d="M784.656 306.152L786.106 304.781H792.102V299.113L843.874 250.175L829.036 234.478L777.059 283.61L763.247 263.24L749.866 282.384L701.183 230.881L698.412 233.502L685.487 245.719L733.66 296.682V304.781H741.315L741.929 305.431L740.242 318.413L681.888 373.574L696.725 389.27L735.842 352.296L719.145 480.84H806.446H807.351L791.358 357.724L824.58 392.87L840.277 378.032L786.625 321.272L784.656 306.152ZM753.986 359.575C753.986 354.818 757.2 350.821 761.572 349.613C761.974 349.499 762.39 349.417 762.811 349.353C762.875 349.344 762.937 349.333 763.002 349.324C763.438 349.266 763.881 349.228 764.332 349.228C770.047 349.228 774.679 353.86 774.679 359.575C774.679 359.997 774.645 360.413 774.596 360.823C774.583 360.94 774.561 361.056 774.543 361.174C774.496 361.477 774.436 361.775 774.363 362.068C774.336 362.18 774.309 362.288 774.278 362.397C774.174 362.762 774.056 363.121 773.913 363.468C773.907 363.485 773.9 363.505 773.893 363.523C773.731 363.915 773.544 364.293 773.337 364.658C773.32 364.689 773.299 364.718 773.282 364.751C773.088 365.083 772.879 365.401 772.652 365.708C772.623 365.745 772.597 365.783 772.568 365.821C771.798 366.831 770.848 367.699 769.765 368.37C768.185 369.349 766.328 369.923 764.334 369.923C758.62 369.923 753.986 365.292 753.986 359.575Z" fill="url(#paint24_linear_339_8)"/>
<path d="M442.653 480.718L439.41 470.994H434.402L431.303 461.702H426.438L423.195 451.979H418.33L415.086 442.255H410.221L406.978 432.531H402.113L398.869 422.808H394.002L390.761 413.084H385.896L382.652 403.361H377.787L374.544 393.637H362.389V365.303H367.085V360.716H304.016V365.303H309.987V393.633H297.832L294.588 403.356H289.723L286.48 413.08H281.615L278.371 422.803H273.506L270.263 432.527H265.397L262.154 442.251H257.291L254.048 451.974H249.183L245.939 461.698H241.074L237.975 470.99H232.966L229.722 480.713H317.279V478.529H355.094V480.713H442.653V480.718ZM355.096 405.99V407.983H317.281V405.99H355.096ZM317.281 402.8V400.807H355.096V402.8H317.281ZM355.096 411.171V413.164H317.281V411.171H355.096ZM355.096 416.352V418.345H317.281V416.352H355.096ZM355.096 421.533V423.526H317.281V421.533H355.096ZM355.096 426.716V428.71H317.281V426.716H355.096ZM355.096 431.897V433.891H317.281V431.897H355.096ZM355.096 437.078V439.072H317.281V437.078H355.096ZM355.096 442.262V444.255H317.281V442.262H355.096ZM355.096 447.443V449.436H317.281V447.443H355.096ZM355.096 452.624V454.617H317.281V452.624H355.096ZM355.096 457.805V459.798H317.281V457.805H355.096ZM355.096 462.988V464.981H317.281V462.988H355.096ZM355.096 468.169V470.162H317.281V468.169H355.096ZM330.515 393.633V378.777H341.86V393.633H355.096V397.619H317.281V393.633H330.515ZM317.281 475.343V473.35H355.096V475.343H317.281Z" fill="url(#paint25_linear_339_8)"/>
<path d="M355.096 480.718H317.281V480.84H355.096V480.718Z" fill="url(#paint26_linear_339_8)"/>
<path d="M275.544 335.921V321.65H280.745V320.082V318.513H219.852C221.963 318.086 221.215 314.943 221.215 314.943C222.243 313.993 221.678 312.567 221.678 312.567L222.181 309.121C223.818 306.034 221.215 304.966 221.215 304.966V303.422C222.719 298.552 219.583 296.152 219.583 296.152C219.812 294.937 219.118 292.286 219.118 292.286C219.118 290.531 220.506 290.715 220.506 290.715C222.252 290.953 222.181 288.847 222.181 288.847C223.106 288.048 222.181 286.753 222.181 286.753L222.419 284.504C222.63 283.877 223.511 282.758 223.044 282.282C222.579 281.808 223.151 280.62 223.151 280.62C224.454 279.312 223.751 278.482 223.751 278.482C223.162 278.244 223.044 279.194 223.044 279.194L221.333 278.482C221.413 277.888 221.433 276.796 221.433 276.796C220.544 276.416 218.237 279.074 218.237 279.074L216.45 279.906C215.091 280.382 212.964 285.748 212.964 285.748C211.986 286.566 211.127 292.355 210.878 294.186C210.228 294.381 201.577 296.891 195.631 294.508C195.384 293.814 194.91 293.009 193.942 292.286C193.942 292.286 193.001 286.796 193.353 286.202C193.704 285.608 195.949 284.538 195.123 283.47C195.123 283.47 195.366 281.45 194.18 281.926V279.788C194.18 279.788 195.842 278.08 193.942 277.332L193.353 276.405C193.353 276.405 194.309 275.751 193.471 274.563C193.471 274.563 192.274 274.407 192.276 275.673C192.276 275.673 191.291 274.609 190.479 275.715C190.479 275.715 189.077 273.123 188.539 275.506V277.065C188.539 277.065 186.661 284.048 186.321 288.155C186.321 288.155 185.293 292.386 184.688 293.747C184.457 294.268 184.196 294.86 183.976 295.434L186.083 287.603C186.083 287.603 186.388 280.075 182.148 279.957C182.148 279.957 180.997 281.005 181.175 282.68L180.59 284.257L178.804 283.614L176.6 282.12C176.6 282.12 177.841 280.313 178.052 279.365L178.517 277.702C178.517 277.702 179.743 276.514 178.052 275.564C178.052 275.564 176.88 274.614 174.424 275.09L173.91 275.504L173.347 264.712C176.117 264.281 178.241 261.905 178.241 259.013C178.241 257.031 177.242 255.285 175.723 254.241L175.734 254.243L174.137 252.599L174.121 252.406C174.344 252.034 174.375 251.383 174.375 251.383C175.029 252.05 175.34 251.278 175.34 251.278C176.602 252.021 176.486 250.847 176.486 250.847C177.647 251.218 177.078 250.431 177.078 250.431C177.91 250.697 177.774 248.976 177.774 248.976C177.685 248.277 178.146 248.353 178.146 248.353C179.778 247.165 179.111 247.063 179.111 247.063C180.121 246.38 179.527 246.322 179.527 246.322C180.626 245.445 179.749 245.519 179.749 245.519C180.699 244.673 179.988 244.747 179.988 244.747C181.324 243.412 180.254 243.641 180.254 243.641C181.427 242.18 180.283 242.742 180.283 242.742C181.976 240.811 180.773 241.067 180.773 241.067C182.065 238.68 180.862 239.708 180.862 239.708L179.169 241.701C179.287 240.929 178.695 241.494 178.695 241.494C178.279 242.133 174.406 245.132 174.406 245.132C173.663 245.516 174.11 245.71 174.11 245.71C176.486 246.66 172.958 247.792 172.958 247.792L172.833 246.535L172.715 245.89C172.715 245.89 173.114 244.553 172.217 244.406C172.217 244.406 173.623 243.457 172.457 243.279L172.037 243.161L171.975 242.805C171.975 242.805 172.546 241.939 171.919 241.926C171.919 241.926 171.47 241.855 171.648 242.656C171.648 242.656 171.59 243.19 171.441 243.221C171.441 243.221 170.248 243.132 170.86 243.993L171.412 244.438C171.412 244.438 170.733 244.466 170.687 244.704C170.687 244.704 170.017 244.587 170.017 245.12C170.017 245.12 170.76 245.149 170.729 245.387C170.729 245.387 171.216 247.714 170.86 247.915L170.504 247.995C170.504 247.995 166.858 247.338 169.087 246.084C169.087 246.084 169.503 245.835 168.716 245.55C168.716 245.55 164.48 243.087 163.984 242.509C163.984 242.509 163.321 242.028 163.541 242.778L161.601 241.025C161.601 241.025 160.273 240.166 161.868 242.36C161.868 242.36 160.643 242.264 162.576 243.955C162.576 243.955 161.368 243.548 162.723 244.842C162.723 244.842 161.633 244.753 163.134 245.904C163.134 245.904 162.418 245.924 163.47 246.638C163.47 246.638 162.594 246.68 163.797 247.403C163.797 247.403 163.216 247.541 164.307 248.084C164.307 248.084 163.659 248.275 165.432 249.236C165.432 249.236 165.879 249.102 165.882 249.805C165.882 249.805 165.975 251.529 166.765 251.156C166.765 251.156 166.302 252.01 167.405 251.489C167.405 251.489 167.445 252.666 168.598 251.765C168.598 251.765 169.009 252.49 169.568 251.741C169.568 251.741 169.683 252.384 169.952 252.722L169.964 252.915L168.649 254.686C167.443 255.747 166.667 257.282 166.667 259.015C166.667 262.081 169.056 264.563 172.068 264.766L172.462 273.426C172.044 273.535 171.412 273.946 170.613 275.21C170.613 275.21 169.343 275.804 169.172 276.518C169.172 276.518 166.126 280.044 166.137 281.548C166.137 281.548 163.461 280.556 164.983 292.197L165.23 297.204L164.678 298.11C164.656 297.889 164.645 297.754 164.645 297.754C164.869 296.948 164.064 295.113 163.459 293.752C162.854 292.39 161.826 288.159 161.826 288.159C161.488 284.053 159.608 277.07 159.608 277.07V275.51C159.072 273.128 157.668 275.719 157.668 275.719C156.856 274.616 155.871 275.677 155.871 275.677C155.873 274.411 154.676 274.567 154.676 274.567C153.84 275.755 154.797 276.409 154.797 276.409L154.207 277.337C152.307 278.086 153.969 279.793 153.969 279.793V281.93C152.781 281.454 153.024 283.474 153.024 283.474C152.198 284.542 154.443 285.612 154.794 286.206C155.146 286.8 154.205 292.29 154.205 292.29C153.177 293.06 152.701 293.923 152.472 294.644C146.301 296.908 137.463 294.172 137.463 294.172C137.209 292.321 136.355 286.571 135.378 285.754C135.378 285.754 133.249 280.389 131.892 279.913L130.106 279.081C130.106 279.081 127.799 276.422 126.909 276.803C126.909 276.803 126.929 277.895 127.009 278.489L125.299 279.201C125.299 279.201 125.183 278.251 124.591 278.489C124.591 278.489 123.891 279.321 125.192 280.627C125.192 280.627 125.764 281.815 125.299 282.289C124.832 282.765 125.713 283.884 125.926 284.511L126.164 286.76C126.164 286.76 125.239 288.055 126.164 288.853C126.164 288.853 126.093 290.958 127.839 290.722C127.839 290.722 129.227 290.537 129.227 292.292C129.227 292.292 128.535 294.944 128.762 296.159C128.762 296.159 125.626 298.559 127.13 303.429V304.972C127.13 304.972 124.527 306.04 126.164 309.128L126.667 312.574C126.667 312.574 126.1 313.998 127.13 314.95C127.13 314.95 126.382 318.091 128.493 318.52H65.0731V320.088V321.657H69.8781V335.927H51.6189V337.493V339.062H54.1015V342.519H57.207V353.637V357.052H60.5127C60.5127 357.052 62.1211 365.096 64.0876 365.096H66.2143V371.752V472.805H64.0876C62.1211 472.805 60.5127 480.849 60.5127 480.849H61.7562H89.2029H90.0216C90.0216 480.849 88.4132 472.805 86.4467 472.805H84.32V444.746V365.096H86.4467C88.4132 365.096 90.0216 357.052 90.0216 357.052H93.1426C93.1426 357.052 94.751 365.096 96.7175 365.096H98.8442V371.752V472.805H96.7175C94.751 472.805 93.1426 480.849 93.1426 480.849H94.3862H121.831H122.649C122.649 480.849 121.041 472.805 119.074 472.805H116.948V444.746V365.096H119.074C121.041 365.096 122.649 357.052 122.649 357.052H125.773C125.773 357.052 127.381 365.096 129.347 365.096H131.474V371.752V472.805H129.347C127.381 472.805 125.773 480.849 125.773 480.849H127.016H154.461H155.279C155.279 480.849 153.671 472.805 151.704 472.805H149.578V444.746V365.096H151.704C153.671 365.096 155.279 357.052 155.279 357.052H193.003C193.003 357.052 194.612 365.096 196.578 365.096H198.705V371.752V472.805H196.578C194.612 472.805 193.003 480.849 193.003 480.849H194.247H221.694H222.512C222.512 480.849 220.904 472.805 218.937 472.805H216.811V444.746V365.096H218.937C220.904 365.096 222.512 357.052 222.512 357.052H225.636C225.636 357.052 227.244 365.096 229.21 365.096H231.337V371.752V472.805H229.21C227.244 472.805 225.636 480.849 225.636 480.849H226.879H254.326H255.145C255.145 480.849 253.538 472.805 251.57 472.805H249.443V444.746V365.096H251.57C253.536 365.096 255.145 357.052 255.145 357.052H258.268C258.268 357.052 259.876 365.096 261.84 365.096H263.967V371.752V472.805H261.84C259.874 472.805 258.268 480.849 258.268 480.849H259.511H286.956H287.774C287.774 480.849 286.166 472.805 284.2 472.805H282.073V444.746V365.096H284.2C286.166 365.096 287.774 357.052 287.774 357.052H290.978V353.637V342.519H294.237V339.062H296.724V337.493V335.927H275.544V335.921ZM139.794 313.993L142.346 313.399C142.346 313.399 141.687 315.655 142.346 317.793L142.53 318.511H139.845C139.707 317.426 139.416 314.745 139.794 313.993ZM205.997 313.399L208.549 313.993C208.927 314.745 208.635 317.426 208.5 318.513H205.815L205.999 317.795C206.656 315.657 205.997 313.399 205.997 313.399ZM164.645 317.199C164.645 317.199 165.37 314.467 165.728 313.279C165.728 313.279 169.712 317.203 171.97 317.679H180.403C180.403 317.679 181.716 316.623 183.044 315.488C183.293 316.405 183.505 317.199 183.505 317.199C183.505 317.199 183.509 317.844 183.509 318.513H164.642C164.64 317.844 164.645 317.199 164.645 317.199ZM213.894 312.687C214.255 311.737 216.45 308.53 216.45 308.53C216.161 309.241 218.237 309.241 218.237 309.241L220.506 308.53C221.184 309.006 220.388 310.905 220.388 310.905C219.64 311.617 219.583 312.805 219.583 312.805C219.456 314.349 218.704 314.705 218.704 314.705C216.27 317.317 218.704 318.507 218.704 318.507C218.731 318.511 218.751 318.509 218.777 318.513H211.717L212.451 316.605C213.734 314.467 213.894 312.687 213.894 312.687ZM209.608 296.039L208.791 296.917C206.549 297.269 199.868 298.25 196.812 297.97C196.725 297.316 196.465 296.657 195.864 296.152C195.864 296.152 195.873 296.063 195.878 295.938C197.735 296.519 202.149 297.384 209.608 296.039ZM194.178 314.467C194.178 314.467 194.89 312.923 194.178 311.617C194.178 311.617 196.091 310.311 196.44 308.412C196.44 308.412 197.633 302.354 196.44 300.572C196.44 300.572 196.868 299.553 196.843 298.408L206.511 297.82C205.679 298.472 205.176 299.602 205.176 299.602C204.182 299.108 203.559 299.978 203.559 299.978C201.777 300.69 202.627 302.71 202.627 302.71C199.444 311.141 201.773 313.279 201.773 313.279C201.995 314.098 201.94 316.691 201.866 318.511H193.664L194.178 314.467ZM189.751 315.419C189.751 315.419 190.83 316.607 191.019 317.675C191.061 317.913 191.053 318.206 191.021 318.513H187.518L188.425 315.775L189.751 315.419ZM183.502 297.749C183.502 297.749 183.469 298.234 183.367 298.882C183.367 298.882 183.269 298.824 183.089 298.733L183.476 297.295C183.464 297.465 183.467 297.623 183.502 297.749ZM171.616 252.602C171.616 252.602 171.183 252.074 171.748 251.774L172.21 251.707C172.811 251.93 172.451 252.508 172.451 252.508C172.044 252.702 172.279 253.222 172.279 253.222L172.324 253.236C172.173 253.238 172.03 253.267 171.883 253.28C171.888 253.262 172.041 252.737 171.616 252.602ZM170.9 277.108L172.56 275.586L172.842 281.806L171.728 282.386L169.169 280.571L170.9 277.108ZM165.21 300.494L165.174 300.548C165.167 300.53 165.163 300.514 165.159 300.497L165.21 300.494ZM157.128 317.675C157.317 316.607 158.396 315.419 158.396 315.419L159.719 315.775L160.627 318.513H157.123C157.094 318.206 157.086 317.913 157.128 317.675ZM153.969 314.467L154.481 318.513H146.474C146.401 316.694 146.345 314.1 146.568 313.281C146.568 313.281 148.899 311.143 145.714 302.712C145.714 302.712 146.563 300.692 144.784 299.981C144.784 299.981 144.161 299.111 143.166 299.605C143.166 299.605 142.661 298.47 141.825 297.818L151.304 298.394C151.277 299.547 151.707 300.575 151.707 300.575C150.512 302.356 151.707 308.414 151.707 308.414C152.056 310.314 153.969 311.619 153.969 311.619C153.257 312.925 153.969 314.467 153.969 314.467ZM152.272 296.014C152.276 296.096 152.283 296.152 152.283 296.152C151.675 296.664 151.415 297.331 151.333 297.992C148.132 298.196 141.652 297.238 139.543 296.906L138.722 296.023C145.907 297.331 150.274 296.592 152.272 296.014ZM129.641 314.705C129.641 314.705 128.889 314.349 128.76 312.805C128.76 312.805 128.702 311.617 127.955 310.905C127.955 310.905 127.158 309.006 127.837 308.53L130.106 309.241C130.106 309.241 132.182 309.241 131.892 308.53C131.892 308.53 134.09 311.735 134.448 312.687C134.448 312.687 134.609 314.467 135.894 316.605L136.628 318.513H132.718H129.568C129.594 318.509 129.614 318.511 129.641 318.507C129.641 318.507 132.077 317.319 129.641 314.705Z" fill="url(#paint27_linear_339_8)"/>
<path d="M1168.04 472.202L1161.89 471.606L1163.77 469.733L1150.4 462.329V456.37L1150.08 456.666L1163.77 443.819C1146.76 439.192 1118.16 450.606 1118.16 450.606C1114.76 446.041 1107.04 443.663 1100.51 442.435L1107.76 426.236C1078.61 417.598 1051.46 435.799 1051.46 435.799C1051.46 435.799 1034.91 392.611 983.955 384.28C983.955 384.28 990.789 398.38 997.042 418.163L996.973 417.943C996.973 417.943 978.349 405.256 956.757 405.874C956.757 405.874 960.034 414.272 963.742 426.234C963.736 426.229 950.273 416.979 920.973 420.99L934.623 443.957L928.069 453.689L918.199 456.368L920.975 459.858H923.731L922.897 460.167V465.753L918.201 464.283V472.198H913.265V480.836H1174.56V476.208L1168.04 472.202ZM1089.81 468.191V466.34L1096.97 450.35C1098.6 452.846 1100.28 455.544 1101.81 458.076L1093.11 464.287V468.193H1089.81V468.191Z" fill="url(#paint28_linear_339_8)"/>
<path d="M942.473 313.846C942.178 313.973 941.859 314.098 941.544 314.224C941.314 314.316 941.083 314.407 940.843 314.496C940.62 314.58 940.389 314.663 940.155 314.745C939.904 314.834 939.65 314.923 939.39 315.012C939.148 315.094 938.899 315.177 938.645 315.257C938.374 315.343 938.1 315.432 937.817 315.519C937.557 315.599 937.288 315.679 937.019 315.757C936.727 315.842 936.436 315.929 936.136 316.013C935.853 316.093 935.564 316.171 935.275 316.249C934.965 316.331 934.656 316.416 934.338 316.496C934.038 316.574 933.731 316.649 933.422 316.725C933.095 316.805 932.765 316.887 932.429 316.967C932.114 317.043 931.789 317.116 931.464 317.19C931.117 317.27 930.768 317.348 930.412 317.426C930.076 317.499 929.733 317.572 929.388 317.644C929.028 317.719 928.666 317.797 928.296 317.871C927.943 317.942 927.578 318.013 927.215 318.084C926.837 318.158 926.459 318.231 926.072 318.304C925.702 318.373 925.324 318.442 924.946 318.511C924.55 318.582 924.154 318.656 923.751 318.725C923.367 318.792 922.971 318.858 922.579 318.925C922.168 318.994 921.756 319.063 921.336 319.132C920.931 319.199 920.517 319.261 920.105 319.325C919.683 319.392 919.262 319.457 918.831 319.523C918.41 319.588 917.979 319.648 917.549 319.71C917.109 319.775 916.671 319.839 916.224 319.902C915.792 319.962 915.349 320.022 914.911 320.08C914.455 320.142 914.001 320.202 913.538 320.262C913.087 320.32 912.629 320.378 912.17 320.433C911.705 320.491 911.243 320.549 910.771 320.607C910.3 320.665 909.817 320.718 909.336 320.774C908.865 320.829 908.397 320.883 907.919 320.936C907.428 320.992 906.929 321.043 906.431 321.096C905.948 321.147 905.47 321.199 904.983 321.25C904.489 321.301 903.988 321.35 903.488 321.399C902.981 321.448 902.476 321.499 901.96 321.548C901.452 321.595 900.939 321.641 900.425 321.688C899.913 321.735 899.406 321.781 898.89 321.826C898.347 321.873 897.797 321.917 897.248 321.964C896.745 322.006 896.245 322.048 895.737 322.088C895.19 322.133 894.632 322.173 894.078 322.215C893.553 322.255 893.03 322.295 892.501 322.333C891.951 322.373 891.391 322.409 890.835 322.446C890.296 322.482 889.76 322.52 889.215 322.555C888.634 322.593 888.045 322.629 887.458 322.664C886.928 322.696 886.403 322.729 885.869 322.76C885.266 322.796 884.655 322.827 884.045 322.86C883.513 322.889 882.986 322.918 882.45 322.947C881.849 322.978 881.242 323.005 880.637 323.034C880.083 323.06 879.534 323.087 878.975 323.112C878.346 323.141 877.71 323.163 877.076 323.189C876.539 323.212 876.006 323.234 875.465 323.254C874.802 323.278 874.132 323.301 873.465 323.323C872.938 323.341 872.413 323.361 871.881 323.376C871.227 323.396 870.566 323.414 869.91 323.432C869.356 323.448 868.807 323.465 868.251 323.479C867.563 323.496 866.867 323.51 866.173 323.525C865.644 323.536 865.116 323.55 864.585 323.561C863.813 323.574 863.034 323.585 862.258 323.597C861.795 323.603 861.337 323.612 860.874 323.619C860.011 323.63 859.141 323.637 858.271 323.643C857.884 323.646 857.502 323.652 857.114 323.654C855.855 323.663 854.59 323.666 853.319 323.666C812.156 323.666 777.115 319.53 763.947 313.746C763.783 313.675 763.618 313.602 763.458 313.528C763.345 313.711 763.251 313.906 763.164 314.104C762.711 315.163 762.644 316.436 763.153 317.635L766.185 324.782C769.774 326.088 774.512 327.296 780.185 328.377L785.359 339.324C785.851 340.363 786.896 341.028 788.046 341.028H803.035C803.485 342.316 804.103 343.604 804.784 343.604H819.377C820.182 343.604 820.899 342.372 821.35 341.028H845.416V353.355H818.939L818.73 343.769H806.172L805.769 353.355H789.076C787.477 353.355 786.169 354.663 786.169 356.262V360.033C786.169 361.632 787.477 362.94 789.076 362.94H805.865L804.953 419.371C804.81 419.355 804.659 419.342 804.519 419.324L803.961 480.836H820.945L820.38 418.993C820.242 419.017 820.089 419.035 819.949 419.057L819.306 379.217L819.517 379.549L819.152 362.938H883.809L882.897 419.369C882.755 419.353 882.604 419.34 882.463 419.322L881.905 480.833H898.89L898.325 418.99C898.187 419.015 898.033 419.033 897.893 419.055L897.25 379.215L897.462 379.547L897.097 362.936H915.868C917.467 362.936 918.775 361.628 918.775 360.028V356.258C918.775 354.658 917.467 353.35 915.868 353.35H896.885L896.676 343.765H884.119L883.716 353.35H856.828V341.024H880.984C881.433 342.312 882.052 343.6 882.733 343.6H897.324C898.129 343.6 898.845 342.367 899.299 341.024H916.473C917.663 341.024 918.737 340.316 919.207 339.224L923.649 328.887C930.198 327.748 935.662 326.448 939.757 325.029L942.663 317.499C943.143 316.238 943.012 314.91 942.473 313.846Z" fill="url(#paint29_linear_339_8)"/>
<path d="M763.458 308.185C763.345 308.367 763.251 308.561 763.164 308.761C763.416 308.641 763.676 308.521 763.947 308.403C763.781 308.329 763.616 308.258 763.458 308.185Z" fill="url(#paint30_linear_339_8)"/>
<path d="M1313.95 291.216L1201.97 323.205V324.833V326.462L1206.97 325.036V341.282H1206.03V342.91V344.536H1214.87V346.225H1217.43V357.045V360.366H1220.16C1220.16 360.366 1221.49 368.195 1223.12 368.195H1224.87V374.67V473.012H1223.12C1221.49 473.012 1220.16 480.84 1220.16 480.84H1221.19H1243.86H1244.54C1244.54 480.84 1243.21 473.012 1241.59 473.012H1239.83V445.705V368.195H1241.59C1243.21 368.195 1244.54 360.366 1244.54 360.366H1247.12C1247.12 360.366 1248.45 368.195 1250.07 368.195H1251.83V374.67V473.012H1250.07C1248.45 473.012 1247.12 480.84 1247.12 480.84H1248.15H1270.82H1271.5C1271.5 480.84 1270.17 473.012 1268.55 473.012H1266.79V445.705V368.195H1268.55C1270.17 368.195 1271.5 360.366 1271.5 360.366H1274.08C1274.08 360.366 1275.41 368.195 1277.03 368.195H1278.79V374.67V473.012H1277.03C1275.41 473.012 1274.08 480.84 1274.08 480.84H1275.11H1297.78H1298.46C1298.46 480.84 1297.13 473.012 1295.5 473.012H1293.75V445.705V368.195H1295.5C1297.13 368.195 1298.46 360.366 1298.46 360.366H1301.81C1301.81 360.366 1303.14 368.195 1304.76 368.195H1306.52V374.67V473.012H1304.76C1303.14 473.012 1301.81 480.84 1301.81 480.84H1302.84H1325.51H1326.18C1326.18 480.84 1324.86 473.012 1323.23 473.012H1321.48V445.705V368.195H1323.23C1324.86 368.195 1326.18 360.366 1326.18 360.366H1329.62C1329.62 360.366 1330.95 368.195 1332.57 368.195H1334.33V374.67V473.012H1332.57C1330.95 473.012 1329.62 480.84 1329.62 480.84H1330.65H1353.32H1354C1354 480.84 1352.67 473.012 1351.05 473.012H1349.29V445.705V368.195H1351.05C1352.67 368.195 1354 360.366 1354 360.366H1356.58C1356.58 360.366 1357.91 368.195 1359.53 368.195H1361.29V374.67V473.012H1359.53C1357.91 473.012 1356.58 480.84 1356.58 480.84H1357.61H1380.28H1380.96C1380.96 480.84 1379.63 473.012 1378 473.012H1376.25V445.705V368.195H1378C1379.63 368.195 1380.96 360.366 1380.96 360.366H1383.54C1383.54 360.366 1384.86 368.195 1386.49 368.195H1388.25V374.67V473.012H1386.49C1384.86 473.012 1383.54 480.84 1383.54 480.84H1384.56H1407.24H1407.91C1407.91 480.84 1406.58 473.012 1404.96 473.012H1403.2V445.705V368.195H1404.96C1406.58 368.195 1407.91 360.366 1407.91 360.366H1410.56V357.045V346.225H1413.25V344.536H1422.1V342.91V341.282H1420.54V324.92L1425.94 326.462V324.833V323.205L1313.95 291.216Z" fill="url(#paint31_linear_339_8)"/>
<path d="M13.2896 470.578H24.2233C24.2233 466.205 26.0742 465.028 26.0742 465.028C25.5692 463.01 27.42 459.983 27.42 459.983L34.8212 438.282L27.7559 437.61C24.8974 436.6 26.746 433.742 26.746 433.742C27.3132 433.363 27.7159 432.89 27.9962 432.447C28.2765 432.004 28.4366 431.59 28.519 431.33C28.5746 431.157 28.5946 431.052 28.5946 431.052L26.0719 430.883L29.2686 426.34C29.0996 426.067 28.9883 425.8 28.9171 425.54C28.8482 425.279 28.8237 425.028 28.8304 424.788C28.8393 424.547 28.8793 424.318 28.9416 424.103C29.1285 423.457 29.5111 422.939 29.787 422.628C29.9716 422.421 30.1073 422.305 30.1073 422.305C31.6222 416.922 35.6576 416.922 35.6576 416.922C61.7317 414.735 59.545 437.948 59.545 437.948C59.545 439.461 56.3483 434.247 55.5074 441.312C55.2049 443.861 55.8833 445.639 57.1691 446.88C57.812 447.501 58.604 447.985 59.5005 448.368C59.7252 448.464 59.9543 448.553 60.1923 448.635C60.6662 448.8 61.16 448.942 61.6739 449.062C62.6994 449.305 63.7917 449.465 64.9062 449.572C67.1352 449.787 69.4443 449.792 71.4575 449.825C71.7089 449.83 71.9558 449.834 72.1983 449.841C72.9235 449.856 73.5998 449.883 74.2093 449.928C74.4118 449.943 74.6075 449.961 74.7944 449.981C76.5651 450.172 78.3292 450.408 80.0933 450.664C80.5649 450.733 81.0365 450.808 81.5081 450.882C82.8674 451.093 84.2243 451.318 85.5791 451.563C85.8327 451.609 86.0885 451.643 86.3399 451.689V451.7C88.3487 452.072 90.353 452.464 92.3484 452.9C98.5594 454.254 105.727 455.863 112.127 454.788C116.483 454.056 120.427 452.744 124.938 452.757C129.499 452.768 134.11 453.536 138.348 455.249C143.901 457.493 148.497 461.564 151.38 466.814C152.283 468.46 153.03 470.204 153.566 472.004C153.644 472.269 153.858 473.984 154.082 474.115C158.12 476.471 154.754 480.845 154.754 480.845H86.3443H0C1.17902 471.252 13.2896 470.578 13.2896 470.578Z" fill="url(#paint32_linear_339_8)"/>
<path d="M812.089 468.694C808.735 468.694 806.016 471.412 806.016 474.767C806.016 478.122 808.735 480.84 812.089 480.84C815.444 480.84 818.162 478.122 818.162 474.767C818.162 471.412 815.444 468.694 812.089 468.694Z" fill="url(#paint33_linear_339_8)"/>
<path d="M751.361 468.694C748.006 468.694 745.288 471.412 745.288 474.767C745.288 478.122 748.006 480.84 751.361 480.84C754.713 480.84 757.434 478.122 757.434 474.767C757.434 471.412 754.715 468.694 751.361 468.694Z" fill="url(#paint34_linear_339_8)"/>
<path d="M839.852 427.746C839.852 424.365 837.084 421.6 833.705 421.6H734.955C731.573 421.6 728.808 424.365 728.808 427.746V468.496C728.808 471.877 731.573 474.642 734.955 474.642H743.435C743.501 470.32 747.023 466.834 751.363 466.834C755.703 466.834 759.222 470.32 759.289 474.642H767.932H774.955H777.268H784.291H804.163C804.23 470.32 807.751 466.834 812.089 466.834C816.429 466.834 819.949 470.32 820.015 474.642H821.964H828.987H831.301H838.324H841.638C845.019 474.642 847.785 471.877 847.785 468.496L839.852 427.746ZM800.192 424.114H811.842V437.957H800.192V424.114ZM787.056 424.114H798.706V437.957H787.056V424.114ZM747.644 424.114H759.294V437.957H747.644V424.114ZM734.45 429.677C734.45 426.616 736.955 424.114 740.013 424.114H746.158V437.957H734.45V429.677ZM732.461 448.121H742.747V458.408H732.461V448.121ZM743.989 470.18H732.463V469.188H743.989V470.18ZM743.989 467.702H732.463V466.71H743.989V467.702ZM743.989 465.224H732.463V464.231H743.989V465.224ZM743.989 462.745H732.463V461.753H743.989V462.745ZM754.275 458.408H743.989V448.121H754.275V458.408ZM765.863 458.408H755.576V448.121H765.863V458.408ZM760.782 437.957V424.114H772.432V437.957H760.782ZM774.952 473.154H767.929V471.664H774.952V473.154ZM774.952 470.178H767.929V448.119H774.952V470.178ZM784.291 473.154H777.268V471.664H784.291V473.154ZM784.291 470.178H777.268V448.119H784.291V470.178ZM785.568 437.957H773.918V424.114H785.568V437.957ZM796.535 458.408H786.249V448.121H796.535V458.408ZM808.063 458.408H797.776V448.121H808.063V458.408ZM819.651 458.408H809.364V448.121H819.651V458.408ZM813.328 437.957V424.114H824.978V437.957H813.328ZM828.989 473.154H821.966V471.664H828.989V473.154ZM828.989 470.178H821.966V448.119H828.989V470.178ZM826.467 437.957V424.114H829.399C832.46 424.114 834.962 426.616 834.962 429.677L836.575 437.957H826.467ZM838.326 473.154H831.303V471.664H838.326V473.154ZM838.326 470.178H831.303V448.119H838.326V470.178Z" fill="url(#paint35_linear_339_8)"/>
<defs>
<linearGradient id="paint0_linear_339_8" x1="422.635" y1="480.84" x2="422.635" y2="206.944" gradientUnits="userSpaceOnUse">
<stop stop-color="#FCC446"/>
<stop offset="0.0676" stop-color="#FCB949"/>
<stop offset="0.3547" stop-color="#FD9055"/>
<stop offset="0.6157" stop-color="#FE735E"/>
<stop offset="0.8395" stop-color="#FF6063"/>
<stop offset="1" stop-color="#FF5A65"/>
</linearGradient>
<linearGradient id="paint1_linear_339_8" x1="512.946" y1="480.84" x2="512.946" y2="280.152" gradientUnits="userSpaceOnUse">
<stop stop-color="#B13780"/>
<stop offset="0.1584" stop-color="#98529A"/>
<stop offset="0.359" stop-color="#7E6CB4"/>
<stop offset="0.5643" stop-color="#6C7FC7"/>
<stop offset="0.7752" stop-color="#628AD2"/>
<stop offset="1" stop-color="#5E8ED6"/>
</linearGradient>
<linearGradient id="paint2_linear_339_8" x1="666.454" y1="480.84" x2="666.454" y2="-0.00332462" gradientUnits="userSpaceOnUse">
<stop stop-color="#46A691"/>
<stop offset="0.113" stop-color="#609B8B"/>
<stop offset="0.4266" stop-color="#A47F7B"/>
<stop offset="0.6895" stop-color="#D56B6F"/>
<stop offset="0.8883" stop-color="#F45F68"/>
<stop offset="1" stop-color="#FF5A65"/>
</linearGradient>
<linearGradient id="paint3_linear_339_8" x1="666.455" y1="237.083" x2="666.455" y2="175.632" gradientUnits="userSpaceOnUse">
<stop stop-color="#46A691"/>
<stop offset="0.113" stop-color="#609B8B"/>
<stop offset="0.4266" stop-color="#A47F7B"/>
<stop offset="0.6895" stop-color="#D56B6F"/>
<stop offset="0.8883" stop-color="#F45F68"/>
<stop offset="1" stop-color="#FF5A65"/>
</linearGradient>
<linearGradient id="paint4_linear_339_8" x1="666.454" y1="228.871" x2="666.454" y2="183.843" gradientUnits="userSpaceOnUse">
<stop stop-color="#46A691"/>
<stop offset="0.113" stop-color="#609B8B"/>
<stop offset="0.4266" stop-color="#A47F7B"/>
<stop offset="0.6895" stop-color="#D56B6F"/>
<stop offset="0.8883" stop-color="#F45F68"/>
<stop offset="1" stop-color="#FF5A65"/>
</linearGradient>
<linearGradient id="paint5_linear_339_8" x1="666.454" y1="231.831" x2="666.454" y2="180.884" gradientUnits="userSpaceOnUse">
<stop stop-color="#46A691"/>
<stop offset="0.113" stop-color="#609B8B"/>
<stop offset="0.4266" stop-color="#A47F7B"/>
<stop offset="0.6895" stop-color="#D56B6F"/>
<stop offset="0.8883" stop-color="#F45F68"/>
<stop offset="1" stop-color="#FF5A65"/>
</linearGradient>
<linearGradient id="paint6_linear_339_8" x1="1213.39" y1="480.84" x2="1213.39" y2="78.468" gradientUnits="userSpaceOnUse">
<stop stop-color="#75B465"/>
<stop offset="0.36" stop-color="#AB9165"/>
<stop offset="0.793" stop-color="#E76965"/>
<stop offset="1" stop-color="#FF5A65"/>
</linearGradient>
<linearGradient id="paint7_linear_339_8" x1="927.63" y1="480.84" x2="927.63" y2="134.964" gradientUnits="userSpaceOnUse">
<stop stop-color="#F18A00"/>
<stop offset="0.0623" stop-color="#F3830E"/>
<stop offset="0.2267" stop-color="#F7742D"/>
<stop offset="0.3982" stop-color="#FB6946"/>
<stop offset="0.5779" stop-color="#FD6157"/>
<stop offset="0.7706" stop-color="#FF5C62"/>
<stop offset="1" stop-color="#FF5A65"/>
</linearGradient>
<linearGradient id="paint8_linear_339_8" x1="231.151" y1="480.84" x2="231.151" y2="111.454" gradientUnits="userSpaceOnUse">
<stop stop-color="#0080B5"/>
<stop offset="0.3207" stop-color="#5B7299"/>
<stop offset="0.6527" stop-color="#B2657D"/>
<stop offset="0.8871" stop-color="#EA5D6C"/>
<stop offset="1" stop-color="#FF5A65"/>
</linearGradient>
<linearGradient id="paint9_linear_339_8" x1="316.595" y1="480.84" x2="316.595" y2="182.635" gradientUnits="userSpaceOnUse">
<stop stop-color="#552C59"/>
<stop offset="0.0075" stop-color="#572C59"/>
<stop offset="0.3623" stop-color="#9E405E"/>
<stop offset="0.6574" stop-color="#D34E62"/>
<stop offset="0.8783" stop-color="#F35764"/>
<stop offset="1" stop-color="#FF5A65"/>
</linearGradient>
<linearGradient id="paint10_linear_339_8" x1="1355.69" y1="464.608" x2="1481.72" y2="246.307" gradientUnits="userSpaceOnUse">
<stop stop-color="#FF5D00"/>
<stop offset="0.4263" stop-color="#FF8800"/>
<stop offset="0.7932" stop-color="#FFA600"/>
<stop offset="1" stop-color="#FFB100"/>
</linearGradient>
<linearGradient id="paint11_linear_339_8" x1="595.065" y1="480.84" x2="595.065" y2="320.231" gradientUnits="userSpaceOnUse">
<stop stop-color="#FF4B00"/>
<stop offset="0.0955" stop-color="#FF6300"/>
<stop offset="0.2346" stop-color="#FF7F00"/>
<stop offset="0.3843" stop-color="#FF9500"/>
<stop offset="0.5477" stop-color="#FFA500"/>
<stop offset="0.7351" stop-color="#FFAE00"/>
<stop offset="1" stop-color="#FFB100"/>
</linearGradient>
<linearGradient id="paint12_linear_339_8" x1="1028.62" y1="516.895" x2="1143.54" y2="317.839" gradientUnits="userSpaceOnUse">
<stop stop-color="#95B100"/>
<stop offset="0.3369" stop-color="#BDB100"/>
<stop offset="0.7792" stop-color="#EDB100"/>
<stop offset="1" stop-color="#FFB100"/>
</linearGradient>
<linearGradient id="paint13_linear_339_8" x1="44.5167" y1="420.206" x2="44.5167" y2="397.931" gradientUnits="userSpaceOnUse">
<stop stop-color="#E96478"/>
<stop offset="0.1924" stop-color="#EE745F"/>
<stop offset="0.7423" stop-color="#FAA01B"/>
<stop offset="1" stop-color="#FFB100"/>
</linearGradient>
<linearGradient id="paint14_linear_339_8" x1="118.998" y1="354.86" x2="118.998" y2="349.714" gradientUnits="userSpaceOnUse">
<stop stop-color="#E96478"/>
<stop offset="0.1924" stop-color="#EE745F"/>
<stop offset="0.7423" stop-color="#FAA01B"/>
<stop offset="1" stop-color="#FFB100"/>
</linearGradient>
<linearGradient id="paint15_linear_339_8" x1="81.2937" y1="480.84" x2="81.2937" y2="208.007" gradientUnits="userSpaceOnUse">
<stop stop-color="#E96478"/>
<stop offset="0.1924" stop-color="#EE745F"/>
<stop offset="0.7423" stop-color="#FAA01B"/>
<stop offset="1" stop-color="#FFB100"/>
</linearGradient>
<linearGradient id="paint16_linear_339_8" x1="46.3149" y1="364.908" x2="46.3149" y2="361.789" gradientUnits="userSpaceOnUse">
<stop stop-color="#E96478"/>
<stop offset="0.1924" stop-color="#EE745F"/>
<stop offset="0.7423" stop-color="#FAA01B"/>
<stop offset="1" stop-color="#FFB100"/>
</linearGradient>
<linearGradient id="paint17_linear_339_8" x1="46.8623" y1="397.931" x2="46.8623" y2="389.221" gradientUnits="userSpaceOnUse">
<stop stop-color="#E96478"/>
<stop offset="0.1924" stop-color="#EE745F"/>
<stop offset="0.7423" stop-color="#FAA01B"/>
<stop offset="1" stop-color="#FFB100"/>
</linearGradient>
<linearGradient id="paint18_linear_339_8" x1="45.4444" y1="420.285" x2="45.4444" y2="420.206" gradientUnits="userSpaceOnUse">
<stop stop-color="#E96478"/>
<stop offset="0.1924" stop-color="#EE745F"/>
<stop offset="0.7423" stop-color="#FAA01B"/>
<stop offset="1" stop-color="#FFB100"/>
</linearGradient>
<linearGradient id="paint19_linear_339_8" x1="41.7798" y1="461.256" x2="41.7798" y2="458.425" gradientUnits="userSpaceOnUse">
<stop stop-color="#E96478"/>
<stop offset="0.1924" stop-color="#EE745F"/>
<stop offset="0.7423" stop-color="#FAA01B"/>
<stop offset="1" stop-color="#FFB100"/>
</linearGradient>
<linearGradient id="paint20_linear_339_8" x1="39.4921" y1="338.617" x2="39.4921" y2="333.517" gradientUnits="userSpaceOnUse">
<stop stop-color="#E96478"/>
<stop offset="0.1924" stop-color="#EE745F"/>
<stop offset="0.7423" stop-color="#FAA01B"/>
<stop offset="1" stop-color="#FFB100"/>
</linearGradient>
<linearGradient id="paint21_linear_339_8" x1="84.1102" y1="321.145" x2="84.1102" y2="317.659" gradientUnits="userSpaceOnUse">
<stop stop-color="#E96478"/>
<stop offset="0.1924" stop-color="#EE745F"/>
<stop offset="0.7423" stop-color="#FAA01B"/>
<stop offset="1" stop-color="#FFB100"/>
</linearGradient>
<linearGradient id="paint22_linear_339_8" x1="128.123" y1="358.641" x2="128.123" y2="354.86" gradientUnits="userSpaceOnUse">
<stop stop-color="#E96478"/>
<stop offset="0.1924" stop-color="#EE745F"/>
<stop offset="0.7423" stop-color="#FAA01B"/>
<stop offset="1" stop-color="#FFB100"/>
</linearGradient>
<linearGradient id="paint23_linear_339_8" x1="36.8915" y1="221.518" x2="36.8915" y2="221.514" gradientUnits="userSpaceOnUse">
<stop stop-color="#E96478"/>
<stop offset="0.1924" stop-color="#EE745F"/>
<stop offset="0.7423" stop-color="#FAA01B"/>
<stop offset="1" stop-color="#FFB100"/>
</linearGradient>
<linearGradient id="paint24_linear_339_8" x1="762.88" y1="480.84" x2="762.88" y2="230.883" gradientUnits="userSpaceOnUse">
<stop stop-color="#FFB1B7"/>
<stop offset="0.006" stop-color="#FFB1B6"/>
<stop offset="0.6971" stop-color="#FFB134"/>
<stop offset="1" stop-color="#FFB100"/>
</linearGradient>
<linearGradient id="paint25_linear_339_8" x1="336.188" y1="480.717" x2="336.188" y2="360.716" gradientUnits="userSpaceOnUse">
<stop stop-color="#4DB100"/>
<stop offset="0.0524" stop-color="#65B100"/>
<stop offset="0.1546" stop-color="#8EB100"/>
<stop offset="0.2632" stop-color="#B1B100"/>
<stop offset="0.3774" stop-color="#CDB100"/>
<stop offset="0.4992" stop-color="#E3B100"/>
<stop offset="0.6322" stop-color="#F3B100"/>
<stop offset="0.7846" stop-color="#FCB100"/>
<stop offset="1" stop-color="#FFB100"/>
</linearGradient>
<linearGradient id="paint26_linear_339_8" x1="336.189" y1="480.84" x2="336.189" y2="480.717" gradientUnits="userSpaceOnUse">
<stop stop-color="#FFB100" stop-opacity="0"/>
<stop offset="0.1175" stop-color="#FFB100" stop-opacity="0.1175"/>
<stop offset="1" stop-color="#FFB100"/>
</linearGradient>
<linearGradient id="paint27_linear_339_8" x1="174.172" y1="480.84" x2="174.172" y2="239.488" gradientUnits="userSpaceOnUse">
<stop stop-color="#CEE1A8"/>
<stop offset="0.2459" stop-color="#ABC7B6"/>
<stop offset="0.5798" stop-color="#81A8C8"/>
<stop offset="0.8427" stop-color="#6895D2"/>
<stop offset="1" stop-color="#5E8ED6"/>
</linearGradient>
<linearGradient id="paint28_linear_339_8" x1="1043.91" y1="480.84" x2="1043.91" y2="384.281" gradientUnits="userSpaceOnUse">
<stop stop-color="#5EE6D6"/>
<stop offset="0.0567" stop-color="#5EDED6"/>
<stop offset="0.3254" stop-color="#5EBBD6"/>
<stop offset="0.5796" stop-color="#5EA2D6"/>
<stop offset="0.8114" stop-color="#5E93D6"/>
<stop offset="1" stop-color="#5E8ED6"/>
</linearGradient>
<linearGradient id="paint29_linear_339_8" x1="852.877" y1="480.84" x2="852.877" y2="313.532" gradientUnits="userSpaceOnUse">
<stop offset="0.00066106" stop-color="#5024D6"/>
<stop offset="0.0057" stop-color="#5025D6"/>
<stop offset="0.323" stop-color="#5652D6"/>
<stop offset="0.6057" stop-color="#5A73D6"/>
<stop offset="0.841" stop-color="#5D87D6"/>
<stop offset="1" stop-color="#5E8ED6"/>
</linearGradient>
<linearGradient id="paint30_linear_339_8" x1="763.556" y1="308.761" x2="763.556" y2="308.185" gradientUnits="userSpaceOnUse">
<stop stop-color="#5E8ED6" stop-opacity="0"/>
<stop offset="0.1464" stop-color="#5E8ED6" stop-opacity="0.1464"/>
<stop offset="1" stop-color="#5E8ED6"/>
</linearGradient>
<linearGradient id="paint31_linear_339_8" x1="1313.95" y1="480.84" x2="1313.95" y2="291.217" gradientUnits="userSpaceOnUse">
<stop stop-color="#B58ED6"/>
<stop offset="0.1785" stop-color="#A08ED6"/>
<stop offset="0.5299" stop-color="#7C8ED6"/>
<stop offset="0.8163" stop-color="#668ED6"/>
<stop offset="1" stop-color="#5E8ED6"/>
</linearGradient>
<linearGradient id="paint32_linear_339_8" x1="78.0376" y1="480.84" x2="78.0376" y2="416.772" gradientUnits="userSpaceOnUse">
<stop stop-color="#FF5AD1"/>
<stop offset="0.0891" stop-color="#FF5ABC"/>
<stop offset="0.2488" stop-color="#FF5A9D"/>
<stop offset="0.4154" stop-color="#FF5A84"/>
<stop offset="0.5899" stop-color="#FF5A73"/>
<stop offset="0.7772" stop-color="#FF5A68"/>
<stop offset="1" stop-color="#FF5A65"/>
</linearGradient>
<linearGradient id="paint33_linear_339_8" x1="812.09" y1="480.84" x2="812.09" y2="468.694" gradientUnits="userSpaceOnUse">
<stop stop-color="#FF5A24"/>
<stop offset="0.1112" stop-color="#FF5A2F"/>
<stop offset="0.4704" stop-color="#FF5A4C"/>
<stop offset="0.7792" stop-color="#FF5A5F"/>
<stop offset="1" stop-color="#FF5A65"/>
</linearGradient>
<linearGradient id="paint34_linear_339_8" x1="751.361" y1="480.84" x2="751.361" y2="468.694" gradientUnits="userSpaceOnUse">
<stop stop-color="#FF5A24"/>
<stop offset="0.1112" stop-color="#FF5A2F"/>
<stop offset="0.4704" stop-color="#FF5A4C"/>
<stop offset="0.7792" stop-color="#FF5A5F"/>
<stop offset="1" stop-color="#FF5A65"/>
</linearGradient>
<linearGradient id="paint35_linear_339_8" x1="788.297" y1="474.642" x2="788.297" y2="421.599" gradientUnits="userSpaceOnUse">
<stop stop-color="#FF5A24"/>
<stop offset="0.1112" stop-color="#FF5A2F"/>
<stop offset="0.4704" stop-color="#FF5A4C"/>
<stop offset="0.7792" stop-color="#FF5A5F"/>
<stop offset="1" stop-color="#FF5A65"/>
</linearGradient>
</defs>
</svg>
