<svg width="73" height="45" viewBox="0 0 73 45" fill="none" xmlns="http://www.w3.org/2000/svg">
<path d="M43.162 12.1444C43.4609 11.238 44.0351 10.4007 44.8449 9.69065C45.6547 8.98056 46.6805 8.41471 47.8511 8.03243C49.0218 7.65015 50.3091 7.46062 51.6236 7.477C52.9382 7.49339 54.2484 7.7153 55.4632 8.12731L57.2047 8.71891C57.9444 8.97002 58.7762 9.00517 59.5169 8.81663C60.2576 8.62809 60.8467 8.23131 61.1545 7.71357C61.4622 7.19582 61.4636 6.59953 61.1581 6.05587C60.8526 5.51221 60.2654 5.06571 59.5257 4.8146L57.7782 4.2225C55.7537 3.53607 53.5702 3.16642 51.3796 3.13921C49.189 3.11201 47.0438 3.42791 45.093 4.06496C43.1422 4.70202 41.4327 5.64495 40.0832 6.82823C38.7336 8.01151 37.7765 9.40676 37.2783 10.917L34.3083 19.9232L23.0273 18.9717C22.2278 18.9042 21.4418 19.0665 20.8424 19.4228C20.243 19.779 19.8791 20.3001 19.831 20.8714C19.7828 21.4427 20.0542 22.0174 20.5855 22.469C21.1168 22.9207 21.8644 23.2123 22.664 23.2797L32.9139 24.1442L30.0994 32.6754C29.7708 33.6705 29.1104 34.5811 28.1735 35.331C27.2366 36.081 26.0504 36.6486 24.7136 36.9865C23.3769 37.3245 21.9285 37.423 20.4893 37.2738C19.05 37.1246 17.6617 36.732 16.44 36.1288L16.2214 36.0214C15.5445 35.6988 14.7333 35.573 13.9623 35.6712C13.1914 35.7694 12.5225 36.0837 12.0997 36.5465C11.6769 37.0092 11.534 37.5833 11.7018 38.1451C11.8696 38.7069 12.3347 39.2115 12.9969 39.5502L13.2184 39.66C21.9976 43.995 33.625 41.0557 35.9834 33.9006L39.0308 24.6602L49.7962 25.5682C50.5958 25.6356 51.3817 25.4733 51.9812 25.1171C52.5806 24.7608 52.9444 24.2397 52.9926 23.6684C53.0408 23.0971 52.7694 22.5225 52.2381 22.0708C51.7068 21.6192 50.9591 21.3276 50.1596 21.2601L40.4221 20.4388L43.162 12.1444Z" fill="#100F0F" fill-opacity="0.8"/>
<path d="M1.13778 29.9025V16.8116H9.8054V19.0936H3.90554V22.2129H9.23011V24.4949H3.90554V29.9025H1.13778ZM14.339 16.8116V29.9025H11.6159V16.8116H14.339ZM18.2013 33.5843C17.8562 33.5843 17.5323 33.5566 17.2298 33.5012C16.9315 33.4501 16.6843 33.3841 16.4883 33.3031L17.1019 31.2704C17.4215 31.3684 17.7092 31.4217 17.9648 31.4302C18.2248 31.4387 18.4485 31.3791 18.636 31.2512C18.8278 31.1234 18.9833 30.9061 19.1026 30.5993L19.2624 30.1838L15.7404 20.0843H18.604L20.6367 27.2946H20.739L22.7908 20.0843H25.6737L21.8576 30.9636C21.6744 31.492 21.4251 31.9522 21.1097 32.3443C20.7987 32.7406 20.4045 33.0453 19.9272 33.2584C19.4499 33.4757 18.8746 33.5843 18.2013 33.5843ZM28.1442 29.9025H25.1783L29.6974 16.8116H33.2642L37.777 29.9025H34.8111L31.532 19.8031H31.4297L28.1442 29.9025ZM27.9588 24.7569H34.9645V26.9174H27.9588V24.7569ZM40.0078 29.9025L37.3359 20.0843H40.0909L41.6122 26.6809H41.7017L43.2869 20.0843H45.9908L47.6016 26.6426H47.6847L49.1804 20.0843H51.929L49.2635 29.9025H46.3807L44.6932 23.7278H44.5717L42.8842 29.9025H40.0078ZM56.1813 30.0879C55.5549 30.0879 54.9966 29.9792 54.5066 29.7619C54.0165 29.5403 53.6287 29.2143 53.3432 28.7839C53.062 28.3493 52.9213 27.8081 52.9213 27.1603C52.9213 26.6149 53.0215 26.1568 53.2218 25.786C53.4221 25.4153 53.6948 25.117 54.04 24.8912C54.3851 24.6653 54.7772 24.4949 55.2161 24.3798C55.6593 24.2647 56.1238 24.1838 56.6096 24.1369C57.1806 24.0772 57.6408 24.0218 57.9902 23.9707C58.3397 23.9153 58.5932 23.8343 58.7509 23.7278C58.9086 23.6213 58.9874 23.4636 58.9874 23.2548V23.2164C58.9874 22.8116 58.8596 22.4984 58.6039 22.2768C58.3525 22.0552 57.9945 21.9444 57.53 21.9444C57.04 21.9444 56.65 22.0531 56.3603 22.2704C56.0705 22.4835 55.8787 22.752 55.785 23.0758L53.2665 22.8713C53.3944 22.2747 53.6458 21.7591 54.0208 21.3244C54.3958 20.8855 54.8794 20.5488 55.4718 20.3145C56.0684 20.0758 56.7587 19.9565 57.5428 19.9565C58.0882 19.9565 58.6103 20.0204 59.1088 20.1483C59.6117 20.2761 60.057 20.4743 60.4448 20.7427C60.8368 21.0112 61.1458 21.3564 61.3716 21.7782C61.5975 22.1959 61.7104 22.6966 61.7104 23.2804V29.9025H59.128V28.541H59.0513C58.8936 28.8478 58.6827 29.1184 58.4185 29.3528C58.1543 29.5829 57.8368 29.764 57.4661 29.8961C57.0953 30.024 56.6671 30.0879 56.1813 30.0879ZM56.9611 28.2086C57.3617 28.2086 57.7154 28.1298 58.0222 27.9721C58.329 27.8102 58.5698 27.5929 58.7445 27.3201C58.9192 27.0474 59.0066 26.7385 59.0066 26.3933V25.3514C58.9213 25.4068 58.8042 25.4579 58.655 25.5048C58.5101 25.5474 58.3461 25.5879 58.1628 25.6262C57.9796 25.6603 57.7963 25.6923 57.6131 25.7221C57.4299 25.7477 57.2637 25.7711 57.1145 25.7924C56.7949 25.8393 56.5158 25.9139 56.2772 26.0162C56.0385 26.1184 55.8532 26.2569 55.7211 26.4316C55.589 26.6021 55.5229 26.8152 55.5229 27.0709C55.5229 27.4416 55.6571 27.725 55.9256 27.921C56.1983 28.1128 56.5435 28.2086 56.9611 28.2086ZM65.1525 33.5843C64.8074 33.5843 64.4835 33.5566 64.1809 33.5012C63.8826 33.4501 63.6355 33.3841 63.4395 33.3031L64.0531 31.2704C64.3727 31.3684 64.6603 31.4217 64.916 31.4302C65.176 31.4387 65.3997 31.3791 65.5872 31.2512C65.7789 31.1234 65.9345 30.9061 66.0538 30.5993L66.2136 30.1838L62.6916 20.0843H65.5552L67.5879 27.2946H67.6902L69.742 20.0843H72.6248L68.8088 30.9636C68.6255 31.492 68.3762 31.9522 68.0609 32.3443C67.7498 32.7406 67.3556 33.0453 66.8784 33.2584C66.4011 33.4757 65.8258 33.5843 65.1525 33.5843Z" fill="#E9E7E7"/>
</svg>
